<svg width="122" height="149" viewBox="0 0 122 149" fill="none" xmlns="http://www.w3.org/2000/svg">
<path d="M101.325 79.159C101.535 101.707 121.106 109.211 121.323 109.307C121.158 109.836 118.196 120 111.012 130.499C104.802 139.576 98.3562 148.619 88.2027 148.806C78.2259 148.99 75.0178 142.89 63.6115 142.89C52.2087 142.89 48.6443 148.619 39.2002 148.99C29.3995 149.361 21.9364 139.175 15.6746 130.131C2.87919 111.633 -6.89912 77.8583 6.23068 55.06C12.7533 43.7383 24.4097 36.569 37.0616 36.3851C46.6856 36.2015 55.7696 42.8598 61.6528 42.8598C67.5324 42.8598 78.5713 34.8527 90.176 36.0286C95.0342 36.2308 108.671 37.991 117.428 50.8085C116.722 51.2459 101.156 60.3077 101.325 79.159ZM82.5751 23.7901C87.7783 17.4918 91.2804 8.72394 90.325 0C82.825 0.301436 73.7557 4.99784 68.376 11.2927C63.5548 16.8671 59.3326 25.7892 60.4718 34.3405C68.8315 34.9873 77.3716 30.0924 82.5751 23.7901Z" fill="white"/>
</svg>
