<svg width="312" height="65" viewBox="0 0 312 65" fill="none" xmlns="http://www.w3.org/2000/svg">
<path d="M58.5877 18.5528C56.5368 7.97274 49.493 0.300805 36.7856 0.184359H36.2306C21.7308 0.275082 10.9718 7.59602 5.26897 18.5528C2.11846 24.7389 0.511452 31.6045 0.586497 38.5565C0.586497 52.6147 8.32685 61.4669 18.2473 63.9466C20.1716 64.4265 22.1478 64.6663 24.13 64.6599C26.3011 64.6854 28.4669 64.4442 30.5806 63.9466C34.4898 63.0593 37.9858 60.8673 40.5011 57.7284V63.3101C40.4942 63.3926 40.4942 63.4747 40.5011 63.5577C40.6006 63.7804 40.8142 63.9303 41.0561 63.9469H49.6351C49.739 63.9347 49.8399 63.9048 49.932 63.8553C50.0755 63.7643 50.1775 63.6191 50.2159 63.4534L56.1371 32.974C56.1434 32.9186 56.1434 32.8625 56.1371 32.8055C56.1371 32.4465 55.8487 32.1563 55.4922 32.1563H33.9609C33.6612 32.1464 33.3938 32.3455 33.3157 32.6371L31.6906 40.8921V41.0099C31.6765 41.0948 31.6765 41.1839 31.6906 41.2693C31.7903 41.5078 32.0259 41.6624 32.284 41.6582H43.1463C40.8111 48.1488 35.406 53.8221 26.7621 53.8221C18.119 53.8221 12.6745 47.5517 12.6745 36.843C12.5599 30.2224 14.7098 23.7653 18.7641 18.5528C22.5329 13.7696 28.2696 10.9871 34.3347 10.9973C40.3595 10.9973 43.8687 13.7624 46.2166 18.5528C46.823 19.8099 47.3356 21.1121 47.7515 22.4467C47.8502 22.6887 48.0844 22.8472 48.3448 22.8486H48.5256L58.2658 20.2525C58.3312 20.2411 58.3931 20.2129 58.4464 20.175C58.6399 20.0558 58.7576 19.8442 58.7562 19.6171V19.5137C58.7562 19.2014 58.6399 18.877 58.5753 18.5653M82.4416 0.833529C82.4416 0.474508 82.1524 0.184082 81.7967 0.184082H71.9146C71.6002 0.186848 71.3332 0.417529 71.2827 0.728976L67.8509 18.5525L59.2722 63.1536V63.2969C59.2527 63.3779 59.2527 63.4628 59.2722 63.5444C59.3711 63.7851 59.6048 63.9449 59.8657 63.9463H69.7345C70.0311 63.9549 70.2939 63.7544 70.3667 63.4656L78.9972 18.5528L82.3899 0.937252V0.833529M113.3 18.5528C111.382 18.066 109.409 17.8273 107.43 17.8373C105.063 17.8099 102.7 18.048 100.387 18.5528C96.0582 19.5958 92.1108 21.8462 88.9952 25.0434C83.6282 30.2354 81.2548 36.9337 81.2548 45.4877C81.2548 54.367 86.3502 61.6871 95.0714 63.9466C96.9948 64.432 98.9712 64.6727 100.954 64.6599C103.368 64.7056 105.779 64.4649 108.139 63.9466C112.464 62.9038 116.408 60.654 119.518 57.456C124.885 52.2637 127.258 45.5795 127.258 37.0239C127.258 28.1308 122.097 20.7977 113.441 18.5528M111.932 50.2515C109.622 53.4232 105.905 55.246 101.999 55.1196C96.7221 55.1196 93.2263 50.7967 93.2263 43.7736C93.2263 38.9061 94.297 35.1286 96.5412 32.2473C98.8659 29.0997 102.58 27.3021 106.475 27.444C111.751 27.444 115.248 31.7666 115.248 38.7894C115.248 43.6577 114.164 47.4349 111.932 50.3165M164.245 25.0805C162.737 22.1223 159.33 19.7076 155.382 18.5901C153.773 18.1174 152.105 17.8779 150.428 17.8765C148.496 17.8605 146.57 18.1014 144.7 18.5901C138.615 19.9214 134.377 25.481 134.676 31.7409C134.676 37.7768 138.624 41.2942 143.901 43.8115C149.177 46.3305 151.641 47.8631 151.641 50.472C151.641 53.717 148.945 55.1575 145.913 55.1575C141.643 55.1575 138.598 52.5608 137.321 48.0838C137.225 47.8211 136.979 47.6465 136.702 47.6424C136.621 47.6297 136.538 47.6297 136.457 47.6424L128.148 51.1211C127.908 51.2199 127.75 51.4553 127.749 51.718V51.8204C129.152 57.6493 133.555 62.2735 139.282 63.9319C141.025 64.4187 142.827 64.658 144.636 64.6467C146.768 64.6641 148.895 64.4232 150.97 63.9319C157.808 62.232 162.36 57.4413 162.36 48.8873C162.36 42.592 157.704 39.5296 153.06 37.3616C150.015 35.9191 145.319 34.5705 145.319 31.4159C145.295 29.1926 147.065 27.3723 149.274 27.3469C149.418 27.3441 149.563 27.3516 149.706 27.3643C152.315 27.3657 154.76 28.645 156.259 30.7922C156.383 30.9548 156.573 31.0497 156.775 31.0511C156.894 31.0483 157.008 31.017 157.112 30.9617L164.064 25.9249C164.31 25.7424 164.383 25.4013 164.233 25.1338M192.253 18.5528C190.642 18.0807 188.975 17.84 187.298 17.8373C185.363 17.8226 183.433 18.0632 181.559 18.5528C175.477 19.889 171.246 25.447 171.548 31.7008C171.548 37.7375 175.418 41.2561 180.77 43.7736C185.867 46.2016 188.511 47.8241 188.511 50.4327C188.511 53.6777 185.829 55.1193 182.783 55.1193C178.514 55.1193 175.455 52.5229 174.178 48.0177C174.088 47.7699 173.851 47.6017 173.586 47.6017C173.5 47.5843 173.412 47.5843 173.326 47.6017L165.032 51.0691C164.794 51.1693 164.641 51.406 164.645 51.666C164.639 51.7089 164.639 51.7526 164.645 51.7952C166.054 57.6114 170.448 62.2215 176.166 63.8813C177.913 64.3654 179.719 64.6046 181.533 64.5947C183.66 64.614 185.783 64.3726 187.854 63.8813C194.691 62.1803 199.258 57.3907 199.258 48.8367C199.258 42.54 194.6 39.4762 189.943 37.3082C186.898 35.8685 182.203 34.5185 182.203 31.3625C182.178 29.1417 183.95 27.319 186.156 27.2949C186.301 27.2935 186.446 27.299 186.589 27.3143C189.19 27.3154 191.629 28.588 193.129 30.7266C193.25 30.9011 193.448 31.0027 193.659 30.9999C193.776 30.9952 193.89 30.9645 193.994 30.9092L201.025 25.8724C201.164 25.7404 201.243 25.5579 201.245 25.3667C201.245 25.268 201.222 25.169 201.18 25.0799C199.671 22.109 196.266 19.6929 192.317 18.5896M221.175 18.5528H211.345C211.061 18.5564 210.811 18.7453 210.725 19.0191L202.212 63.1541C202.204 63.2026 202.204 63.2507 202.212 63.2974C202.199 63.3798 202.199 63.462 202.212 63.545C202.313 63.7842 202.547 63.9416 202.805 63.9469H212.635C212.753 63.9427 212.867 63.912 212.971 63.8553C213.114 63.7687 213.217 63.6285 213.255 63.4661L221.795 19.2523C221.788 18.8972 221.504 18.6112 221.15 18.6029M255.994 18.5528C254.129 18.0632 252.207 17.8226 250.28 17.8373C248.109 17.8339 245.945 18.0735 243.83 18.5528C231.803 21.316 223.337 32.1671 223.523 44.5788C223.523 54.9639 229.047 61.8179 237.135 63.9463C239.001 64.4326 240.921 64.6724 242.849 64.6597C245.102 64.6812 247.346 64.4417 249.544 63.9463C255.828 62.479 260.406 58.7541 264.664 52.5356C264.843 52.2306 264.745 51.8386 264.445 51.6536L256.705 47.6158C256.624 47.5746 256.536 47.5525 256.446 47.5511C256.255 47.5566 256.075 47.6468 255.957 47.7973C252.719 52.4842 249.016 55.1196 243.895 55.1196C237.987 55.1196 234.761 50.9784 234.761 46.2915V44.8518H266.678C266.793 44.8477 266.909 44.8164 267.013 44.7603C267.146 44.6764 267.247 44.5476 267.296 44.3976C268.033 41.6674 268.411 38.8527 268.419 36.0237C268.419 27.6393 264.16 20.7329 256.047 18.5528M236.85 36.0234C238.741 30.965 243.478 27.5527 248.848 27.379C254.485 27.379 257.078 30.3521 257.44 36.0234H236.85ZM304.49 28.742C304.584 28.7954 304.689 28.8223 304.798 28.8209C304.916 28.8236 305.032 28.7902 305.134 28.729C305.249 28.6541 305.339 28.5454 305.392 28.4176L308.682 19.6556C308.695 19.569 308.695 19.4816 308.682 19.3956C308.676 19.1361 308.521 18.9013 308.283 18.7984L307.676 18.5777C306.189 18.0494 304.618 17.8074 303.043 17.8641C301.409 17.8569 299.782 18.0975 298.219 18.5777C294.495 19.8127 291.243 22.1754 288.905 25.3407L290.077 19.3829C290.178 19.0543 289.995 18.7047 289.667 18.6045C289.6 18.5846 289.53 18.5758 289.459 18.5777H279.591C279.279 18.5791 279.014 18.8037 278.958 19.1107L270.431 63.2451C270.425 63.2792 270.425 63.3146 270.431 63.3494C270.411 63.4305 270.411 63.514 270.431 63.595C270.529 63.8384 270.765 63.9969 271.024 63.9983H281.01C281.127 63.9947 281.241 63.9626 281.345 63.9073C281.488 63.8158 281.591 63.6711 281.629 63.504L284.673 47.9276C287.357 33.6486 294.994 27.9371 300.604 27.9371C301.945 27.9109 303.27 28.2046 304.474 28.7946M218.234 0.884976C214.723 0.884976 211.875 3.75023 211.875 7.28568C211.875 10.8197 214.722 13.6847 218.234 13.6847C221.747 13.6847 224.594 10.82 224.594 7.28568C224.667 3.82242 221.936 0.957167 218.495 0.884976C218.408 0.883593 218.322 0.883593 218.234 0.884976ZM305.07 52.0289C301.543 52.0444 298.694 54.9332 298.71 58.4813C298.719 60.716 299.881 62.7863 301.779 63.9466C303.817 65.1061 306.309 65.1061 308.345 63.9466C311.36 62.1031 312.318 58.1503 310.487 55.1185C309.336 53.213 307.285 52.0441 305.07 52.0289Z" fill="#FFFCF3"/>
</svg>
