<svg width="220" height="192" viewBox="0 0 220 192" fill="none" xmlns="http://www.w3.org/2000/svg">
<path d="M141.168 181.47H149.35V183.262H141.168V181.47ZM41.9456 186.315H43.4193C42.9354 189.876 40.6039 191.978 36.9966 191.978C32.2675 191.978 29.5181 188.859 29.5181 183.549C29.5181 178.24 32.3115 174.877 36.6447 174.877C40.9778 174.877 43.2873 177.709 43.3753 183.04H32.4435C32.4875 188.416 33.9392 190.85 37.2825 190.85C39.878 190.85 41.5057 189.257 41.9456 186.315ZM32.5315 181.802H40.4499C40.2519 177.753 38.9762 175.784 36.6447 175.784C34.3131 175.784 32.9054 177.82 32.5315 181.802ZM214.325 190.717H210.036L220 175.298H207.397L206.561 179.788H207.287C208.606 176.691 209.2 176.205 211.576 176.205H216.085L206.143 191.602H218.746L219.692 186.624H218.922C217.844 189.788 216.811 190.717 214.325 190.717ZM24.767 188.549L24.3711 171.581V171.36C24.3711 169.811 24.921 169.457 27.4065 169.325V168.462C26.0208 168.572 25.4269 168.595 24.5031 168.595C23.3373 168.595 22.1496 168.528 20.9838 168.418L14.0552 185.894L7.25855 168.418C6.09278 168.55 4.92701 168.595 3.76125 168.595C2.72745 168.595 2.17756 168.55 0.74785 168.462V169.325C3.27734 169.457 3.78324 169.811 3.78324 171.404V171.603L3.0134 188.593C2.94741 190.451 2.59548 190.739 0 190.916V191.735C1.91362 191.602 2.63947 191.558 3.67327 191.558C4.70706 191.558 5.41092 191.602 7.30254 191.735V190.916C4.72905 190.739 4.26715 190.429 4.26715 188.903V188.593L4.993 170.652L11.0198 185.938L11.4597 187.155L11.9876 188.505L12.5155 189.854L12.9114 190.96H13.4613L13.8572 189.81L14.3411 188.505L14.869 187.222L15.3089 186.071L21.3357 170.674L21.6657 188.549V188.726C21.6657 190.341 21.1158 190.739 18.6303 190.872V191.69C20.148 191.513 21.6877 191.425 23.2054 191.403C24.7451 191.425 26.2627 191.513 27.7804 191.69V190.872C25.141 190.695 24.811 190.407 24.767 188.549ZM202.118 189.146V180.85C202.162 179.788 201.986 178.749 201.59 177.753C200.864 176.05 198.884 174.988 196.751 174.988C194.617 174.988 193.121 175.829 191.802 177.687C191.758 176.669 191.648 175.674 191.428 174.678C189.844 175.187 188.216 175.541 186.567 175.718V176.293C186.743 176.293 186.919 176.337 187.029 176.337C188.832 176.337 189.052 176.536 189.096 177.952V189.168C189.096 190.651 188.744 190.938 186.501 191.027V191.712C187.82 191.58 189.14 191.513 190.46 191.513C191.78 191.513 193.099 191.58 194.419 191.712V191.027C192.506 190.96 192.044 190.606 192.044 189.235V180.872C192.044 178.019 193.363 176.559 195.849 176.559C198.202 176.559 199.148 177.753 199.148 180.784V189.257C199.148 190.628 198.664 190.982 196.707 191.049V191.735C198.026 191.602 199.368 191.535 200.71 191.535C202.052 191.535 203.371 191.602 204.713 191.735V191.049C202.492 190.916 202.118 190.606 202.118 189.146ZM55.033 174.877C53.1194 174.877 51.5577 176.028 50.7439 177.997V177.62C50.6779 176.581 50.5899 176.028 50.4139 174.745C48.8302 175.165 47.2246 175.452 45.5749 175.541V176.16H46.0368C47.9504 176.205 48.1264 176.359 48.1484 177.864V189.168C48.1484 190.651 47.7524 190.938 45.5089 191.027V191.712C48.2364 191.447 50.9638 191.447 53.6913 191.712V191.027C51.4697 190.916 51.0958 190.628 51.0958 189.168V181.956C51.0958 178.527 52.3055 176.359 54.1972 176.359C54.857 176.359 55.2969 176.691 55.2969 177.178V177.488L55.209 177.842C55.165 177.952 55.143 178.063 55.143 178.174C55.143 178.859 55.7149 179.346 56.6387 179.346C57.5625 179.346 58.2004 178.682 58.2004 177.687C58.2004 176.028 56.9246 174.877 55.033 174.877ZM45.8608 108.709C39.4821 97.803 36.2927 85.3038 36.2927 72.4729C36.2927 59.9737 39.4821 47.1428 45.8608 36.2364C52.2396 25.3301 61.4777 16.0387 72.3215 9.62323C83.1654 3.20774 95.5929 0 108.35 0C120.8 0 133.557 3.20774 144.401 9.62323C155.245 16.0387 164.483 25.3301 170.862 36.2364C177.241 47.1428 180.43 59.9737 180.43 72.4729C180.43 84.972 177.241 97.803 170.862 108.709C164.483 119.616 155.245 128.907 144.401 135.322C133.557 141.738 121.13 144.946 108.372 144.946C95.9448 144.946 83.1874 141.738 72.3435 135.322C61.4777 128.929 52.2396 119.616 45.8608 108.709ZM110.264 7.36675L118.556 66.6989L165.429 103.577C170.532 93.9537 173.083 83.3792 173.391 72.7826C173.391 61.2347 170.532 50.0187 164.791 40.0636C159.05 30.1528 150.78 21.8127 140.882 16.0387C131.314 10.5745 121.108 7.69858 110.264 7.36675ZM108.042 84.6623L52.8774 107.116C58.2883 116.098 66.2728 123.797 75.5109 129.239C85.3869 135.013 96.5607 137.889 108.042 137.889C119.524 137.889 130.676 135.013 140.574 129.239C150.142 123.797 157.796 116.098 163.207 107.116L108.042 84.6623ZM42.9794 72.4729C42.9794 83.3792 45.8388 93.9537 50.9418 103.267L97.8144 66.3892L106.107 7.05703C95.263 7.36675 84.7491 10.2648 75.4889 15.7069C65.6129 21.4808 57.3205 29.8209 51.5797 39.7539C45.8608 49.709 42.9794 60.925 42.9794 72.4729ZM167.255 182.487C167.65 183.284 167.848 184.147 167.826 185.031C167.826 186.093 167.54 187.133 167.013 188.062C166.485 188.991 165.715 189.788 164.791 190.385C163.251 191.292 161.778 191.602 159.072 191.602H149.812V190.783C152.518 190.584 152.825 190.341 152.825 188.46V171.692C152.825 169.833 152.452 169.546 149.812 169.413V168.55H159.446C161.822 168.55 163.251 168.926 164.505 169.789C165.209 170.32 165.781 170.984 166.155 171.736C166.529 172.488 166.727 173.329 166.705 174.169V174.191C166.705 176.603 165.319 178.373 162.679 179.302C163.735 179.434 164.725 179.833 165.583 180.408C166.265 180.983 166.859 181.691 167.255 182.487ZM155.861 179.036H158.346C160.392 179.036 161.382 178.793 162.196 177.908C163.009 177.001 163.405 175.873 163.405 174.28C163.405 171.072 162.042 169.656 158.962 169.656H155.861V179.036ZM164.549 185.142C164.549 183.483 164.109 182.001 163.251 181.204C162.416 180.408 161.316 180.098 159.358 180.098H155.839V188.748C155.839 190.274 156.169 190.54 158.104 190.54H159.424C162.701 190.54 164.549 188.593 164.549 185.142ZM67.0646 190.872C64.2492 190.872 62.8194 188.394 62.8194 183.549C62.8194 178.616 64.4251 175.806 67.1746 175.806C69.4181 175.806 70.7598 177.266 71.4197 180.253H72.2116V174.545L71.5957 174.59L70.6059 176.359C70.144 175.873 69.5501 175.497 68.9122 175.231C68.2744 174.988 67.5705 174.855 66.8666 174.899C62.5555 174.899 59.6301 178.417 59.6301 183.571C59.6301 188.615 62.5335 192 66.7786 192C70.078 192 72.1676 189.987 72.6295 186.292H71.1338C70.6939 189.345 69.3301 190.872 67.0646 190.872ZM135.229 182.664L133.667 182.045C130.346 180.651 129.774 180.209 129.774 178.837C129.774 177.222 131.27 175.961 133.227 175.961C135.515 175.961 136.747 177.266 137.077 180.032H137.912V174.656H137.253L136.637 176.072C135.559 175.32 134.239 174.944 132.897 174.966C129.664 174.966 127.399 176.824 127.399 179.567C127.399 181.58 128.234 182.532 130.918 183.704L132.611 184.434L133.997 185.009C135.801 185.784 136.483 186.558 136.483 187.73C136.483 189.5 134.877 190.85 132.699 190.85C130.126 190.85 128.608 189.323 127.926 186.182L127.135 186.226V192H127.794L128.674 190.429C129.906 191.403 131.468 191.934 133.073 191.889C136.527 191.889 138.968 189.81 138.968 186.912C138.99 184.921 138 183.815 135.229 182.664ZM122.581 186.337H124.055C123.571 189.898 121.24 192 117.654 192C112.925 192 110.176 188.881 110.176 183.571C110.176 178.262 112.969 174.899 117.325 174.899C121.68 174.899 123.967 177.731 124.055 183.063H113.145C113.189 188.438 114.641 190.872 117.984 190.872H117.962C120.514 190.85 122.142 189.257 122.581 186.337ZM113.167 181.802H121.086C120.866 177.753 119.612 175.784 117.281 175.784C114.949 175.784 113.541 177.82 113.167 181.802ZM183.223 186.337H184.675C184.191 189.898 181.86 192 178.252 192C173.523 192 170.774 188.881 170.774 183.571C170.774 178.262 173.589 174.899 177.922 174.899C182.256 174.899 184.565 177.731 184.653 183.063H173.743C173.787 188.438 175.239 190.872 178.582 190.872C181.156 190.85 182.783 189.257 183.223 186.337ZM173.809 181.802H181.728C181.508 177.753 180.276 175.784 177.922 175.784C175.547 175.784 174.161 177.82 173.809 181.802ZM108.79 190.474V191.049L108.24 191.115C106.789 191.226 105.337 191.513 103.951 191.934C103.665 191.027 103.489 190.097 103.423 189.168C102.39 191.115 100.938 192 98.8702 192C94.867 192 92.0956 188.505 92.0956 183.527C92.0956 178.55 94.845 175.054 98.7602 175.054C100.74 175.054 101.796 175.674 103.159 177.753V171.714C103.159 169.922 102.873 169.679 100.564 169.679V169.125C102.434 168.948 104.281 168.639 106.107 168.174V188.129C106.107 190.23 106.327 190.407 108.79 190.474ZM103.225 183.748C103.225 178.66 101.752 176.05 99.1122 176.05C96.4727 176.05 95.197 178.572 95.197 183.505C95.197 188.438 96.5827 191.049 99.2222 191.049C101.862 191.049 103.225 188.549 103.225 183.748ZM87.6305 186.337H89.1042C88.6203 189.898 86.2887 192 82.6815 192C77.9524 192 75.203 188.881 75.203 183.571C75.203 178.262 77.9964 174.899 82.3515 174.899C86.7067 174.899 88.9942 177.731 89.0822 183.063H78.1724C78.2164 188.438 79.6681 190.872 83.0114 190.872H82.9894C85.5629 190.85 87.1906 189.257 87.6305 186.337ZM78.2164 181.802H86.1348C85.9148 177.753 84.6611 175.784 82.3295 175.784C79.998 175.784 78.5903 177.82 78.2164 181.802Z" fill="#E0E0E0"/>
</svg>
