<svg width="251" height="173" viewBox="0 0 251 173" fill="none" xmlns="http://www.w3.org/2000/svg">
<path d="M59.72 1.22247C59.494 1.44822 59.1833 2.04081 58.9855 2.57697C58.7878 3.08491 58.4488 3.98791 58.2228 4.55229C57.2058 7.28952 56.9515 7.96677 56.5278 9.06731C56.2735 9.74456 55.9063 10.7322 55.7085 11.2684C55.5108 11.8045 55.1153 12.8204 54.861 13.5259C54.6068 14.2314 54.2113 15.2755 53.9853 15.8398C53.7593 16.4324 53.4203 17.3919 53.1943 17.9562C52.9683 18.5488 52.601 19.5647 52.3468 20.2138C51.7818 21.7658 51.1603 23.4025 50.6518 24.7288C50.4258 25.3214 50.0303 26.3655 49.7761 27.0709C49.5218 27.7764 49.1263 28.8205 48.9003 29.3849C48.6743 29.9775 48.3353 30.9369 48.1093 31.5013C47.8833 32.0939 47.5161 33.1098 47.2618 33.7588C47.0076 34.4361 46.6403 35.4519 46.4143 36.0163C46.1883 36.6089 45.7928 37.653 45.5386 38.3585C45.2843 39.064 44.8888 40.0798 44.6911 40.616C44.4933 41.1522 44.0978 42.168 43.8436 42.8735C43.5893 43.579 43.1938 44.6231 42.9678 45.1875C42.4593 46.542 41.8378 48.1786 41.2728 49.7025C41.0186 50.3797 40.6514 51.3674 40.4536 51.9035C40.2559 52.4397 39.9169 53.3991 39.6626 54.02C39.4366 54.6408 39.0129 55.7131 38.7586 56.4186C38.1371 58.027 37.5156 59.6637 37.0636 60.9336C36.8659 61.4697 36.4986 62.4574 36.2444 63.1064C35.9901 63.7837 35.5946 64.856 35.3404 65.505C35.0861 66.1823 34.7754 66.9442 34.6341 67.1982C34.4929 67.4804 34.3799 67.9601 34.3799 68.2705C34.3799 68.8349 34.5494 68.8349 42.2333 68.8349H50.1151L50.4541 68.0447C50.6518 67.6214 51.3298 65.9565 51.9513 64.3198C52.5728 62.6831 53.3355 60.7078 53.6463 59.9459C53.957 59.1558 54.3243 58.1399 54.4373 57.6884C54.7198 56.7007 55.0588 55.7977 56.9798 50.9159C57.7708 48.8841 58.5335 46.8524 58.6748 46.4009C59.0703 45.0746 59.833 43.0428 60.059 42.7324C60.2003 42.5913 60.3697 42.0834 60.4827 41.6319C60.624 41.0393 60.7652 40.8982 60.9912 41.1239C61.302 41.4343 61.1607 43.579 59.9178 60.2281C59.6635 63.4733 59.5223 66.7184 59.5788 67.4239L59.6635 68.6938L67.7147 68.7784C72.1499 68.8066 76.0484 68.7784 76.3874 68.6938C76.7264 68.6091 77.0937 68.2705 77.1784 67.9036C77.4044 67.1417 78.9299 63.0782 79.4384 61.9212C79.6362 61.4415 79.8621 60.8207 79.9469 60.5103C80.0316 60.1999 80.3424 59.2969 80.6531 58.535C80.9356 57.7448 81.8679 55.3462 82.6589 53.1734C83.4781 51.0005 84.3256 48.8559 84.5516 48.4326C84.7776 47.9811 84.9471 47.445 84.9471 47.2474C84.9471 47.0217 85.1449 46.3726 85.3991 45.78C86.1054 44.1998 87.1789 41.4908 87.9134 39.4872C88.1111 38.9511 88.5066 37.9352 88.7609 37.2297C89.0151 36.5243 89.4106 35.5084 89.6084 34.9722C89.8061 34.4361 90.1733 33.4484 90.4276 32.7712C90.6818 32.1221 91.0773 31.078 91.3033 30.4572C91.5293 29.8364 91.9248 28.8205 92.1508 28.1997C92.3768 27.5789 92.7723 26.563 92.9983 25.9422C93.2243 25.3214 93.6198 24.3055 93.8458 23.6847C94.0718 23.0639 94.4673 22.048 94.6933 21.4272C94.9193 20.8064 95.3148 19.7905 95.5408 19.1697C95.7668 18.5488 96.1623 17.5047 96.4166 16.8275C96.6708 16.1785 97.0381 15.1908 97.2358 14.6546C97.6313 13.5823 98.1963 12.0585 98.9026 10.1961C99.1568 9.54703 99.5523 8.50293 99.7783 7.88212C100.654 5.51173 101.134 4.32654 101.53 3.33888C101.756 2.7745 101.897 2.01259 101.841 1.64575L101.756 0.968495L94.8346 0.883839C91.0208 0.827401 87.5179 0.883839 87.0376 0.968495C86.1054 1.13781 86.1336 1.02493 83.6759 7.59993C83.4499 8.22074 83.0544 9.23662 82.8284 9.85744C82.6024 10.4783 82.2351 11.4659 82.0091 12.0303C81.7831 12.6229 81.4159 13.6388 81.1616 14.2878C80.9074 14.9651 80.5119 16.0374 80.2576 16.6864C79.3819 19.0003 79.0429 19.8751 78.1672 22.2737C76.5569 26.563 76.4157 26.9298 76.0484 27.7764C75.8507 28.2279 75.5964 28.8769 75.5117 29.1591C75.3987 29.4978 75.2292 29.6106 75.0597 29.4413C74.8902 29.272 74.9467 27.6918 75.2009 25.0956C75.4269 22.8381 75.6247 19.988 75.6247 18.7464C75.6247 17.5047 75.8224 14.5135 76.0202 12.1149C76.5004 6.86624 76.6699 1.67397 76.3874 1.16603C76.0484 0.629869 60.285 0.686307 59.72 1.22247ZM104.327 1.36356C104.072 1.64575 103.733 2.23834 103.592 2.68985C103.479 3.14135 103.084 4.21366 102.745 5.06023C102.406 5.9068 102.038 6.92268 101.897 7.31774C101.756 7.7128 101.389 8.72868 101.05 9.57525C100.711 10.4218 100.343 11.4377 100.202 11.8328C100.061 12.2278 99.6936 13.2437 99.3546 14.0903C99.0156 14.9368 98.6483 15.9527 98.5071 16.3478C98.3658 16.7428 97.9986 17.7587 97.6596 18.6053C97.3206 19.4519 96.9533 20.4677 96.8121 20.8628C96.6708 21.2579 96.3036 22.2737 95.9646 23.1203C95.6256 23.9669 95.2583 24.9827 95.1171 25.3778C94.9758 25.7729 94.6086 26.7888 94.2696 27.6353C93.9306 28.4819 93.5633 29.4978 93.4221 29.8928C93.2808 30.2879 92.9136 31.3038 92.5746 32.1503C92.2356 32.9969 91.8683 34.0128 91.7271 34.4078C91.5858 34.8029 91.2186 35.8188 90.8796 36.6654C90.5406 37.5119 90.1734 38.5278 90.0321 38.9229C89.8909 39.3179 89.5236 40.3338 89.1846 41.1804C88.3371 43.3814 87.7721 44.877 87.4896 45.6954C87.3484 46.0905 86.9811 47.1063 86.6421 47.9529C86.3031 48.7995 85.9359 49.8153 85.7946 50.2104C85.6534 50.6055 85.2861 51.6214 84.9471 52.4679C84.6081 53.3145 84.2409 54.3304 84.0996 54.7254C83.9584 55.1205 83.5911 56.1364 83.2521 56.9829C82.9131 57.8295 82.5459 58.8454 82.4046 59.2404C82.2634 59.6355 81.8961 60.6514 81.5571 61.498C81.2181 62.3445 80.8509 63.3604 80.7096 63.7555C80.5684 64.1505 80.2011 65.1664 79.8622 66.013C78.7039 68.9477 78.0259 68.6938 86.9811 68.7784L94.8063 68.8349L95.2866 67.9319C95.5408 67.4521 95.8516 66.7184 95.9646 66.3234C96.1058 65.9283 96.4731 64.8842 96.8121 64.0377C97.1511 63.1911 97.5183 62.1752 97.6596 61.7801C97.8008 61.3851 98.1681 60.3692 98.5071 59.5226C98.8461 58.6761 99.2133 57.6602 99.3546 57.2651C99.4958 56.8701 99.8631 55.8542 100.202 55.0076C100.541 54.161 100.908 53.1452 101.05 52.7501C101.191 52.355 101.558 51.3392 101.897 50.4926C102.236 49.646 102.603 48.6302 102.745 48.2351C102.886 47.84 103.253 46.8241 103.592 45.9776C103.931 45.131 104.298 44.1151 104.44 43.7201C104.581 43.325 104.948 42.3091 105.287 41.4626C105.626 40.616 105.993 39.6001 106.135 39.2051C106.276 38.81 106.643 37.7941 106.982 36.9475C107.321 36.101 107.688 35.0851 107.83 34.69C107.971 34.295 108.338 33.2791 108.677 32.4325C109.016 31.586 109.383 30.5701 109.525 30.175C109.666 29.78 110.033 28.7641 110.372 27.9175C110.711 27.0709 111.078 26.0551 111.219 25.66C111.361 25.2649 111.728 24.2491 112.067 23.4025C112.406 22.5559 112.773 21.54 112.914 21.145C113.056 20.7499 113.423 19.734 113.762 18.8875C114.101 18.0409 114.468 17.025 114.609 16.63C114.751 16.2349 115.118 15.219 115.457 14.3725C115.796 13.5259 116.163 12.51 116.304 12.1149C116.446 11.7199 116.813 10.704 117.152 9.85744C117.491 9.01087 117.858 7.99499 117.999 7.59993C118.141 7.20486 118.508 6.18898 118.847 5.34242C120.231 1.78684 120.344 1.33534 119.92 1.08137C119.723 0.940277 116.248 0.827401 112.18 0.827401C105.344 0.827401 104.779 0.85562 104.327 1.36356Z" fill="white"/>
<path d="M122.943 1.56133C122.689 1.98461 122.35 2.63364 122.237 3.05693C122.095 3.45199 121.728 4.49609 121.389 5.34266C121.05 6.18922 120.683 7.2051 120.542 7.60017C120.4 7.99523 120.033 9.01111 119.694 9.85767C119.355 10.7042 118.96 11.7766 118.818 12.2563C118.677 12.7078 118.451 13.3568 118.31 13.6672C118.169 13.9776 117.462 15.8683 116.728 17.9001C115.993 19.9036 115.287 21.8225 115.146 22.1329C115.005 22.4433 114.779 23.0641 114.637 23.5438C114.496 23.9953 114.101 25.0959 113.762 25.9424C113.423 26.789 113.055 27.8049 112.914 28.1999C112.773 28.595 112.406 29.6109 112.067 30.4574C111.728 31.304 111.36 32.3199 111.219 32.715C111.078 33.11 110.711 34.1259 110.372 34.9725C110.033 35.819 109.666 36.8349 109.524 37.23C109.383 37.625 109.016 38.6409 108.677 39.4875C108.338 40.3341 107.971 41.3499 107.829 41.745C107.688 42.1401 107.321 43.1559 106.982 44.0025C106.134 46.2036 105.569 47.6992 105.287 48.5175C105.146 48.9126 104.778 49.9285 104.439 50.775C104.1 51.6216 103.733 52.6375 103.592 53.0325C103.451 53.4276 103.083 54.4435 102.744 55.2901C102.434 56.1366 101.897 57.604 101.586 58.5352C101.275 59.4664 100.908 60.4823 100.767 60.7927C100.626 61.1031 100.174 62.2319 99.7781 63.3324C99.3826 64.4047 98.9588 65.5617 98.8176 65.8721C97.4051 69.1173 96.7553 68.8351 105.824 68.8351C113.677 68.8351 113.733 68.8351 114.157 68.2143C114.411 67.8757 114.609 67.3677 114.609 67.1138C114.609 66.8316 114.779 66.2672 115.005 65.8157C115.231 65.3924 115.626 64.4894 115.852 63.8121C116.106 63.1631 116.502 62.119 116.728 61.4982C116.954 60.8774 117.321 59.8897 117.547 59.2971C117.773 58.7328 118.14 57.7169 118.395 57.0396C118.649 56.3906 119.016 55.3747 119.242 54.7821C119.468 54.2177 120.231 52.2142 120.965 50.3517C121.672 48.4893 122.434 46.514 122.66 45.9778C124.073 42.3376 124.327 41.7732 124.525 42.0836C124.61 42.2812 124.807 47.0784 124.92 52.7504C125.033 58.4223 125.203 64.3201 125.316 65.8721L125.485 68.694L135.938 68.8351L146.39 68.9762L145.006 69.597C144.243 69.9639 143.424 70.2461 143.17 70.2461C142.887 70.2461 142.125 70.4154 141.418 70.6411C140.74 70.8386 139.356 71.2619 138.339 71.5159C136.22 72.0803 133.932 72.7011 132.124 73.209C131.418 73.4066 130.034 73.7734 129.017 74.0274C128 74.3096 126.474 74.7046 125.627 74.9304C122.83 75.6923 120.994 76.2002 119.468 76.5953C117.773 77.075 115.57 77.6676 113.394 78.2602C112.603 78.486 111.106 78.881 110.089 79.135C109.072 79.4172 107.688 79.784 106.982 79.9816C106.276 80.1791 104.891 80.5459 103.874 80.8281C102.857 81.1103 101.473 81.4772 100.767 81.6747C100.061 81.8722 98.6763 82.2391 97.6593 82.5213C96.6423 82.7752 95.1168 83.1703 94.2693 83.4243C93.4218 83.65 92.0376 84.0169 91.2183 84.2426C89.0431 84.8352 86.8396 85.4278 85.1446 85.8793C84.3536 86.1051 82.8564 86.5001 81.8394 86.7541C80.8224 87.0363 79.4381 87.4031 78.7319 87.6007C78.0257 87.7982 76.6414 88.165 75.6244 88.4472C73.3927 89.0398 71.1044 89.6606 69.4095 90.1404C68.7032 90.3379 67.319 90.7047 66.302 90.9869C65.285 91.2409 63.8442 91.636 63.0532 91.8335C58.4203 93.0751 57.4315 93.2162 52.177 93.188C46.8096 93.188 46.1033 93.1033 41.5833 91.6924C40.6511 91.4102 39.0974 90.7329 38.1086 90.225C37.1199 89.7171 35.9899 89.1245 35.5661 88.8987C35.1424 88.673 33.5886 87.2903 32.1196 85.7947C30.0574 83.7065 29.2099 82.6059 28.3907 80.9692C26.4979 77.0468 25.8764 74.5635 25.7069 70.105C25.5657 66.4929 26.1307 62.3166 27.3172 58.253C27.6562 57.1525 28.0234 55.8826 28.1647 55.4311C28.5602 54.0766 29.1817 52.4964 30.3964 49.6745C32.2044 45.5263 31.9219 45.6956 27.4302 51.2548C21.8649 58.1684 18.0795 63.3889 13.4182 70.6693C12.7402 71.7417 12.0622 72.8422 11.9775 73.0679C11.8645 73.2937 11.5255 73.8581 11.2147 74.3378C10.6497 75.2408 10.3672 75.7205 8.983 78.2884C5.79077 84.1297 3.55903 89.2374 2.31604 93.5266C1.21429 97.2797 1.07304 97.8441 0.649295 100.017C-0.000451908 103.347 0.0560478 109.611 0.762294 112.151C1.92054 116.356 3.07878 118.5 5.67777 121.266C8.38976 124.116 13.955 127.982 16.4692 128.744C16.78 128.828 17.7122 129.167 18.5597 129.477C22.4864 130.973 24.8029 131.312 31.2721 131.312C37.4024 131.312 38.8149 131.142 43.8433 129.901C46.6683 129.195 50.9058 127.954 52.177 127.474C52.5443 127.333 53.6178 126.966 54.5783 126.656C55.5105 126.345 57.2338 125.696 58.392 125.216C59.5503 124.765 61.0192 124.172 61.6407 123.947C62.2622 123.693 63.1662 123.354 63.6182 123.128C64.0985 122.931 66.8105 121.802 69.6919 120.617C75.9917 117.992 76.3024 117.851 77.7432 117.23C78.3647 116.977 79.2969 116.581 79.8054 116.356C80.2856 116.13 81.1614 115.763 81.6981 115.537C82.9411 114.973 84.3819 114.352 85.6531 113.844C86.1899 113.618 87.0939 113.223 87.6306 112.998C89.1279 112.377 90.4838 111.812 91.6703 111.276C92.2353 111.022 93.1111 110.655 93.5631 110.458C95.6253 109.611 97.6876 108.737 99.4956 107.946C100.117 107.664 101.021 107.269 101.473 107.072C101.953 106.874 102.801 106.507 103.366 106.253C104.552 105.717 105.908 105.153 107.406 104.532C109.722 103.544 110.824 103.065 114.129 101.597C115.174 101.118 116.135 100.722 116.276 100.722C116.417 100.722 116.954 100.497 117.491 100.243C118.847 99.5655 118.253 99.8194 131.983 93.9499C138.961 90.9587 144.865 88.419 145.119 88.3061C145.967 87.9111 147.549 87.2338 149.074 86.613C149.922 86.2744 151.334 85.6818 152.182 85.2867C154.724 84.1297 155.515 83.7911 156.56 83.3678C158.623 82.493 161.278 81.3361 162.069 80.9692C162.323 80.8563 167.323 78.6835 173.228 76.172C179.132 73.6605 184.132 71.4877 184.386 71.3748C184.867 71.1208 186.477 70.4436 187.861 69.8792C188.906 69.4277 190.827 68.5811 191.449 68.2707C191.703 68.1579 197.155 65.8157 203.596 63.0502C210.037 60.2848 215.489 57.9426 215.744 57.8298C216.139 57.6322 216.817 57.3218 219.134 56.3624C220.348 55.8544 222.241 55.0079 222.834 54.7257C223.06 54.6128 226.309 53.2019 230.038 51.6216C233.739 50.0413 236.903 48.6304 237.072 48.4893C237.214 48.3482 237.496 48.2353 237.694 48.2353C237.892 48.2353 238.88 47.8403 239.841 47.3888C240.83 46.909 241.734 46.5422 241.847 46.5422C241.931 46.5422 242.892 46.1471 243.937 45.6674C244.982 45.1595 246.225 44.5951 246.677 44.3976C250.293 42.8173 251 42.3658 250.632 41.745C250.378 41.3499 249.587 41.3782 247.864 41.8861C246.028 42.4505 244.107 42.9584 241.734 43.5792C240.717 43.8614 239.332 44.2283 238.626 44.4258C237.92 44.6233 236.536 44.9902 235.519 45.2724C234.502 45.5545 233.117 45.9214 232.411 46.1189C231.705 46.3165 230.321 46.6833 229.304 46.9655C228.287 47.2195 226.789 47.6145 225.998 47.8403C225.179 48.066 223.823 48.4046 223.032 48.6304C222.213 48.8561 220.716 49.2512 219.699 49.5052C218.682 49.7874 217.241 50.1824 216.45 50.38C212.241 51.5652 209.472 52.3271 207.269 52.8914C206.252 53.1736 204.868 53.5405 204.161 53.738C203.455 53.9355 202.071 54.3024 201.054 54.5846C200.037 54.8668 198.653 55.2336 197.946 55.4311C197.24 55.6287 195.856 55.9955 194.839 56.2777C193.822 56.5317 192.325 56.9268 191.534 57.1525C190.714 57.3783 189.358 57.7169 188.567 57.9426C187.748 58.1684 186.251 58.5634 185.234 58.8456C181.505 59.8051 180.262 60.1437 179.64 60.3977C179.273 60.5388 178.736 60.6516 178.426 60.6516C177.917 60.6516 177.861 60.5388 178.03 59.7204C178.143 59.2407 178.397 58.507 178.595 58.1119C178.793 57.7169 179.019 57.0961 179.047 56.701L179.16 55.9955L170.431 55.9109C164.922 55.8826 161.561 55.7416 161.335 55.544C161.109 55.3465 161.052 55.0361 161.221 54.4999C162.041 51.932 164.95 44.2 165.883 42.0836C166.109 41.5757 166.306 40.9266 166.306 40.6162C166.306 40.3341 166.589 39.8826 166.928 39.6568C167.465 39.2617 168.708 39.2053 174.81 39.2053C182.889 39.2053 182.437 39.3182 183.115 37.1735C183.341 36.4963 183.765 35.2547 184.104 34.4081C186.42 28.3693 186.731 27.438 186.562 26.9583C186.392 26.5632 185.573 26.5068 179.301 26.5068C173.623 26.5068 172.182 26.4221 172.069 26.1117C171.928 25.7449 174.499 18.408 176.081 14.7113C176.307 14.2034 176.476 13.6108 176.476 13.3568C176.476 12.5667 177.945 12.3974 185.545 12.3974H193.144L193.596 11.3251C193.85 10.7607 194.161 9.97055 194.274 9.57549C194.415 9.18042 194.782 8.16454 195.121 7.31798C195.46 6.47141 195.828 5.45553 195.969 5.06047C196.11 4.6654 196.477 3.67774 196.788 2.83118C197.099 1.98461 197.297 1.2227 197.212 1.13804C197.127 1.05339 186.223 0.940512 172.945 0.884074C150.261 0.827637 148.82 0.855856 148.283 1.30736C147.718 1.8153 138.565 12.736 136.644 15.2193C136.107 15.9247 135.373 16.7995 135.034 17.1946C134.695 17.5896 134.017 18.3233 133.565 18.8313C132.604 19.9318 132.124 19.5932 132.774 18.2387C133 17.7307 133.395 16.7995 133.65 16.1223C135.288 11.7483 135.429 11.3533 137.068 7.17688C137.774 5.31444 138.565 3.36733 138.791 2.8594C139.3 1.6742 139.3 1.2227 138.735 0.99695C138.48 0.912293 134.949 0.827637 130.853 0.827637H123.423L122.943 1.56133ZM163.679 4.55253C163.594 4.91937 163.255 5.90703 162.916 6.7536C162.577 7.60017 162.21 8.61604 162.069 9.01111C161.928 9.40617 161.561 10.4221 161.221 11.2686C160.882 12.1152 160.515 13.1311 160.374 13.5261C160.233 13.9212 159.866 14.9371 159.527 15.7836C159.188 16.6302 158.82 17.6461 158.679 18.0411C158.538 18.4362 158.171 19.4521 157.832 20.2987C157.493 21.1452 157.125 22.1611 156.984 22.5562C156.843 22.9512 156.476 23.9671 156.137 24.8137C155.798 25.6602 155.43 26.6761 155.289 27.0712C155.148 27.4662 154.781 28.4821 154.442 29.3287C154.103 30.1753 153.735 31.1911 153.594 31.5862C153.453 31.9813 153.086 32.9971 152.747 33.8437C152.408 34.6903 152.04 35.7062 151.899 36.1012C151.758 36.4963 151.391 37.5122 151.052 38.3587C150.713 39.2053 150.345 40.2212 150.204 40.6162C150.063 41.0113 149.696 42.0272 149.357 42.8737C149.018 43.7203 148.65 44.7362 148.509 45.1313C148.227 45.9496 147.662 47.4452 146.814 49.6463C146.475 50.4928 146.108 51.5087 145.967 51.9038C145.825 52.2989 145.458 53.3147 145.119 54.1613C144.78 55.0079 144.413 56.0237 144.272 56.4188C144.13 56.8139 143.763 57.8298 143.424 58.6763C143.085 59.5229 142.69 60.6234 142.548 61.1314C142.322 61.865 141.56 62.5705 141.277 62.2883C141.249 62.2319 141.079 55.798 140.91 47.9531C140.74 40.1083 140.514 32.7432 140.43 31.558C140.232 29.1029 140.232 29.0747 142.492 26.7043C143.255 25.886 144.498 24.5315 145.26 23.6849C145.995 22.8384 147.972 20.6655 149.611 18.8877C151.249 17.1099 153.368 14.8242 154.3 13.8083C155.233 12.7924 157.097 10.7325 158.453 9.26508C159.809 7.76948 161.447 5.96347 162.097 5.258C163.368 3.81884 163.905 3.59309 163.679 4.55253Z" fill="white"/>
<path d="M201.902 1.30736C200.602 2.21036 200.235 2.88761 200.207 4.27034C200.207 5.37087 200.376 5.79416 201.082 6.6125C201.902 7.54373 202.071 7.60016 203.625 7.60016C205.066 7.60016 205.405 7.48729 206.196 6.78182C207.043 6.01991 207.128 5.79416 207.128 4.35499C207.128 2.8594 207.043 2.69008 206.083 1.78708C205.207 0.99695 204.783 0.827637 203.794 0.827637C203.116 0.827637 202.297 1.02517 201.902 1.30736ZM206.083 4.10103C206.167 5.14512 205.8 5.7095 205.207 5.45553C204.698 5.258 204.529 4.2139 205.009 4.2139C205.179 4.2139 205.292 3.95993 205.292 3.6213C205.292 2.7183 205.998 3.14158 206.083 4.10103ZM201.986 3.98815C202.184 4.63718 202.015 5.06047 201.591 5.06047C201.45 5.06047 201.337 4.6654 201.337 4.2139C201.337 3.22624 201.76 3.08515 201.986 3.98815ZM204.388 6.24566C204.303 6.44319 204.02 6.6125 203.738 6.6125C203.455 6.6125 203.173 6.44319 203.116 6.24566C203.032 6.04813 203.258 5.90703 203.738 5.90703C204.218 5.90703 204.444 6.04813 204.388 6.24566ZM41.1599 81.0257C38.1371 81.7593 37.7134 85.964 40.5101 87.2902C42.4028 88.1932 44.4933 87.5442 45.3973 85.7664C46.1601 84.299 46.1036 83.7911 45.1431 82.4648C44.1826 81.1667 42.7701 80.6306 41.1599 81.0257ZM40.8209 84.5248C40.7644 85.1456 40.6231 85.5971 40.4536 85.5407C40.0299 85.4278 39.8039 84.2708 40.0864 83.5371C40.4536 82.5213 40.9339 83.1985 40.8209 84.5248ZM42.5158 83.2549C42.4593 83.4243 42.2898 83.5371 42.1486 83.5371C42.0073 83.5371 41.8378 83.4243 41.7813 83.2549C41.7248 83.0856 41.8943 82.9445 42.1486 82.9445C42.4028 82.9445 42.5723 83.0856 42.5158 83.2549ZM44.5498 84.3555C44.5498 84.6095 44.3803 85.0327 44.1826 85.3149C43.8718 85.7382 43.7588 85.7664 43.4763 85.4278C43.2503 85.1174 43.2221 84.7505 43.4481 83.9322C43.7306 82.8881 43.7871 82.8599 44.1543 83.3678C44.3803 83.65 44.5498 84.1015 44.5498 84.3555ZM42.4593 86.2179C42.3181 86.5848 42.1768 86.613 41.9508 86.3872C41.7814 86.2179 41.7248 85.8793 41.8378 85.5971C41.9791 85.2303 42.1203 85.202 42.3463 85.4278C42.5158 85.5971 42.5723 85.9357 42.4593 86.2179ZM144.272 133.71C142.52 133.964 139.526 135.516 138.142 136.871C136.786 138.169 135.26 140.426 134.61 142.063C133.904 143.869 133.254 146.268 133.254 147.171C133.254 148.356 132.831 148.92 132.605 148.074C132.492 147.735 132.407 147.142 132.407 146.832C132.407 145.901 131.588 143.361 130.768 141.64C129.356 138.733 126.418 136.165 123.226 135.065C121.983 134.641 120.853 134.585 114.751 134.641L107.688 134.726L107.519 135.573C107.406 136.024 107.321 144.01 107.293 153.266L107.265 170.141L107.999 170.31C108.423 170.423 111.615 170.423 115.146 170.338C122.18 170.169 123.169 169.972 125.881 168.194C129.469 165.88 131.333 162.522 132.548 156.229C132.746 155.241 133.254 155.495 133.254 156.596C133.254 158.007 134.271 161.732 135.175 163.679C136.729 167.009 139.159 169.181 142.718 170.479C144.696 171.213 149.272 171.185 151.419 170.451C155.346 169.097 158.03 166.106 159.696 161.252C160.233 159.615 160.939 154.536 160.939 152.222C160.911 148.553 159.951 143.474 158.849 141.075C156.137 135.234 151.165 132.723 144.272 133.71ZM147.521 142.543C148.792 143.107 149.3 144.575 149.639 148.723C149.894 151.573 149.894 153.294 149.639 155.862C149.187 160.377 148.509 161.675 146.645 161.675C145.826 161.675 145.571 161.506 145.035 160.631C143.622 158.204 143.057 152.222 143.848 147.538C144.413 144.01 145.091 142.769 146.73 142.232C146.758 142.204 147.125 142.345 147.521 142.543ZM119.61 144.462C120.768 145.167 121.248 146.07 121.785 148.751C122.491 152.081 122.293 156.088 121.305 159.051C120.909 160.236 118.762 161.986 118.282 161.506C117.999 161.224 117.858 144.659 118.141 144.179C118.395 143.784 118.593 143.813 119.61 144.462ZM65.7372 134.246C62.4037 135.488 60.3698 137.52 59.4093 140.596C59.0138 141.866 58.6748 140.539 58.6748 137.661V134.585H48.5048V146.578C48.5048 156.878 48.4483 158.712 48.0528 159.672C47.4031 161.308 46.1601 161.619 44.9171 160.462C44.2956 159.897 44.2673 159.728 44.2673 154.649C44.2673 151.77 44.1826 146.07 44.0696 142.007L43.9001 134.585H23.0799V147.538C23.0799 159.869 23.0517 160.518 22.5432 161.139C22.0912 161.703 21.7522 161.816 20.7352 161.76C20.029 161.732 19.125 161.506 18.7295 161.252C17.317 160.321 17.1475 160.688 17.1475 165.005C17.1475 169.548 17.1192 169.52 19.9442 170.423C26.1027 172.37 32.0916 169.012 33.2216 162.945C33.5324 161.337 33.7301 161.111 33.9561 162.127C34.3516 163.876 35.0861 165.541 36.1031 166.896C37.4591 168.702 38.5891 169.435 41.4424 170.451C43.6176 171.213 48.7873 171.213 51.3016 170.423C54.5503 169.407 57.1493 166.839 57.8838 163.989C58.3075 162.24 58.7595 162.917 58.816 165.4C58.8443 166.529 58.9008 167.658 58.9008 167.912C58.9573 168.448 61.1043 169.661 63.3642 170.423C65.5395 171.185 69.2967 171.185 71.5567 170.451C73.9862 169.661 75.0597 169.04 76.4722 167.629C78.1672 165.936 78.9017 164.469 79.4949 161.591C79.9469 159.361 79.9469 159.164 79.4667 157.16C78.6474 153.774 77.6304 152.532 71.5567 147.199C70.0595 145.844 69.6922 145.393 69.6922 144.716C69.6922 143.587 70.8222 142.486 71.924 142.486C72.9974 142.486 75.6247 143.446 76.5569 144.179C77.4044 144.857 77.8564 144.885 78.2802 144.292C78.5909 143.869 80.1447 143.756 83.9584 143.897C84.3256 143.897 84.3821 145.619 84.4386 156.934L84.5234 170H94.6933L94.7781 157.16C94.8063 149.739 94.9476 144.236 95.1171 144.067C95.2583 143.926 96.3883 143.841 97.6313 143.869C99.6371 143.926 99.9196 143.869 100.202 143.361C100.372 142.994 100.485 141.273 100.428 138.761L100.343 134.726L89.5801 134.641C80.2577 134.585 78.7604 134.641 78.4497 135.008C78.0259 135.516 77.2349 135.544 76.4439 135.121C74.0144 133.823 68.1667 133.343 65.7372 134.246ZM59.5223 148.017C59.5223 149.259 61.4433 151.601 65.5112 155.269C68.308 157.809 68.9295 158.797 68.5057 160.038C67.856 161.873 65.4547 162.24 62.6862 160.885C60.3698 159.728 59.1268 159.023 58.9008 158.712C58.6465 158.374 58.59 147.735 58.8443 147.481C59.1268 147.227 59.5223 147.538 59.5223 148.017ZM167.013 134.952C166.928 135.121 166.9 143.107 166.928 152.645L167.013 170L172.183 170.084L177.324 170.141V157.104C177.324 149.908 177.437 143.897 177.55 143.7C177.691 143.474 177.917 143.446 178.172 143.615C178.398 143.784 179.782 143.897 181.194 143.897H183.822L183.878 156.934L183.963 170L188.878 170.084C191.59 170.113 193.907 170.056 194.048 169.915C194.189 169.774 194.302 163.904 194.274 156.765V143.897H196.647C200.009 143.897 199.952 143.982 199.868 138.874L199.783 134.726L183.454 134.67C170.742 134.613 167.098 134.67 167.013 134.952Z" fill="white"/>
<path d="M198.823 159.756C197.551 160.123 196.337 161.026 195.602 162.239C195.122 163.001 195.009 163.65 195.009 165.259C195.009 167.065 195.094 167.432 195.856 168.504C197.043 170.197 198.54 170.987 200.574 170.987C202.636 170.987 204.162 170.254 205.292 168.673C206.054 167.629 206.139 167.319 206.139 165.231C206.139 162.973 206.111 162.917 205.009 161.619C203.371 159.728 201.196 159.051 198.823 159.756Z" fill="white"/>
</svg>
