<svg width="85" height="150" viewBox="0 0 85 150" fill="none" xmlns="http://www.w3.org/2000/svg">
<path d="M0.5 109.5V100L42.5 120L85 100V109.5L42.5 130.5L0.5 109.5Z" fill="white"/>
<path d="M26.002 15C5.60197 20.6 9.50113 8.5 12.5015 0.5C0.000489235 10.5 -8 38 24.0018 25L82.5018 0C72.1685 2.66667 46.402 9.4 26.002 15Z" fill="white"/>
<path d="M82.9794 74.9823C82.839 77.9937 82.2706 80.667 81.2743 83.0023C80.2779 85.3377 78.8815 87.1711 77.0852 88.5027C75.3029 89.8342 73.1487 90.5 70.6227 90.5C67.9983 90.5 65.7389 89.6294 63.8444 87.8881C61.9498 86.1264 60.4903 83.6374 59.4658 80.4212C58.4554 77.205 57.9502 73.3947 57.9502 68.9903V66.0711C57.9502 61.6463 58.4765 57.8258 59.529 54.6096C60.5815 51.3933 62.0551 48.9044 63.9496 47.1426C65.8582 45.3809 68.1106 44.5 70.7069 44.5C73.261 44.5 75.4152 45.1863 77.1694 46.5588C78.9236 47.9313 80.2849 49.816 81.2532 52.2128C82.2215 54.5891 82.8039 57.3034 83.0004 60.3557H76.6431C76.5028 57.6926 75.9976 55.6543 75.1275 54.2408C74.2574 52.8273 72.7838 52.1206 70.7069 52.1206C69.2895 52.1206 68.1176 52.6225 67.1914 53.6263C66.2652 54.63 65.5705 56.1562 65.1074 58.2047C64.6443 60.2533 64.4127 62.8549 64.4127 66.0097V68.9903C64.4127 72.0631 64.6162 74.634 65.0232 76.7031C65.4442 78.7516 66.1108 80.2983 67.023 81.343C67.9352 82.3878 69.1351 82.9102 70.6227 82.9102C71.9418 82.9102 73.0224 82.6131 73.8644 82.019C74.7205 81.425 75.3661 80.5441 75.8011 79.3764C76.2502 78.1883 76.5238 76.7236 76.6221 74.9823H82.9794Z" fill="white"/>
<path d="M42.7512 45.1455C45.1089 45.1455 47.1297 45.6679 48.8138 46.7126C50.5119 47.7369 51.817 49.2528 52.7292 51.2604C53.6414 53.2475 54.0975 55.716 54.0975 58.6659C54.0975 61.0832 53.8168 63.1522 53.2555 64.873C52.7081 66.5732 51.9293 67.997 50.9188 69.1442C49.9225 70.2709 48.7436 71.1825 47.3823 71.879L45.3615 73.5076H35.573V66.0099H42.7512C43.8458 66.0099 44.758 65.7333 45.4878 65.1802C46.2316 64.6271 46.7859 63.8589 47.1508 62.8756C47.5297 61.8718 47.7192 60.7042 47.7192 59.3726C47.7192 57.3036 47.3122 55.675 46.4982 54.4869C45.6843 53.2782 44.4353 52.6739 42.7512 52.6739H37.7201V89.8857H31.3418V45.1455H42.7512ZM41.4461 69.9124H48.1823L55.2342 89.4555V89.8857H48.4138L41.4461 69.9124Z" fill="white"/>
<path d="M25.8058 89.8857H19.4486L7.21817 60.5096V89.8857H0.839844V45.1455H7.21817L19.4696 74.5523V45.1455H25.8058V89.8857Z" fill="white"/>
<path d="M75.222 145.617V144.322H76.7335C77.1223 144.322 77.4107 144.229 77.5986 144.043C77.7898 143.856 77.8854 143.587 77.8854 143.235C77.8854 142.838 77.7931 142.552 77.6084 142.378C77.4237 142.203 77.1321 142.116 76.7335 142.116H75.7226V149.476H74.2451V140.627H76.7335C77.5565 140.627 78.1997 140.826 78.663 141.223C79.1264 141.616 79.358 142.226 79.358 143.052C79.358 143.413 79.29 143.749 79.1539 144.061C79.0211 144.373 78.8137 144.626 78.5318 144.821C78.2499 145.011 77.8838 145.117 77.4334 145.137L77.0154 145.617H75.222ZM74.8089 149.476L75.397 147.993H76.9571C77.333 147.993 77.6084 147.886 77.7833 147.671C77.9583 147.452 78.0458 147.179 78.0458 146.851C78.0458 146.595 78.0101 146.377 77.9389 146.194C77.8708 146.008 77.7607 145.866 77.6084 145.769C77.4593 145.668 77.2617 145.617 77.0154 145.617H75.606V144.322H77.3799L77.7153 144.839C78.1462 144.827 78.4929 144.918 78.7554 145.112C79.0178 145.307 79.209 145.56 79.3289 145.872C79.452 146.184 79.5136 146.516 79.5136 146.869C79.5136 147.728 79.2916 148.378 78.8477 148.82C78.4071 149.257 77.7769 149.476 76.9571 149.476H74.8089Z" fill="white"/>
<path d="M72.7608 140.627V146.462C72.7608 147.146 72.6426 147.722 72.406 148.188C72.1728 148.653 71.852 149.006 71.4437 149.245C71.0355 149.48 70.5705 149.597 70.0489 149.597C69.5207 149.597 69.0509 149.48 68.6394 149.245C68.2311 149.006 67.9104 148.653 67.6771 148.188C67.4438 147.722 67.3271 147.146 67.3271 146.462V140.627H68.7998V146.462C68.7998 146.846 68.85 147.163 68.9505 147.41C69.0509 147.653 69.1935 147.831 69.3781 147.944C69.5661 148.058 69.7896 148.115 70.0489 148.115C70.3113 148.115 70.5349 148.058 70.7196 147.944C70.9042 147.831 71.0452 147.653 71.1424 147.41C71.2396 147.163 71.2882 146.846 71.2882 146.462V140.627H72.7608Z" fill="white"/>
<path d="M66.4104 149.476H62.8625V147.993H66.4104V149.476ZM63.3193 149.476H61.8467V140.627H63.3193V149.476Z" fill="white"/>
<path d="M60.5961 146.529C60.5637 147.124 60.4325 147.653 60.2025 148.115C59.9724 148.577 59.65 148.939 59.2353 149.203C58.8238 149.466 58.3264 149.598 57.7432 149.598C57.1373 149.598 56.6157 149.425 56.1782 149.081C55.7408 148.733 55.4038 148.24 55.1673 147.604C54.934 146.968 54.8174 146.215 54.8174 145.344V144.766C54.8174 143.891 54.9389 143.136 55.1819 142.499C55.4249 141.863 55.7651 141.371 56.2025 141.023C56.6432 140.674 57.1632 140.5 57.7627 140.5C58.3524 140.5 58.8497 140.636 59.2547 140.907C59.6598 141.179 59.974 141.551 60.1976 142.025C60.4212 142.495 60.5556 143.032 60.601 143.636H59.1332C59.1008 143.109 58.9842 142.706 58.7833 142.426C58.5824 142.147 58.2422 142.007 57.7627 142.007C57.4354 142.007 57.1649 142.106 56.951 142.305C56.7372 142.503 56.5768 142.805 56.4698 143.21C56.3629 143.616 56.3095 144.13 56.3095 144.754V145.344C56.3095 145.951 56.3564 146.46 56.4504 146.869C56.5476 147.274 56.7015 147.58 56.9121 147.787C57.1227 147.993 57.3998 148.097 57.7432 148.097C58.0478 148.097 58.2973 148.038 58.4917 147.92C58.6893 147.803 58.8384 147.629 58.9388 147.398C59.0425 147.163 59.1057 146.873 59.1284 146.529H60.5961Z" fill="white"/>
<path d="M47.8999 149.476H46.4321L43.6084 143.666V149.476H42.1357V140.627H43.6084L46.437 146.443V140.627H47.8999V149.476Z" fill="white"/>
<path d="M40.6505 140.627V146.462C40.6505 147.146 40.5322 147.722 40.2957 148.188C40.0624 148.653 39.7416 149.006 39.3334 149.245C38.9251 149.48 38.4602 149.597 37.9385 149.597C37.4104 149.597 36.9405 149.48 36.529 149.245C36.1208 149.006 35.8 148.653 35.5667 148.188C35.3334 147.722 35.2168 147.146 35.2168 146.462V140.627H36.6894V146.462C36.6894 146.846 36.7397 147.163 36.8401 147.41C36.9405 147.653 37.0831 147.831 37.2678 147.944C37.4557 148.058 37.6793 148.115 37.9385 148.115C38.201 148.115 38.4245 148.058 38.6092 147.944C38.7939 147.831 38.9348 147.653 39.032 147.41C39.1292 147.163 39.1779 146.846 39.1779 146.462V140.627H40.6505Z" fill="white"/>
<path d="M31.269 140.627C31.8133 140.627 32.2799 140.731 32.6687 140.937C33.0608 141.14 33.3621 141.44 33.5727 141.837C33.7833 142.23 33.8886 142.718 33.8886 143.301C33.8886 143.78 33.8238 144.189 33.6942 144.529C33.5679 144.865 33.388 145.147 33.1547 145.374C32.9247 145.597 32.6525 145.777 32.3382 145.915L31.8717 146.237H29.6117V144.754H31.269C31.5217 144.754 31.7323 144.699 31.9008 144.59C32.0725 144.48 32.2005 144.328 32.2848 144.134C32.3723 143.935 32.416 143.705 32.416 143.441C32.416 143.032 32.322 142.71 32.1341 142.475C31.9462 142.236 31.6578 142.116 31.269 142.116H30.1074V149.476H28.6348V140.627H31.269ZM30.9677 145.526H32.5229L34.1511 149.391V149.476H32.5764L30.9677 145.526Z" fill="white"/>
<path d="M21.931 149.476H18.1935V147.993H21.931V149.476ZM18.6552 149.476H17.1777V140.627H18.6552V149.476ZM21.4401 145.647H18.1935V144.207H21.4401V145.647ZM21.9164 142.116H18.1935V140.627H21.9164V142.116Z" fill="white"/>
<path d="M12.0283 149.476H10.5508V140.627H12.0283V149.476ZM13.4572 145.021L11.8242 147.221L11.5568 145.422L12.6601 143.526L14.4535 140.627H16.2566L13.4572 145.021ZM12.5192 145.422L13.5981 144.249L16.3295 149.476H14.5847L12.5192 145.422Z" fill="white"/>
<path d="M8.90137 149.476H7.43359V140.627H8.90137V149.476Z" fill="white"/>
<path d="M5.76418 149.476H4.29641L1.47264 143.666V149.476H0V140.627H1.47264L4.30127 146.443V140.627H5.76418V149.476Z" fill="white"/>
</svg>
