<svg width="90" height="140" viewBox="0 0 90 140" fill="none" xmlns="http://www.w3.org/2000/svg">
<path d="M29.4649 15C9.06487 20.6 12.964 8.5 15.9644 0.5C3.46338 10.5 -4.53711 38 27.4646 25L85.9647 0C75.6314 2.66667 49.8649 9.4 29.4649 15Z" fill="white"/>
<path d="M85.1395 74.9823C84.9992 77.9937 84.4308 80.667 83.4344 83.0023C82.438 85.3377 81.0417 87.1711 79.2453 88.5027C77.4631 89.8342 75.3089 90.5 72.7828 90.5C70.1585 90.5 67.8991 89.6294 66.0045 87.8881C64.11 86.1264 62.6505 83.6374 61.626 80.4212C60.6156 77.205 60.1104 73.3947 60.1104 68.9903V66.0711C60.1104 61.6463 60.6366 57.8258 61.6891 54.6096C62.7417 51.3933 64.2152 48.9044 66.1098 47.1426C68.0184 45.3809 70.2708 44.5 72.867 44.5C75.4212 44.5 77.5753 45.1863 79.3295 46.5588C81.0838 47.9313 82.445 49.816 83.4134 52.2128C84.3817 54.5891 84.9641 57.3034 85.1606 60.3557H78.8033C78.6629 57.6926 78.1577 55.6543 77.2876 54.2408C76.4175 52.8273 74.944 52.1206 72.867 52.1206C71.4496 52.1206 70.2778 52.6225 69.3516 53.6263C68.4253 54.63 67.7307 56.1562 67.2676 58.2047C66.8044 60.2533 66.5729 62.8549 66.5729 66.0097V68.9903C66.5729 72.0631 66.7764 74.634 67.1833 76.7031C67.6044 78.7516 68.271 80.2983 69.1832 81.343C70.0953 82.3878 71.2952 82.9102 72.7828 82.9102C74.102 82.9102 75.1826 82.6131 76.0246 82.019C76.8807 81.425 77.5262 80.5441 77.9613 79.3764C78.4103 78.1883 78.684 76.7236 78.7822 74.9823H85.1395Z" fill="white"/>
<path d="M27.966 89.8857H21.6087L9.37833 60.5096V89.8857H3V45.1455H9.37833L21.6298 74.5523V45.1455H27.966V89.8857Z" fill="white"/>
<path d="M85.3125 135.617V134.322H86.8311C87.2217 134.322 87.5114 134.229 87.7002 134.043C87.8923 133.856 87.9883 133.587 87.9883 133.235C87.9883 132.838 87.8955 132.552 87.71 132.378C87.5244 132.203 87.2314 132.116 86.8311 132.116H85.8154V139.476H84.3311V130.627H86.8311C87.6579 130.627 88.304 130.826 88.7695 131.223C89.235 131.616 89.4678 132.226 89.4678 133.052C89.4678 133.413 89.3994 133.749 89.2627 134.061C89.1292 134.373 88.9209 134.626 88.6377 134.821C88.3545 135.011 87.9867 135.117 87.5342 135.137L87.1143 135.617H85.3125ZM84.8975 139.476L85.4883 137.993H87.0557C87.4333 137.993 87.71 137.886 87.8857 137.671C88.0615 137.452 88.1494 137.179 88.1494 136.851C88.1494 136.595 88.1136 136.377 88.042 136.194C87.9736 136.008 87.863 135.866 87.71 135.769C87.5602 135.668 87.3617 135.617 87.1143 135.617H85.6982V134.322H87.4805L87.8174 134.839C88.2503 134.827 88.5986 134.918 88.8623 135.112C89.126 135.307 89.318 135.56 89.4385 135.872C89.5622 136.184 89.624 136.516 89.624 136.869C89.624 137.728 89.401 138.378 88.9551 138.82C88.5124 139.257 87.8792 139.476 87.0557 139.476H84.8975Z" fill="white"/>
<path d="M82.8398 130.627V136.462C82.8398 137.146 82.721 137.722 82.4834 138.188C82.249 138.653 81.9268 139.006 81.5166 139.245C81.1064 139.48 80.6393 139.597 80.1152 139.597C79.5846 139.597 79.1126 139.48 78.6992 139.245C78.2891 139.006 77.9668 138.653 77.7324 138.188C77.498 137.722 77.3809 137.146 77.3809 136.462V130.627H78.8604V136.462C78.8604 136.847 78.9108 137.163 79.0117 137.41C79.1126 137.653 79.2559 137.831 79.4414 137.944C79.6302 138.058 79.8548 138.115 80.1152 138.115C80.3789 138.115 80.6035 138.058 80.7891 137.944C80.9746 137.831 81.1162 137.653 81.2139 137.41C81.3115 137.163 81.3604 136.847 81.3604 136.462V130.627H82.8398Z" fill="white"/>
<path d="M76.4609 139.476H72.8965V137.993H76.4609V139.476ZM73.3555 139.476H71.876V130.627H73.3555V139.476Z" fill="white"/>
<path d="M70.6191 136.529C70.5866 137.124 70.4548 137.653 70.2236 138.115C69.9925 138.577 69.6686 138.939 69.252 139.203C68.8385 139.466 68.3389 139.598 67.7529 139.598C67.1442 139.598 66.6201 139.425 66.1807 139.081C65.7412 138.733 65.4027 138.24 65.165 137.604C64.9307 136.968 64.8135 136.215 64.8135 135.344V134.766C64.8135 133.891 64.9355 133.136 65.1797 132.499C65.4238 131.863 65.7656 131.371 66.2051 131.023C66.6478 130.674 67.1702 130.5 67.7725 130.5C68.3649 130.5 68.8646 130.636 69.2715 130.907C69.6784 131.179 69.9941 131.551 70.2188 132.025C70.4434 132.495 70.5785 133.032 70.624 133.636H69.1494C69.1169 133.109 68.9997 132.706 68.7979 132.426C68.596 132.147 68.2542 132.007 67.7725 132.007C67.4437 132.007 67.1719 132.106 66.957 132.305C66.7422 132.503 66.5811 132.805 66.4736 133.21C66.3662 133.616 66.3125 134.13 66.3125 134.754V135.344C66.3125 135.951 66.3597 136.46 66.4541 136.869C66.5518 137.274 66.7064 137.58 66.918 137.787C67.1296 137.993 67.4079 138.097 67.7529 138.097C68.0589 138.097 68.3096 138.038 68.5049 137.92C68.7035 137.803 68.8532 137.629 68.9541 137.398C69.0583 137.163 69.1217 136.873 69.1445 136.529H70.6191Z" fill="white"/>
<path d="M57.8633 139.476H56.3887L53.5518 133.666V139.476H52.0723V130.627H53.5518L56.3936 136.443V130.627H57.8633V139.476Z" fill="white"/>
<path d="M50.415 139.476H48.9404V130.627H50.415V139.476Z" fill="white"/>
<path d="M42.7715 139.476H41.1992L43.8506 130.627H44.8369L44.71 132.22L42.7715 139.476ZM44.3584 132.22L44.2168 130.627H45.2129L47.874 139.476H46.3066L44.3584 132.22ZM46.248 137.659H42.459V136.176H46.248V137.659Z" fill="white"/>
<path d="M37.7197 130.627C38.2666 130.627 38.7354 130.731 39.126 130.937C39.5199 131.14 39.8226 131.44 40.0342 131.837C40.2458 132.23 40.3516 132.718 40.3516 133.301C40.3516 133.78 40.2865 134.189 40.1562 134.529C40.0293 134.865 39.8486 135.147 39.6143 135.374C39.3831 135.597 39.1097 135.777 38.7939 135.915L38.3252 136.237H36.0547V134.754H37.7197C37.9736 134.754 38.1852 134.699 38.3545 134.59C38.527 134.48 38.6556 134.328 38.7402 134.134C38.8281 133.935 38.8721 133.705 38.8721 133.441C38.8721 133.032 38.7777 132.71 38.5889 132.475C38.4001 132.236 38.1104 132.116 37.7197 132.116H36.5527V139.476H35.0732V130.627H37.7197ZM37.417 135.526H38.9795L40.6152 139.391V139.476H39.0332L37.417 135.526Z" fill="white"/>
<path d="M31.7656 139.476H30.291V130.627H31.7656V139.476ZM33.9385 132.116H28.1475V130.627H33.9385V132.116Z" fill="white"/>
<path d="M22.0332 139.476H18.2783V137.993H22.0332V139.476ZM18.7422 139.476H17.2578V130.627H18.7422V139.476ZM21.54 135.647H18.2783V134.207H21.54V135.647ZM22.0186 132.116H18.2783V130.627H22.0186V132.116Z" fill="white"/>
<path d="M12.084 139.476H10.5996V130.627H12.084V139.476ZM13.5195 135.021L11.8789 137.221L11.6104 135.422L12.7188 133.526L14.5205 130.627H16.332L13.5195 135.021ZM12.5771 135.422L13.6611 134.249L16.4053 139.476H14.6523L12.5771 135.422Z" fill="white"/>
<path d="M8.94238 139.476H7.46777V130.627H8.94238V139.476Z" fill="white"/>
<path d="M5.79102 139.476H4.31641L1.47949 133.666V139.476H0V130.627H1.47949L4.32129 136.443V130.627H5.79102V139.476Z" fill="white"/>
<path d="M49.4941 89.5H42.3642V45.5H49.4941V89.5ZM60 52.9038H32V45.5H60V52.9038Z" fill="white"/>
<path d="M1 112.5H88.5" stroke="white" stroke-width="8"/>
</svg>
