<svg width="401" height="76" viewBox="0 0 401 76" fill="none" xmlns="http://www.w3.org/2000/svg">
<path fill-rule="evenodd" clip-rule="evenodd" d="M78.159 35.7982H75.6928C74.6622 35.7703 73.6363 35.9489 72.6755 36.3232C71.7148 36.6975 70.8384 37.2601 70.0979 37.978C69.3575 38.6959 68.7679 39.5545 68.3637 40.5036C67.9595 41.4526 67.7488 42.4729 67.7442 43.5045C67.7442 47.0919 68.8445 51.2108 73.4353 51.2108C77.5519 51.2108 78.3676 47.9081 78.3676 44.6054V36.3486C78.3676 36.3486 78.6332 35.7982 78.1021 35.7982H78.159ZM203.137 76H194.505C188.302 75.2597 182.933 72.8871 182.933 67.1928C182.933 63.0549 187.6 60.0369 191.432 59.4865C191.432 59.4865 192.532 59.2018 191.432 59.2018C187.705 58.6778 183.931 58.5823 180.183 58.9171C180.01 58.9067 179.843 58.8501 179.7 58.7533C179.556 58.6565 179.441 58.523 179.367 58.3666C179.101 57.8162 177.716 53.963 177.47 53.6783C177.431 53.6064 177.407 53.5273 177.399 53.4458C177.391 53.3643 177.4 53.2821 177.425 53.2041C177.449 53.1261 177.49 53.0539 177.543 52.9919C177.597 52.9299 177.662 52.8792 177.735 52.8431C182.108 51.9093 186.346 50.4298 190.351 48.4395C191.717 48.1548 190.351 47.8891 190.351 47.8891C182.763 46.5035 174.985 41.2837 174.985 32.1918C174.985 19.2467 185.684 13.4575 195.852 13.4575C199.165 13.5605 202.463 13.9287 205.717 14.5585C205.717 14.5585 205.982 14.8431 206.267 14.2737C206.429 13.2351 206.703 12.2169 207.083 11.2368C208.183 7.93409 209.833 6.54847 214.671 6.54847C215.685 6.49327 216.702 6.58921 217.687 6.83318C217.687 6.83318 218.237 6.54848 218.237 7.38364C217.478 9.73333 216.845 12.122 216.34 14.5395C216.075 15.3746 215.79 14.8242 215.79 14.8242C214.975 14.2737 214.69 13.989 212.774 14.2737C211.674 14.2737 211.123 15.1089 211.123 16.1718C211.123 18.0699 219.907 20.8601 219.907 31.3566C219.907 45.4026 207.026 48.4396 195.776 51.1918C195.776 51.1918 194.676 51.4765 195.776 51.4765C203.175 52.3117 218.541 54.2287 218.541 63.8711C218.541 71.995 209.53 75.1269 203.099 75.981L203.137 76ZM95.7067 53.6214H97.9073C97.9803 53.6187 98.053 53.6311 98.1209 53.6579C98.1889 53.6846 98.2506 53.725 98.3022 53.7767C98.3538 53.8283 98.3943 53.8901 98.421 53.9581C98.4477 54.0261 98.4601 54.0988 98.4575 54.1718V58.5754C98.4575 59.4105 97.6417 59.1258 97.6417 59.1258H80.075C80.075 59.1258 79.8094 59.1258 79.8094 58.5754C79.4448 57.5903 79.1717 56.5737 78.9937 55.5385C78.7281 54.4376 78.178 55.5385 78.178 55.5385C74.6531 58.5686 70.2063 60.3148 65.5625 60.4925C57.3293 60.4925 51.0311 55.2537 51.0311 46.7122C51.0311 36.2537 57.6139 30.4645 65.8471 30.4645L78.4625 29.9141V28.016C78.4625 24.4286 76.5655 22.7772 72.4299 22.7772C70.4554 22.6613 68.4843 23.0563 66.7067 23.924C64.929 24.7917 63.4047 26.1029 62.2806 27.7312C62.2806 27.7312 62.2806 28.016 61.7305 28.016C61.1803 28.016 56.7981 26.1179 56.7981 26.1179C56.7981 26.1179 56.248 26.1179 56.5326 25.5674C56.8171 25.017 62.2237 11.7872 62.2237 11.7872C62.2237 11.7872 62.2237 11.2368 62.4893 11.5025C64.0951 12.0914 65.7442 12.5547 67.4216 12.8881C67.4951 12.9242 67.5605 12.9748 67.6139 13.0368C67.6672 13.0988 67.7076 13.1711 67.7324 13.2491C67.7572 13.3271 67.7659 13.4093 67.7582 13.4908C67.7504 13.5723 67.7263 13.6514 67.6873 13.7233L67.1371 14.8242C66.8715 15.9251 67.4027 15.3746 67.4027 15.3746C70.8197 14.0802 74.4485 13.4364 78.1021 13.4765C88.5169 13.4765 95.3842 17.8801 95.3842 28.6613V52.8621C95.3842 52.8621 95.3842 53.6973 95.6498 53.6973L95.7067 53.6214ZM96.7691 16.7982C100.279 15.9151 103.55 14.2659 106.348 11.9687C109.145 9.67159 111.4 6.78346 112.951 3.5115C112.951 3.5115 112.951 3.2268 113.501 3.2268C114.051 3.2268 117.618 4.06196 118.168 4.06196C118.718 4.06196 118.433 4.61237 118.433 4.61237C118.125 6.80199 117.942 9.00735 117.883 11.2178V14.5205C117.883 15.0709 118.433 14.8052 118.433 14.8052H125.832C126.382 14.8052 126.098 15.3556 126.098 15.3556C126.098 15.3556 124.997 20.8601 124.997 21.4106C124.997 21.961 124.447 21.961 124.447 21.961H118.414C117.864 21.961 117.864 22.2458 117.864 22.2458V47.9271C117.843 48.422 117.928 48.9158 118.114 49.3749C118.3 49.834 118.582 50.2477 118.942 50.588C119.302 50.9282 119.731 51.1871 120.2 51.3469C120.668 51.5068 121.166 51.564 121.658 51.5145C122.611 51.6292 123.574 51.4363 124.409 50.964C124.409 50.964 124.959 50.4136 124.959 50.964C124.959 51.5145 126.61 55.1019 126.856 55.6523C127.103 56.2028 126.591 56.2028 126.591 56.2028C120.9 60.3406 120.274 60.6064 112.609 60.6064C104.111 60.6064 101.094 56.4685 101.094 48.7622V22.3027C101.094 22.3027 101.094 22.018 100.544 22.018H96.7501C96.7501 22.018 96.4845 22.018 96.4845 21.4675V17.3297C96.5113 17.1223 96.6045 16.9292 96.7501 16.7792L96.7691 16.7982ZM221.842 36.8991C221.842 22.5684 233.091 13.4955 247.888 13.4955C262.685 13.4955 274.22 22.5874 274.22 36.8991C274.22 51.7802 262.704 60.5874 247.888 60.5874C233.072 60.5874 221.842 51.7802 221.842 36.8991ZM238.915 30.5594C238.915 37.1648 241.666 53.6973 250.981 53.6973C255.913 53.6973 257.298 48.4586 257.298 43.5045C257.298 36.8991 254.547 20.3666 244.948 20.3666C238.915 20.3666 238.915 27.2567 238.915 30.5594ZM326.313 59.2018H303.339C303.303 59.2019 303.267 59.1944 303.233 59.1799C303.2 59.1654 303.169 59.1441 303.144 59.1174C303.12 59.0907 303.1 59.0591 303.088 59.0246C303.076 58.9901 303.071 58.9535 303.074 58.9171V54.2288C303.063 54.1575 303.067 54.0847 303.085 54.015C303.104 53.9452 303.136 53.88 303.181 53.8232C303.225 53.7664 303.28 53.7191 303.344 53.6844C303.407 53.6498 303.476 53.6283 303.548 53.6214H306.299C306.369 53.6214 306.437 53.5933 306.486 53.5435C306.536 53.4937 306.564 53.4261 306.564 53.3556V28.3007C306.564 25.5485 304.098 24.5045 301.632 24.5045C298.832 24.6084 296.181 25.7919 294.233 27.8072C294.088 27.9571 293.995 28.1503 293.968 28.3576V53.4126C293.968 53.4831 293.996 53.5506 294.046 53.6005C294.095 53.6503 294.163 53.6783 294.233 53.6783H297.25C297.25 53.6783 297.515 53.6783 297.515 54.2288V58.9171C297.518 58.9535 297.513 58.9901 297.501 59.0246C297.489 59.0591 297.47 59.0907 297.445 59.1174C297.42 59.1441 297.389 59.1654 297.356 59.1799C297.322 59.1944 297.286 59.2019 297.25 59.2018H274.257C274.257 59.2018 273.992 59.4865 273.992 58.6513V54.2477C273.992 53.6973 274.257 53.6973 274.257 53.6973H276.724C277.274 53.6973 276.989 53.4315 276.989 53.4315V23.954C276.989 23.954 277.255 23.4036 276.724 23.4036L274.257 24.2387C274.257 24.2387 273.992 24.5045 273.992 23.954V19.2657C273.992 18.7153 274.257 18.981 274.257 18.981L293.74 13.7612C293.74 13.7612 294.29 13.4955 294.29 14.0459V20.3856C294.29 21.2208 294.556 20.6704 294.556 20.6704C299.223 17.0829 303.889 13.5145 310.188 13.5145C321.987 13.5145 323.619 21.5055 323.619 26.4595V53.4505C323.619 53.4505 323.353 53.7162 323.884 53.7162H326.313C326.313 53.7162 326.578 53.7163 326.578 54.2667V58.6703C326.578 59.5055 326.313 59.2208 326.313 59.2208V59.2018ZM349.684 13.7612L330.221 19C330.221 19 329.955 19 329.955 19.5504V23.954C329.955 24.5045 330.505 24.2387 330.505 24.2387C330.505 24.2387 331.871 23.9541 332.971 23.6883C333.521 23.6883 333.237 24.2388 333.237 24.5235V53.4505C333.237 53.4505 333.502 53.7162 332.971 53.7162H330.221C330.148 53.7136 330.075 53.726 330.007 53.7527C329.939 53.7795 329.877 53.82 329.826 53.8716C329.774 53.9233 329.734 53.985 329.707 54.053C329.68 54.121 329.668 54.1937 329.67 54.2667V58.955C329.67 59.5055 330.221 59.2397 330.221 59.2397H352.985C353.535 59.2397 353.251 58.6893 353.251 58.6893V54.2857C353.253 54.2127 353.241 54.14 353.214 54.072C353.188 54.004 353.147 53.9422 353.096 53.8905C353.044 53.8389 352.982 53.7985 352.914 53.7717C352.846 53.745 352.774 53.7326 352.701 53.7352H350.5C349.95 53.7352 350.234 53.4695 350.234 53.4695V14.0459C350.234 13.4955 349.684 13.7612 349.684 13.7612ZM342.836 0C346.63 0 351.069 1.1009 351.069 5.6943C351.069 11.1988 343.671 13.4006 339.004 13.4006C335.21 13.4006 332.687 11.5025 332.687 7.70629C332.687 3.30269 338.719 0 342.836 0ZM154.421 35.7982H152.22C151.184 35.7487 150.149 35.9124 149.178 36.2789C148.208 36.6455 147.323 37.2072 146.578 37.9294C145.833 38.6516 145.244 39.519 144.847 40.4778C144.451 41.4367 144.255 42.4668 144.271 43.5045C144.271 47.0919 145.372 51.2108 149.754 51.2108C154.136 51.2108 154.971 47.9081 154.971 44.6054V36.3486C154.973 36.2756 154.961 36.2029 154.934 36.1349C154.908 36.0669 154.867 36.0052 154.815 35.9535C154.764 35.9019 154.702 35.8614 154.634 35.8347C154.566 35.8079 154.494 35.7955 154.421 35.7982ZM172.253 53.6973H174.15C174.966 53.6973 174.966 54.2477 174.966 54.2477V58.6513C174.966 59.4865 174.15 59.2018 174.15 59.2018H156.602C156.602 59.2018 156.337 59.2018 156.052 58.6513C155.759 57.6619 155.575 56.6436 155.502 55.6143C155.236 54.5135 154.686 55.6143 154.686 55.6143C150.892 58.3666 147.098 60.5684 142.071 60.5684C133.572 60.5684 127.255 55.3296 127.255 46.7882C127.255 36.3297 134.103 30.2557 142.431 30.2557L154.781 29.971C154.781 29.971 155.047 29.971 155.047 29.4206V28.0349C155.047 24.4475 153.15 22.7962 149.014 22.7962C147.039 22.6803 145.068 23.0753 143.291 23.943C141.513 24.8107 139.989 26.1219 138.865 27.7502C138.829 27.7876 138.787 27.8173 138.739 27.8376C138.692 27.8579 138.641 27.8684 138.59 27.8684C138.538 27.8684 138.487 27.8579 138.44 27.8376C138.393 27.8173 138.35 27.7876 138.315 27.7502C137.764 27.7502 133.098 26.0989 133.098 26.0989C133.098 26.0989 132.832 26.0989 133.098 25.5484C133.363 24.998 138.504 11.8631 138.504 11.8631C138.504 11.8631 138.504 11.3127 139.054 11.5784C140.57 12.1665 142.131 12.6298 143.721 12.964C143.795 13.0001 143.86 13.0507 143.913 13.1128C143.967 13.1748 144.007 13.247 144.032 13.325C144.057 13.403 144.065 13.4852 144.058 13.5667C144.05 13.6482 144.026 13.7273 143.987 13.7992C143.975 14.1806 143.885 14.5555 143.721 14.9001C143.171 16.001 143.987 15.4506 143.987 15.4506C147.404 14.1561 151.033 13.5124 154.686 13.5525C165.101 13.5525 171.968 17.9561 171.968 28.7373V52.8621C171.968 52.8621 171.703 53.6973 172.234 53.6973H172.253ZM190.351 25.3207C190.351 30.2747 193.102 43.7702 199.95 43.7702C203.516 43.7702 204.882 42.1189 204.882 37.7153C204.882 32.7612 201.866 19.2657 195.018 19.2657C191.736 19.2657 190.351 20.9171 190.351 25.3207ZM197.484 61.3846C196.533 63.1282 196.061 65.0933 196.118 67.0789C196.118 69.2807 197.218 71.7672 199.912 71.7672C200.373 71.8368 200.845 71.8015 201.291 71.6642C201.737 71.5268 202.146 71.2908 202.489 70.9736C202.831 70.6565 203.098 70.2663 203.269 69.8319C203.441 69.3976 203.512 68.9303 203.478 68.4645C203.478 64.3267 201.012 62.96 197.996 61.0239C197.783 61.0466 197.587 61.1482 197.446 61.3087L197.484 61.3846ZM380.417 35.7792H378.216C377.18 35.7298 376.145 35.8934 375.174 36.2599C374.204 36.6265 373.319 37.1882 372.574 37.9104C371.829 38.6326 371.24 39.5 370.843 40.4588C370.447 41.4177 370.251 42.4478 370.267 43.4855C370.267 47.0729 371.368 51.1918 375.75 51.1918C380.132 51.1918 380.967 47.8891 380.967 44.5864V36.3486C380.969 36.2756 380.957 36.2029 380.93 36.1349C380.904 36.0669 380.863 36.0052 380.812 35.9535C380.76 35.9019 380.698 35.8614 380.63 35.8347C380.562 35.8079 380.49 35.7955 380.417 35.7982V35.7792ZM398.249 53.6783H400.449C400.522 53.6756 400.595 53.6881 400.663 53.7148C400.731 53.7415 400.793 53.782 400.844 53.8336C400.896 53.8853 400.936 53.947 400.963 54.015C400.99 54.083 401.002 54.1558 401 54.2288V58.6324C401 59.4675 400.184 59.1828 400.184 59.1828H382.636C382.636 59.1828 382.371 59.1828 382.086 58.6324C381.793 57.6429 381.609 56.6246 381.536 55.5954C381.27 54.4945 380.72 55.5954 380.72 55.5954C376.926 58.3477 373.132 60.5494 368.105 60.5494C359.606 60.5494 353.289 55.3107 353.289 46.7692C353.289 36.3107 360.137 30.2367 368.465 30.2367L380.815 29.952C380.815 29.952 381.081 29.952 381.081 29.4016V28.016C381.081 24.4286 379.184 22.7772 375.048 22.7772C373.073 22.6613 371.102 23.0563 369.325 23.924C367.547 24.7917 366.023 26.1029 364.899 27.7312C364.863 27.7686 364.821 27.7983 364.773 27.8186C364.726 27.839 364.675 27.8494 364.624 27.8494C364.572 27.8494 364.521 27.839 364.474 27.8186C364.427 27.7983 364.384 27.7686 364.349 27.7312C362.678 27.264 361.032 26.7129 359.416 26.0799C359.416 26.0799 358.866 26.0799 359.151 25.5295C359.435 24.979 364.633 11.7493 364.633 11.7493C364.633 11.7493 364.633 11.1988 365.183 11.4645C366.699 12.0527 368.259 12.516 369.85 12.8501C370.008 12.9277 370.142 13.046 370.239 13.1928C370.335 13.3396 370.391 13.5097 370.4 13.6853L369.85 14.7862C369.3 15.8871 370.116 15.3366 370.116 15.3366C373.533 14.0422 377.161 13.3984 380.815 13.4385C391.23 13.4385 398.097 17.8421 398.097 28.6233V52.8621C398.097 52.8621 398.097 53.6973 398.363 53.6973L398.249 53.6783ZM20.2988 24.2198V46.5225C20.2988 50.3187 21.6647 53.6783 25.99 53.6783C31.4725 53.6783 33.9386 50.3756 33.9386 40.1828C33.9386 23.9351 25.7054 23.0999 22.9737 23.0999L20.7731 23.3846C20.6177 23.4652 20.4856 23.5843 20.3893 23.7305C20.293 23.8767 20.2357 24.0452 20.2229 24.2198H20.2988ZM20.5644 17.6144C24.681 15.1279 27.6973 13.4765 31.8139 13.4765C42.5133 13.4765 51.0121 22.2837 51.0121 35.2288C51.0121 48.1738 43.0635 60.5684 29.3478 60.5684C26.3309 60.717 23.3216 60.1512 20.5644 58.9171C20.5279 58.917 20.4917 58.9244 20.4582 58.9389C20.4247 58.9534 20.3945 58.9748 20.3696 59.0015C20.3446 59.0282 20.3255 59.0598 20.3133 59.0943C20.3012 59.1287 20.2962 59.1653 20.2988 59.2018V67.1928C20.2962 67.2658 20.3086 67.3385 20.3353 67.4065C20.362 67.4745 20.4024 67.5363 20.454 67.5879C20.5057 67.6396 20.5674 67.68 20.6353 67.7067C20.7033 67.7335 20.776 67.7459 20.849 67.7432H25.7813C25.8543 67.7406 25.927 67.753 25.9949 67.7797C26.0629 67.8065 26.1246 67.8469 26.1762 67.8985C26.2279 67.9502 26.2683 68.012 26.295 68.08C26.3217 68.1479 26.3341 68.2207 26.3314 68.2937V72.6973C26.3314 72.982 25.7813 73.2477 25.7813 73.2477H0.816071C0.816071 73.2477 0.000352039 73.2477 0.000352039 72.6973V68.2937C-0.00230373 68.2207 0.0100884 68.1479 0.036796 68.08C0.0635036 68.012 0.10394 67.9502 0.155565 67.8985C0.207189 67.8469 0.26891 67.8065 0.336858 67.7797C0.404806 67.753 0.477525 67.7406 0.550485 67.7432H2.75107C2.82404 67.7459 2.89675 67.7335 2.9647 67.7067C3.03265 67.68 3.09437 67.6396 3.146 67.5879C3.19762 67.5363 3.23806 67.4745 3.26476 67.4065C3.29147 67.3385 3.30386 67.2658 3.30121 67.1928V23.954C3.30121 23.4036 2.75107 23.6693 2.75107 23.6693L0.550485 24.2198C0.477525 24.2225 0.404806 24.21 0.336858 24.1833C0.26891 24.1566 0.207189 24.1161 0.155565 24.0644C0.10394 24.0128 0.0635036 23.9511 0.036796 23.8831C0.0100884 23.8151 -0.00230373 23.7423 0.000352039 23.6693V19.2847C-0.00230373 19.2117 0.0100884 19.139 0.036796 19.071C0.0635036 19.003 0.10394 18.9412 0.155565 18.8895C0.207189 18.8379 0.26891 18.7975 0.336858 18.7707C0.404806 18.744 0.477525 18.7316 0.550485 18.7343L19.7487 13.7612C19.7487 13.7612 20.2988 13.4955 20.2988 14.0459V17.3487C20.2988 17.8991 20.5644 17.6334 20.5644 17.6334V17.6144Z" fill="white"/>
</svg>
