<svg width="179" height="181" viewBox="0 0 179 181" fill="none" xmlns="http://www.w3.org/2000/svg">
<path d="M65.3799 25.1098L93.3244 13.3911L123.973 25.1098L148.312 22.4055L156.425 35.927L151.016 82.8016V135.085L132.987 148.606L93.3244 174.748L33.8297 135.085L29.3225 100.83L25.7168 35.927L36.534 19.7012L65.3799 25.1098Z" fill="#EAE6DB"/>
<path d="M90.3908 11.5518C95.9237 18.2476 110.753 28.7847 145.684 20.7497C147.27 26.8817 148.645 29.4191 155.094 34.9167C150.759 44.9252 150.971 66.211 150.971 80.3779C150.971 98.186 150.426 127.493 145.684 135.354C137.649 148.676 88.5935 175.635 88.5935 175.635" stroke="#015845" stroke-width="10.5724"/>
<path d="M91.9709 11.6577C86.438 18.3536 68.2253 28.785 33.2942 20.75C31.7083 26.8819 30.3339 29.4193 23.8848 34.9169C28.2194 44.9255 28.008 66.2112 28.008 80.3782C28.008 98.1863 28.5523 127.493 33.2942 135.355C41.3292 148.676 93.5567 175.53 93.5567 175.53" stroke="#015845" stroke-width="10.5724"/>
<mask id="path-4-outside-1_906_1512" maskUnits="userSpaceOnUse" x="47.1133" y="65.0181" width="88" height="53" fill="black">
<rect fill="white" x="47.1133" y="65.0181" width="88" height="53"/>
<path d="M79.2509 101.059C79.2509 97.9411 78.1963 95.4651 76.0871 93.6311C74.0009 91.7741 71.2269 90.8456 67.7651 90.8456C66.1832 90.8456 64.9223 90.8685 63.9823 90.9144C63.0653 90.9373 62.3661 90.9602 61.8846 90.9831V108.865C61.8846 110.378 62.3317 111.502 63.2258 112.235C64.1199 112.946 65.8852 113.301 68.5216 113.301C72.0064 113.301 74.6658 112.258 76.4998 110.172C78.3339 108.063 79.2509 105.025 79.2509 101.059ZM87.7793 101.644C87.7793 104.097 87.2864 106.252 86.3006 108.109C85.3377 109.966 84.0309 111.479 82.3803 112.648C80.8213 113.771 79.056 114.62 77.0844 115.193C75.1357 115.743 73.1183 116.018 71.032 116.018H47.9228V113.576C48.4731 113.531 49.2755 113.439 50.33 113.301C51.3846 113.141 52.1412 112.957 52.5997 112.751C53.3104 112.43 53.8148 112.006 54.1128 111.479C54.4108 110.929 54.5599 110.229 54.5599 109.381V74.3046C54.5599 73.5252 54.4223 72.8374 54.1472 72.2413C53.895 71.6452 53.3792 71.1638 52.5997 70.797C51.9119 70.4531 51.1439 70.1895 50.2957 70.0061C49.4474 69.8226 48.7367 69.708 48.1636 69.6622V67.2206H84.8219V79.1534H82.2427C81.7613 77.3423 80.7525 75.4509 79.2165 73.4793C77.7034 71.4848 76.2706 70.3958 74.9179 70.2124C74.2072 70.1207 73.359 70.0519 72.3732 70.0061C71.3874 69.9602 70.264 69.9373 69.0031 69.9373H61.8846V87.9569C63.008 87.934 64.1314 87.9111 65.2547 87.8882C66.3781 87.8652 67.4671 87.8538 68.5216 87.8538C71.1123 87.8538 73.5653 88.0945 75.8808 88.5759C78.2192 89.0344 80.2826 89.8139 82.0708 90.9144C83.8361 91.9919 85.2231 93.4247 86.2318 95.2129C87.2635 96.9782 87.7793 99.1218 87.7793 101.644ZM114.689 117.153C111.778 117.153 108.981 116.58 106.298 115.433C103.639 114.287 101.278 112.637 99.2142 110.481C97.1738 108.326 95.5461 105.701 94.331 102.606C93.1159 99.4886 92.5084 95.9809 92.5084 92.0836C92.5084 88.1862 93.1045 84.6556 94.2966 81.4919C95.4888 78.3052 97.1394 75.5656 99.2486 73.273C101.335 71.0033 103.799 69.2495 106.642 68.0115C109.485 66.7735 112.523 66.1545 115.755 66.1545C118.162 66.1545 120.34 66.4526 122.289 67.0486C124.238 67.6447 126.095 68.4815 127.86 69.559L129.27 67.2206H132.021L132.33 84.6212H129.511C129.144 82.9247 128.594 81.0907 127.86 79.119C127.126 77.1245 126.267 75.4395 125.281 74.0639C124.18 72.505 122.874 71.2899 121.36 70.4187C119.847 69.5246 118.116 69.0776 116.168 69.0776C113.944 69.0776 111.869 69.5705 109.943 70.5563C108.041 71.5421 106.39 72.9979 104.991 74.9236C103.662 76.7806 102.619 79.142 101.862 82.0077C101.106 84.8734 100.727 88.0716 100.727 91.6021C100.727 94.72 101.117 97.5857 101.897 100.199C102.699 102.79 103.834 105.071 105.301 107.043C106.768 108.991 108.499 110.516 110.494 111.616C112.511 112.717 114.758 113.267 117.234 113.267C119.091 113.267 120.799 112.98 122.358 112.407C123.917 111.811 125.269 111.032 126.416 110.069C127.562 109.06 128.571 107.914 129.442 106.63C130.313 105.346 131.024 103.948 131.574 102.435L134.153 103.673C132.181 108.51 129.568 111.972 126.312 114.058C123.057 116.121 119.183 117.153 114.689 117.153Z"/>
</mask>
<path d="M79.2509 101.059C79.2509 97.9411 78.1963 95.4651 76.0871 93.6311C74.0009 91.7741 71.2269 90.8456 67.7651 90.8456C66.1832 90.8456 64.9223 90.8685 63.9823 90.9144C63.0653 90.9373 62.3661 90.9602 61.8846 90.9831V108.865C61.8846 110.378 62.3317 111.502 63.2258 112.235C64.1199 112.946 65.8852 113.301 68.5216 113.301C72.0064 113.301 74.6658 112.258 76.4998 110.172C78.3339 108.063 79.2509 105.025 79.2509 101.059ZM87.7793 101.644C87.7793 104.097 87.2864 106.252 86.3006 108.109C85.3377 109.966 84.0309 111.479 82.3803 112.648C80.8213 113.771 79.056 114.62 77.0844 115.193C75.1357 115.743 73.1183 116.018 71.032 116.018H47.9228V113.576C48.4731 113.531 49.2755 113.439 50.33 113.301C51.3846 113.141 52.1412 112.957 52.5997 112.751C53.3104 112.43 53.8148 112.006 54.1128 111.479C54.4108 110.929 54.5599 110.229 54.5599 109.381V74.3046C54.5599 73.5252 54.4223 72.8374 54.1472 72.2413C53.895 71.6452 53.3792 71.1638 52.5997 70.797C51.9119 70.4531 51.1439 70.1895 50.2957 70.0061C49.4474 69.8226 48.7367 69.708 48.1636 69.6622V67.2206H84.8219V79.1534H82.2427C81.7613 77.3423 80.7525 75.4509 79.2165 73.4793C77.7034 71.4848 76.2706 70.3958 74.9179 70.2124C74.2072 70.1207 73.359 70.0519 72.3732 70.0061C71.3874 69.9602 70.264 69.9373 69.0031 69.9373H61.8846V87.9569C63.008 87.934 64.1314 87.9111 65.2547 87.8882C66.3781 87.8652 67.4671 87.8538 68.5216 87.8538C71.1123 87.8538 73.5653 88.0945 75.8808 88.5759C78.2192 89.0344 80.2826 89.8139 82.0708 90.9144C83.8361 91.9919 85.2231 93.4247 86.2318 95.2129C87.2635 96.9782 87.7793 99.1218 87.7793 101.644ZM114.689 117.153C111.778 117.153 108.981 116.58 106.298 115.433C103.639 114.287 101.278 112.637 99.2142 110.481C97.1738 108.326 95.5461 105.701 94.331 102.606C93.1159 99.4886 92.5084 95.9809 92.5084 92.0836C92.5084 88.1862 93.1045 84.6556 94.2966 81.4919C95.4888 78.3052 97.1394 75.5656 99.2486 73.273C101.335 71.0033 103.799 69.2495 106.642 68.0115C109.485 66.7735 112.523 66.1545 115.755 66.1545C118.162 66.1545 120.34 66.4526 122.289 67.0486C124.238 67.6447 126.095 68.4815 127.86 69.559L129.27 67.2206H132.021L132.33 84.6212H129.511C129.144 82.9247 128.594 81.0907 127.86 79.119C127.126 77.1245 126.267 75.4395 125.281 74.0639C124.18 72.505 122.874 71.2899 121.36 70.4187C119.847 69.5246 118.116 69.0776 116.168 69.0776C113.944 69.0776 111.869 69.5705 109.943 70.5563C108.041 71.5421 106.39 72.9979 104.991 74.9236C103.662 76.7806 102.619 79.142 101.862 82.0077C101.106 84.8734 100.727 88.0716 100.727 91.6021C100.727 94.72 101.117 97.5857 101.897 100.199C102.699 102.79 103.834 105.071 105.301 107.043C106.768 108.991 108.499 110.516 110.494 111.616C112.511 112.717 114.758 113.267 117.234 113.267C119.091 113.267 120.799 112.98 122.358 112.407C123.917 111.811 125.269 111.032 126.416 110.069C127.562 109.06 128.571 107.914 129.442 106.63C130.313 105.346 131.024 103.948 131.574 102.435L134.153 103.673C132.181 108.51 129.568 111.972 126.312 114.058C123.057 116.121 119.183 117.153 114.689 117.153Z" fill="#015845"/>
<path d="M76.0871 93.6311L75.7213 94.0421L75.7261 94.0463L76.0871 93.6311ZM63.9823 90.9144L63.9961 91.4646L64.0092 91.4639L63.9823 90.9144ZM61.8846 90.9831L61.8585 90.4335L61.3344 90.4585V90.9831H61.8846ZM63.2258 112.235L62.8767 112.661L62.8834 112.666L63.2258 112.235ZM76.4998 110.172L76.9131 110.535L76.915 110.533L76.4998 110.172ZM86.3006 108.109L85.8146 107.851L85.8121 107.855L86.3006 108.109ZM82.3803 112.648L82.0622 112.199L82.0586 112.202L82.3803 112.648ZM77.0844 115.193L77.2339 115.722L77.238 115.721L77.0844 115.193ZM47.9228 116.018H47.3726V116.568H47.9228V116.018ZM47.9228 113.576L47.8772 113.028L47.3726 113.07V113.576H47.9228ZM50.33 113.301L50.4012 113.847L50.4128 113.845L50.33 113.301ZM52.5997 112.751L52.8255 113.253L52.8262 113.253L52.5997 112.751ZM54.1128 111.479L54.5919 111.75L54.5966 111.741L54.1128 111.479ZM54.1472 72.2413L53.6405 72.4557L53.6439 72.4639L53.6476 72.4719L54.1472 72.2413ZM52.5997 70.797L52.3536 71.2893L52.3654 71.2948L52.5997 70.797ZM48.1636 69.6622H47.6133V70.1701L48.1197 70.2106L48.1636 69.6622ZM48.1636 67.2206V66.6704H47.6133V67.2206H48.1636ZM84.8219 67.2206H85.3721V66.6704H84.8219V67.2206ZM84.8219 79.1534V79.7037H85.3721V79.1534H84.8219ZM82.2427 79.1534L81.711 79.2948L81.8196 79.7037H82.2427V79.1534ZM79.2165 73.4793L78.7781 73.8119L78.7825 73.8175L79.2165 73.4793ZM74.9179 70.2124L74.9919 69.6671L74.9883 69.6667L74.9179 70.2124ZM61.8846 69.9373V69.3871H61.3344V69.9373H61.8846ZM61.8846 87.9569H61.3344V88.5185L61.8959 88.507L61.8846 87.9569ZM75.8808 88.5759L75.7688 89.1147L75.7749 89.1159L75.8808 88.5759ZM82.0708 90.9144L81.7824 91.383L81.7841 91.384L82.0708 90.9144ZM86.2318 95.2129L85.7525 95.4833L85.7568 95.4906L86.2318 95.2129ZM79.2509 101.059H79.8011C79.8011 97.8024 78.6923 95.1672 76.4482 93.2159L76.0871 93.6311L75.7261 94.0463C77.7004 95.763 78.7007 98.0798 78.7007 101.059H79.2509ZM76.0871 93.6311L76.453 93.2201C74.2434 91.2533 71.3281 90.2954 67.7651 90.2954V90.8456V91.3958C71.1256 91.3958 73.7584 92.2948 75.7213 94.042L76.0871 93.6311ZM67.7651 90.8456V90.2954C66.1794 90.2954 64.9084 90.3183 63.9555 90.3648L63.9823 90.9144L64.0092 91.4639C64.9362 91.4187 66.187 91.3958 67.7651 91.3958V90.8456ZM63.9823 90.9144L63.9686 90.3643C63.0504 90.3873 62.3462 90.4103 61.8585 90.4335L61.8846 90.9831L61.9108 91.5327C62.3859 91.5101 63.0802 91.4873 63.9961 91.4644L63.9823 90.9144ZM61.8846 90.9831H61.3344V108.865H61.8846H62.4349V90.9831H61.8846ZM61.8846 108.865H61.3344C61.3344 110.489 61.8184 111.792 62.8768 112.661L63.2258 112.235L63.5748 111.81C62.845 111.211 62.4349 110.268 62.4349 108.865H61.8846ZM63.2258 112.235L62.8834 112.666C63.427 113.098 64.188 113.388 65.1118 113.574C66.0424 113.762 67.1821 113.852 68.5216 113.852V113.301V112.751C67.2247 112.751 66.1635 112.663 65.3289 112.495C64.4874 112.326 63.9187 112.083 63.5682 111.805L63.2258 112.235ZM68.5216 113.301V113.852C72.1212 113.852 74.9489 112.769 76.913 110.535L76.4998 110.172L76.0866 109.809C74.3826 111.747 71.8915 112.751 68.5216 112.751V113.301ZM76.4998 110.172L76.915 110.533C78.8665 108.289 79.8011 105.103 79.8011 101.059H79.2509H78.7007C78.7007 104.947 77.8013 107.837 76.0846 109.811L76.4998 110.172ZM87.7793 101.644H87.2291C87.2291 104.022 86.7517 106.085 85.8146 107.851L86.3006 108.109L86.7866 108.367C87.8211 106.418 88.3295 104.172 88.3295 101.644H87.7793ZM86.3006 108.109L85.8121 107.855C84.8882 109.637 83.6388 111.082 82.0622 112.199L82.3803 112.648L82.6983 113.097C84.423 111.875 85.7872 110.294 86.789 108.362L86.3006 108.109ZM82.3803 112.648L82.0586 112.202C80.554 113.286 78.8463 114.108 76.9308 114.664L77.0844 115.193L77.238 115.721C79.2658 115.132 81.0887 114.257 82.7019 113.094L82.3803 112.648ZM77.0844 115.193L76.9349 114.663C75.0363 115.199 73.0693 115.468 71.032 115.468V116.018V116.568C73.1673 116.568 75.2351 116.287 77.2339 115.722L77.0844 115.193ZM71.032 116.018V115.468H47.9228V116.018V116.568H71.032V116.018ZM47.9228 116.018H48.4731V113.576H47.9228H47.3726V116.018H47.9228ZM47.9228 113.576L47.9685 114.125C48.5318 114.078 49.3444 113.985 50.4012 113.847L50.33 113.301L50.2589 112.756C49.2066 112.893 48.4143 112.983 47.8772 113.028L47.9228 113.576ZM50.33 113.301L50.4128 113.845C51.4744 113.684 52.2943 113.492 52.8255 113.253L52.5997 112.751L52.3739 112.249C51.9881 112.423 51.2949 112.598 50.2473 112.757L50.33 113.301ZM52.5997 112.751L52.8262 113.253C53.6127 112.897 54.2216 112.404 54.5918 111.75L54.1128 111.479L53.6338 111.208C53.4079 111.608 53.0081 111.963 52.3732 112.25L52.5997 112.751ZM54.1128 111.479L54.5966 111.741C54.951 111.087 55.1101 110.29 55.1101 109.381H54.5599H54.0096C54.0096 110.169 53.8707 110.77 53.629 111.217L54.1128 111.479ZM54.5599 109.381H55.1101V74.3046H54.5599H54.0096V109.381H54.5599ZM54.5599 74.3046H55.1101C55.1101 73.4603 54.9609 72.6914 54.6468 72.0107L54.1472 72.2413L53.6476 72.4719C53.8837 72.9834 54.0096 73.59 54.0096 74.3046H54.5599ZM54.1472 72.2413L54.6539 72.0269C54.3335 71.2696 53.6948 70.7042 52.834 70.2991L52.5997 70.797L52.3654 71.2948C53.0636 71.6234 53.4565 72.0209 53.6405 72.4557L54.1472 72.2413ZM52.5997 70.797L52.8458 70.3049C52.1119 69.9379 51.2995 69.6602 50.4119 69.4683L50.2957 70.0061L50.1794 70.5438C50.9883 70.7187 51.7119 70.9683 52.3536 71.2891L52.5997 70.797ZM50.2957 70.0061L50.4119 69.4683C49.5505 69.282 48.8138 69.1622 48.2074 69.1137L48.1636 69.6622L48.1197 70.2106C48.6596 70.2538 49.3443 70.3633 50.1794 70.5438L50.2957 70.0061ZM48.1636 69.6622H48.7138V67.2206H48.1636H47.6133V69.6622H48.1636ZM48.1636 67.2206V67.7708H84.8219V67.2206V66.6704H48.1636V67.2206ZM84.8219 67.2206H84.2716V79.1534H84.8219H85.3721V67.2206H84.8219ZM84.8219 79.1534V78.6032H82.2427V79.1534V79.7037H84.8219V79.1534ZM82.2427 79.1534L82.7745 79.0121C82.2688 77.1099 81.2177 75.1527 79.6506 73.1412L79.2165 73.4793L78.7825 73.8175C80.2874 75.7491 81.2537 77.5747 81.711 79.2948L82.2427 79.1534ZM79.2165 73.4793L79.6549 73.1468C78.1201 71.1237 76.5709 69.8813 74.9919 69.6672L74.9179 70.2124L74.844 70.7576C75.9702 70.9103 77.2867 71.8458 78.7782 73.8119L79.2165 73.4793ZM74.9179 70.2124L74.9883 69.6667C74.2584 69.5725 73.3944 69.5027 72.3987 69.4564L72.3732 70.0061L72.3476 70.5557C73.3236 70.6011 74.1561 70.6689 74.8475 70.7581L74.9179 70.2124ZM72.3732 70.0061L72.3987 69.4564C71.4025 69.4101 70.2703 69.3871 69.0031 69.3871V69.9373V70.4875C70.2577 70.4875 71.3723 70.5103 72.3476 70.5557L72.3732 70.0061ZM69.0031 69.9373V69.3871H61.8846V69.9373V70.4875H69.0031V69.9373ZM61.8846 69.9373H61.3344V87.9569H61.8846H62.4349V69.9373H61.8846ZM61.8846 87.9569L61.8959 88.507C61.8973 88.507 61.9076 88.5068 61.909 88.5068C61.9105 88.5067 61.9207 88.5065 61.9222 88.5065C61.9237 88.5065 61.9339 88.5063 61.9354 88.5062C61.9368 88.5062 61.9471 88.506 61.9485 88.506C61.95 88.5059 61.9602 88.5057 61.9617 88.5057C61.9631 88.5057 61.9734 88.5055 61.9748 88.5054C61.9763 88.5054 61.9865 88.5052 61.988 88.5051C61.9895 88.5051 61.9997 88.5049 62.0012 88.5049C62.0026 88.5049 62.0129 88.5046 62.0143 88.5046C62.0158 88.5046 62.026 88.5044 62.0275 88.5043C62.029 88.5043 62.0392 88.5041 62.0407 88.5041C62.0421 88.504 62.0524 88.5038 62.0538 88.5038C62.0553 88.5038 62.0655 88.5036 62.067 88.5035C62.0685 88.5035 62.0787 88.5033 62.0802 88.5033C62.0816 88.5032 62.0919 88.503 62.0933 88.503C62.0948 88.503 62.105 88.5028 62.1065 88.5027C62.108 88.5027 62.1182 88.5025 62.1197 88.5025C62.1211 88.5024 62.1314 88.5022 62.1328 88.5022C62.1343 88.5022 62.1445 88.502 62.146 88.5019C62.1474 88.5019 62.1577 88.5017 62.1591 88.5017C62.1606 88.5016 62.1709 88.5014 62.1723 88.5014C62.1738 88.5014 62.184 88.5012 62.1855 88.5011C62.1869 88.5011 62.1972 88.5009 62.1986 88.5009C62.2001 88.5008 62.2103 88.5006 62.2118 88.5006C62.2133 88.5006 62.2235 88.5003 62.225 88.5003C62.2264 88.5003 62.2367 88.5001 62.2381 88.5C62.2396 88.5 62.2498 88.4998 62.2513 88.4998C62.2528 88.4997 62.263 88.4995 62.2645 88.4995C62.2659 88.4995 62.2762 88.4993 62.2776 88.4992C62.2791 88.4992 62.2893 88.499 62.2908 88.499C62.2923 88.4989 62.3025 88.4987 62.304 88.4987C62.3054 88.4987 62.3157 88.4985 62.3171 88.4984C62.3186 88.4984 62.3288 88.4982 62.3303 88.4982C62.3317 88.4981 62.342 88.4979 62.3435 88.4979C62.3449 88.4979 62.3552 88.4977 62.3566 88.4976C62.3581 88.4976 62.3683 88.4974 62.3698 88.4974C62.3712 88.4973 62.3815 88.4971 62.3829 88.4971C62.3844 88.4971 62.3946 88.4969 62.3961 88.4968C62.3976 88.4968 62.4078 88.4966 62.4093 88.4966C62.4107 88.4965 62.421 88.4963 62.4224 88.4963C62.4239 88.4963 62.4341 88.496 62.4356 88.496C62.4371 88.496 62.4473 88.4958 62.4488 88.4957C62.4502 88.4957 62.4605 88.4955 62.4619 88.4955C62.4634 88.4954 62.4736 88.4952 62.4751 88.4952C62.4766 88.4952 62.4868 88.495 62.4883 88.4949C62.4897 88.4949 62.5 88.4947 62.5014 88.4947C62.5029 88.4946 62.5131 88.4944 62.5146 88.4944C62.5161 88.4944 62.5263 88.4942 62.5278 88.4941C62.5292 88.4941 62.5395 88.4939 62.5409 88.4939C62.5424 88.4938 62.5526 88.4936 62.5541 88.4936C62.5555 88.4936 62.5658 88.4934 62.5672 88.4933C62.5687 88.4933 62.5789 88.4931 62.5804 88.4931C62.5819 88.493 62.5921 88.4928 62.5936 88.4928C62.595 88.4928 62.6053 88.4926 62.6067 88.4925C62.6082 88.4925 62.6184 88.4923 62.6199 88.4923C62.6214 88.4922 62.6316 88.492 62.6331 88.492C62.6345 88.492 62.6448 88.4917 62.6462 88.4917C62.6477 88.4917 62.6579 88.4915 62.6594 88.4914C62.6609 88.4914 62.6711 88.4912 62.6726 88.4912C62.674 88.4911 62.6843 88.4909 62.6857 88.4909C62.6872 88.4909 62.6974 88.4907 62.6989 88.4906C62.7004 88.4906 62.7106 88.4904 62.7121 88.4904C62.7135 88.4903 62.7238 88.4901 62.7252 88.4901C62.7267 88.4901 62.7369 88.4899 62.7384 88.4898C62.7398 88.4898 62.7501 88.4896 62.7515 88.4896C62.753 88.4895 62.7632 88.4893 62.7647 88.4893C62.7662 88.4893 62.7764 88.4891 62.7779 88.489C62.7793 88.489 62.7896 88.4888 62.791 88.4888C62.7925 88.4887 62.8027 88.4885 62.8042 88.4885C62.8057 88.4885 62.8159 88.4883 62.8174 88.4882C62.8188 88.4882 62.8291 88.488 62.8305 88.488C62.832 88.4879 62.8422 88.4877 62.8437 88.4877C62.8452 88.4877 62.8554 88.4874 62.8569 88.4874C62.8583 88.4874 62.8686 88.4872 62.87 88.4872C62.8715 88.4871 62.8817 88.4869 62.8832 88.4869C62.8847 88.4869 62.8949 88.4866 62.8964 88.4866C62.8978 88.4866 62.9081 88.4864 62.9095 88.4863C62.911 88.4863 62.9212 88.4861 62.9227 88.4861C62.9241 88.486 62.9344 88.4858 62.9359 88.4858C62.9373 88.4858 62.9476 88.4856 62.949 88.4855C62.9505 88.4855 62.9607 88.4853 62.9622 88.4853C62.9636 88.4852 62.9739 88.485 62.9753 88.485C62.9768 88.485 62.987 88.4848 62.9885 88.4847C62.99 88.4847 63.0002 88.4845 63.0017 88.4845C63.0031 88.4844 63.0134 88.4842 63.0148 88.4842C63.0163 88.4842 63.0265 88.484 63.028 88.4839C63.0295 88.4839 63.0397 88.4837 63.0412 88.4837C63.0426 88.4836 63.0529 88.4834 63.0543 88.4834C63.0558 88.4834 63.066 88.4832 63.0675 88.4831C63.069 88.4831 63.0792 88.4829 63.0807 88.4829C63.0821 88.4828 63.0924 88.4826 63.0938 88.4826C63.0953 88.4826 63.1055 88.4823 63.107 88.4823C63.1085 88.4823 63.1187 88.4821 63.1202 88.482C63.1216 88.482 63.1319 88.4818 63.1333 88.4818C63.1348 88.4817 63.145 88.4815 63.1465 88.4815C63.1479 88.4815 63.1582 88.4813 63.1596 88.4812C63.1611 88.4812 63.1713 88.481 63.1728 88.481C63.1743 88.4809 63.1845 88.4807 63.186 88.4807C63.1874 88.4807 63.1977 88.4805 63.1991 88.4804C63.2006 88.4804 63.2108 88.4802 63.2123 88.4802C63.2138 88.4801 63.224 88.4799 63.2255 88.4799C63.2269 88.4799 63.2372 88.4797 63.2386 88.4796C63.2401 88.4796 63.2503 88.4794 63.2518 88.4794C63.2533 88.4793 63.2635 88.4791 63.265 88.4791C63.2664 88.4791 63.2767 88.4789 63.2781 88.4788C63.2796 88.4788 63.2898 88.4786 63.2913 88.4786C63.2928 88.4785 63.303 88.4783 63.3045 88.4783C63.3059 88.4783 63.3162 88.478 63.3176 88.478C63.3191 88.478 63.3293 88.4778 63.3308 88.4777C63.3322 88.4777 63.3425 88.4775 63.3439 88.4775C63.3454 88.4774 63.3556 88.4772 63.3571 88.4772C63.3586 88.4772 63.3688 88.477 63.3703 88.4769C63.3717 88.4769 63.382 88.4767 63.3834 88.4767C63.3849 88.4766 63.3951 88.4764 63.3966 88.4764C63.3981 88.4764 63.4083 88.4762 63.4098 88.4761C63.4112 88.4761 63.4215 88.4759 63.4229 88.4759C63.4244 88.4758 63.4346 88.4756 63.4361 88.4756C63.4376 88.4756 63.4478 88.4754 63.4493 88.4753C63.4507 88.4753 63.461 88.4751 63.4624 88.4751C63.4639 88.475 63.4741 88.4748 63.4756 88.4748C63.4771 88.4748 63.4873 88.4746 63.4888 88.4745C63.4902 88.4745 63.5005 88.4743 63.5019 88.4743C63.5034 88.4742 63.5136 88.474 63.5151 88.474C63.5165 88.474 63.5268 88.4737 63.5282 88.4737C63.5297 88.4737 63.54 88.4735 63.5414 88.4734C63.5429 88.4734 63.5531 88.4732 63.5546 88.4732C63.556 88.4732 63.5663 88.4729 63.5677 88.4729C63.5692 88.4729 63.5794 88.4727 63.5809 88.4726C63.5877 88.4725 63.6794 88.4706 63.6862 88.4705C63.693 88.4704 63.7847 88.4685 63.7915 88.4683C63.7984 88.4682 63.89 88.4663 63.8969 88.4662C63.9037 88.4661 63.9953 88.4642 64.0022 88.464C64.009 88.4639 64.1007 88.462 64.1075 88.4619C64.1143 88.4618 64.206 88.4599 64.2128 88.4597C64.2196 88.4596 64.3113 88.4577 64.3181 88.4576C64.3249 88.4575 64.4166 88.4556 64.4234 88.4554C64.4303 88.4553 64.5219 88.4534 64.5287 88.4533C64.5356 88.4532 64.6272 88.4513 64.6341 88.4511C64.6409 88.451 64.7325 88.4491 64.7394 88.449C64.7462 88.4489 64.8379 88.447 64.8447 88.4468C64.8515 88.4467 64.9432 88.4448 64.95 88.4447C64.9568 88.4446 65.0485 88.4427 65.0553 88.4426C65.0621 88.4424 65.1538 88.4405 65.1606 88.4404C65.1675 88.4403 65.2591 88.4384 65.2659 88.4383L65.2547 87.8881L65.2435 87.338C65.242 87.3381 65.2318 87.3383 65.2303 87.3383C65.2289 87.3383 65.2186 87.3386 65.2172 87.3386C65.2157 87.3386 65.2055 87.3388 65.204 87.3389C65.2025 87.3389 65.1923 87.3391 65.1908 87.3391C65.1894 87.3391 65.1791 87.3394 65.1777 87.3394C65.1762 87.3394 65.166 87.3396 65.1645 87.3397C65.163 87.3397 65.1528 87.3399 65.1513 87.3399C65.1499 87.34 65.1396 87.3402 65.1382 87.3402C65.1367 87.3402 65.1265 87.3404 65.125 87.3405C65.1236 87.3405 65.1133 87.3407 65.1119 87.3407C65.1104 87.3408 65.1002 87.341 65.0987 87.341C65.0972 87.341 65.087 87.3412 65.0855 87.3413C65.0841 87.3413 65.0738 87.3415 65.0724 87.3415C65.0709 87.3416 65.0607 87.3418 65.0592 87.3418C65.0577 87.3418 65.0475 87.342 65.046 87.3421C65.0446 87.3421 65.0343 87.3423 65.0329 87.3423C65.0314 87.3424 65.0212 87.3426 65.0197 87.3426C65.0182 87.3426 65.008 87.3429 65.0065 87.3429C65.0051 87.3429 64.9948 87.3431 64.9934 87.3432C64.9919 87.3432 64.9817 87.3434 64.9802 87.3434C64.9787 87.3434 64.9685 87.3437 64.967 87.3437C64.9656 87.3437 64.9553 87.3439 64.9539 87.344C64.9524 87.344 64.9422 87.3442 64.9407 87.3442C64.9393 87.3443 64.929 87.3445 64.9276 87.3445C64.9261 87.3445 64.9158 87.3447 64.9144 87.3448C64.9129 87.3448 64.9027 87.345 64.9012 87.345C64.8998 87.3451 64.8895 87.3453 64.8881 87.3453C64.8866 87.3453 64.8764 87.3455 64.8749 87.3456C64.8734 87.3456 64.8632 87.3458 64.8617 87.3458C64.8603 87.3459 64.85 87.3461 64.8486 87.3461C64.8471 87.3461 64.8369 87.3463 64.8354 87.3464C64.8339 87.3464 64.8237 87.3466 64.8222 87.3466C64.8208 87.3467 64.8105 87.3469 64.8091 87.3469C64.8076 87.3469 64.7974 87.3472 64.7959 87.3472C64.7944 87.3472 64.7842 87.3474 64.7827 87.3475C64.7813 87.3475 64.771 87.3477 64.7696 87.3477C64.7681 87.3477 64.7579 87.348 64.7564 87.348C64.755 87.348 64.7447 87.3482 64.7432 87.3483C64.7418 87.3483 64.7315 87.3485 64.7301 87.3485C64.7286 87.3486 64.7184 87.3488 64.7169 87.3488C64.7155 87.3488 64.7052 87.349 64.7038 87.3491C64.7023 87.3491 64.6921 87.3493 64.6906 87.3493C64.6891 87.3494 64.6789 87.3496 64.6774 87.3496C64.676 87.3496 64.6657 87.3498 64.6643 87.3499C64.6628 87.3499 64.6526 87.3501 64.6511 87.3501C64.6496 87.3502 64.6394 87.3504 64.6379 87.3504C64.6365 87.3504 64.6262 87.3506 64.6248 87.3507C64.6233 87.3507 64.6131 87.3509 64.6116 87.3509C64.6101 87.351 64.5999 87.3512 64.5984 87.3512C64.597 87.3512 64.5867 87.3514 64.5853 87.3515C64.5838 87.3515 64.5736 87.3517 64.5721 87.3517C64.5706 87.3518 64.5604 87.352 64.5589 87.352C64.5575 87.352 64.5472 87.3523 64.5458 87.3523C64.5443 87.3523 64.5341 87.3525 64.5326 87.3526C64.5312 87.3526 64.5209 87.3528 64.5195 87.3528C64.518 87.3529 64.5078 87.3531 64.5063 87.3531C64.5048 87.3531 64.4946 87.3533 64.4931 87.3534C64.4917 87.3534 64.4814 87.3536 64.48 87.3536C64.4785 87.3537 64.4683 87.3539 64.4668 87.3539C64.4653 87.3539 64.4551 87.3541 64.4536 87.3542C64.4522 87.3542 64.4419 87.3544 64.4405 87.3544C64.439 87.3545 64.4288 87.3547 64.4273 87.3547C64.4258 87.3547 64.4156 87.3549 64.4141 87.355C64.4127 87.355 64.4024 87.3552 64.401 87.3552C64.3995 87.3553 64.3893 87.3555 64.3878 87.3555C64.3863 87.3555 64.3761 87.3557 64.3746 87.3558C64.3732 87.3558 64.3629 87.356 64.3615 87.356C64.36 87.3561 64.3498 87.3563 64.3483 87.3563C64.3469 87.3563 64.3366 87.3566 64.3352 87.3566C64.3337 87.3566 64.3235 87.3568 64.322 87.3569C64.3205 87.3569 64.3103 87.3571 64.3088 87.3571C64.3074 87.3572 64.2971 87.3574 64.2957 87.3574C64.2942 87.3574 64.284 87.3576 64.2825 87.3577C64.281 87.3577 64.2708 87.3579 64.2693 87.3579C64.2679 87.358 64.2576 87.3582 64.2562 87.3582C64.2547 87.3582 64.2445 87.3584 64.243 87.3585C64.2415 87.3585 64.2313 87.3587 64.2298 87.3587C64.2284 87.3588 64.2181 87.359 64.2167 87.359C64.2152 87.359 64.205 87.3592 64.2035 87.3593C64.202 87.3593 64.1918 87.3595 64.1903 87.3595C64.1889 87.3596 64.1786 87.3598 64.1772 87.3598C64.1757 87.3598 64.1655 87.36 64.164 87.3601C64.1626 87.3601 64.1523 87.3603 64.1509 87.3603C64.1494 87.3604 64.1391 87.3606 64.1377 87.3606C64.1362 87.3606 64.126 87.3609 64.1245 87.3609C64.1231 87.3609 64.1128 87.3611 64.1114 87.3612C64.1099 87.3612 64.0997 87.3614 64.0982 87.3614C64.0967 87.3615 64.0865 87.3617 64.085 87.3617C64.0836 87.3617 64.0733 87.3619 64.0719 87.362C64.0704 87.362 64.0602 87.3622 64.0587 87.3622C64.0572 87.3623 64.047 87.3625 64.0455 87.3625C64.0441 87.3625 64.0338 87.3627 64.0324 87.3628C64.0309 87.3628 64.0207 87.363 64.0192 87.363C64.0177 87.3631 64.0075 87.3633 64.006 87.3633C64.0046 87.3633 63.9943 87.3635 63.9929 87.3636C63.9914 87.3636 63.9812 87.3638 63.9797 87.3638C63.9783 87.3639 63.968 87.3641 63.9665 87.3641C63.9651 87.3641 63.9548 87.3643 63.9534 87.3644C63.9519 87.3644 63.9417 87.3646 63.9402 87.3646C63.9388 87.3647 63.9285 87.3649 63.9271 87.3649C63.9256 87.3649 63.9154 87.3652 63.9139 87.3652C63.9124 87.3652 63.9022 87.3654 63.9007 87.3655C63.8993 87.3655 63.889 87.3657 63.8876 87.3657C63.8861 87.3657 63.8759 87.366 63.8744 87.366C63.8729 87.366 63.8627 87.3662 63.8612 87.3663C63.8598 87.3663 63.8495 87.3665 63.8481 87.3665C63.8466 87.3666 63.8364 87.3668 63.8349 87.3668C63.8334 87.3668 63.8232 87.367 63.8217 87.3671C63.8203 87.3671 63.81 87.3673 63.8086 87.3673C63.8071 87.3674 63.7969 87.3676 63.7954 87.3676C63.7939 87.3676 63.7837 87.3678 63.7822 87.3679C63.7808 87.3679 63.7705 87.3681 63.7691 87.3681C63.7676 87.3682 63.7574 87.3684 63.7559 87.3684C63.7545 87.3684 63.7442 87.3686 63.7428 87.3687C63.7413 87.3687 63.7311 87.3689 63.7296 87.3689C63.7281 87.369 63.7179 87.3692 63.7164 87.3692C63.715 87.3692 63.7047 87.3694 63.7033 87.3695C63.7018 87.3695 63.6916 87.3697 63.6901 87.3697C63.6886 87.3698 63.6784 87.37 63.6769 87.37C63.6755 87.37 63.6652 87.3703 63.6638 87.3703C63.6623 87.3703 63.6521 87.3705 63.6506 87.3706C63.6491 87.3706 63.6389 87.3708 63.6374 87.3708C63.636 87.3709 63.6257 87.3711 63.6243 87.3711C63.6228 87.3711 63.6126 87.3713 63.6111 87.3714C63.6096 87.3714 63.5994 87.3716 63.5979 87.3716C63.5965 87.3717 63.5862 87.3719 63.5848 87.3719C63.5833 87.3719 63.5731 87.3721 63.5716 87.3722C63.5702 87.3722 63.5599 87.3724 63.5585 87.3724C63.5516 87.3726 63.46 87.3744 63.4531 87.3746C63.4463 87.3747 63.3546 87.3766 63.3478 87.3767C63.341 87.3769 63.2493 87.3787 63.2425 87.3789C63.2357 87.379 63.144 87.3809 63.1372 87.381C63.1304 87.3812 63.0387 87.383 63.0319 87.3832C63.0251 87.3833 62.9334 87.3852 62.9266 87.3853C62.9197 87.3855 62.8281 87.3873 62.8212 87.3875C62.8144 87.3876 62.7228 87.3895 62.7159 87.3896C62.7091 87.3898 62.6174 87.3916 62.6106 87.3918C62.6038 87.3919 62.5121 87.3938 62.5053 87.3939C62.4985 87.3941 62.4068 87.3959 62.4 87.3961C62.3932 87.3962 62.3015 87.3981 62.2947 87.3982C62.2878 87.3984 62.1962 87.4002 62.1894 87.4004C62.1825 87.4005 62.0909 87.4024 62.084 87.4025C62.0772 87.4027 61.9855 87.4045 61.9787 87.4047C61.9719 87.4048 61.8802 87.4067 61.8734 87.4068L61.8846 87.9569ZM65.2547 87.8881L65.2659 88.4383C66.3858 88.4154 67.471 88.404 68.5216 88.404V87.8538V87.3035C67.4631 87.3035 66.3704 87.315 65.2435 87.338L65.2547 87.8881ZM68.5216 87.8538V88.404C71.0782 88.404 73.4935 88.6415 75.7688 89.1146L75.8808 88.5759L75.9928 88.0372C73.6372 87.5474 71.1464 87.3035 68.5216 87.3035V87.8538ZM75.8808 88.5759L75.7749 89.1159C78.0574 89.5634 80.0573 90.3213 81.7824 91.3829L82.0708 90.9144L82.3591 90.4458C80.5078 89.3065 78.3811 88.5055 75.9867 88.036L75.8808 88.5759ZM82.0708 90.9144L81.7841 91.384C83.4699 92.413 84.7903 93.7775 85.7526 95.4833L86.2318 95.2129L86.711 94.9426C85.6558 93.072 84.2022 91.5708 82.3574 90.4447L82.0708 90.9144ZM86.2318 95.2129L85.7568 95.4906C86.7289 97.154 87.2291 99.1967 87.2291 101.644H87.7793H88.3295C88.3295 99.0468 87.798 96.8024 86.7068 94.9353L86.2318 95.2129ZM106.298 115.433L106.08 115.939L106.082 115.939L106.298 115.433ZM99.2142 110.481L98.8146 110.86L98.8168 110.862L99.2142 110.481ZM94.331 102.606L93.8183 102.806L93.8188 102.808L94.331 102.606ZM94.2966 81.4919L94.8115 81.6859L94.812 81.6847L94.2966 81.4919ZM99.2486 73.273L99.6535 73.6455L99.6537 73.6453L99.2486 73.273ZM127.86 69.559L127.573 70.0286L128.045 70.3169L128.331 69.8431L127.86 69.559ZM129.27 67.2206V66.6704H128.959L128.799 66.9365L129.27 67.2206ZM132.021 67.2206L132.571 67.2108L132.561 66.6704H132.021V67.2206ZM132.33 84.6212V85.1714H132.891L132.881 84.6114L132.33 84.6212ZM129.511 84.6212L128.973 84.7375L129.067 85.1714H129.511V84.6212ZM127.86 79.119L127.344 79.309L127.344 79.3109L127.86 79.119ZM125.281 74.0639L124.831 74.3812L124.834 74.3844L125.281 74.0639ZM121.36 70.4187L121.081 70.8924L121.086 70.8955L121.36 70.4187ZM109.943 70.5563L109.693 70.0665L109.69 70.0677L109.943 70.5563ZM104.991 74.9236L104.546 74.6003L104.544 74.6033L104.991 74.9236ZM101.862 82.0077L101.33 81.8672L101.862 82.0077ZM101.897 100.199L101.369 100.357L101.371 100.362L101.897 100.199ZM105.301 107.043L104.86 107.371L104.861 107.374L105.301 107.043ZM110.494 111.616L110.228 112.098L110.23 112.099L110.494 111.616ZM122.358 112.407L122.548 112.924L122.554 112.921L122.358 112.407ZM126.416 110.069L126.77 110.49L126.779 110.482L126.416 110.069ZM129.442 106.63L128.987 106.321L129.442 106.63ZM131.574 102.435L131.812 101.939L131.264 101.676L131.057 102.247L131.574 102.435ZM134.153 103.673L134.663 103.88L134.858 103.401L134.391 103.177L134.153 103.673ZM126.312 114.058L126.607 114.523L126.609 114.521L126.312 114.058ZM114.689 117.153V116.603C111.852 116.603 109.129 116.045 106.514 114.928L106.298 115.433L106.082 115.939C108.833 117.115 111.703 117.703 114.689 117.703V117.153ZM106.298 115.433L106.516 114.928C103.926 113.812 101.626 112.204 99.6116 110.101L99.2142 110.481L98.8168 110.862C100.929 113.069 103.351 114.762 106.08 115.939L106.298 115.433ZM99.2142 110.481L99.6137 110.103C97.6274 108.005 96.0355 105.443 94.8432 102.405L94.331 102.606L93.8188 102.808C95.0566 105.96 96.7202 108.648 98.8147 110.86L99.2142 110.481ZM94.331 102.606L94.8437 102.407C93.6572 99.3621 93.0586 95.9237 93.0586 92.0836H92.5084H91.9582C91.9582 96.0382 92.5747 99.6151 93.8183 102.806L94.331 102.606ZM92.5084 92.0836H93.0586C93.0586 88.2425 93.646 84.7789 94.8115 81.6859L94.2966 81.4919L93.7817 81.2978C92.563 84.5323 91.9582 88.1299 91.9582 92.0836H92.5084ZM94.2966 81.4919L94.812 81.6847C95.9815 78.5583 97.5966 75.8812 99.6535 73.6455L99.2486 73.273L98.8437 72.9004C96.6822 75.2499 94.996 78.0521 93.7813 81.2991L94.2966 81.4919ZM99.2486 73.273L99.6537 73.6453C101.688 71.4325 104.089 69.7235 106.862 68.516L106.642 68.0115L106.422 67.5071C103.51 68.7755 100.982 70.5742 98.8435 72.9006L99.2486 73.273ZM106.642 68.0115L106.862 68.516C109.632 67.3094 112.595 66.7047 115.755 66.7047V66.1545V65.6043C112.45 65.6043 109.338 66.2376 106.422 67.5071L106.642 68.0115ZM115.755 66.1545V66.7047C118.117 66.7047 120.24 66.9973 122.128 67.5748L122.289 67.0486L122.45 66.5225C120.441 65.9079 118.207 65.6043 115.755 65.6043V66.1545ZM122.289 67.0486L122.128 67.5748C124.032 68.1572 125.847 68.9748 127.573 70.0286L127.86 69.559L128.147 69.0894C126.343 67.9882 124.443 67.1322 122.45 66.5225L122.289 67.0486ZM127.86 69.559L128.331 69.8431L129.741 67.5047L129.27 67.2206L128.799 66.9365L127.389 69.2749L127.86 69.559ZM129.27 67.2206V67.7708H132.021V67.2206V66.6704H129.27V67.2206ZM132.021 67.2206L131.471 67.2304L131.78 84.631L132.33 84.6212L132.881 84.6114L132.571 67.2108L132.021 67.2206ZM132.33 84.6212V84.071H129.511V84.6212V85.1714H132.33V84.6212ZM129.511 84.6212L130.048 84.505C129.675 82.778 129.117 80.9185 128.376 78.9272L127.86 79.119L127.344 79.3109C128.071 81.2629 128.613 83.0714 128.973 84.7375L129.511 84.6212ZM127.86 79.119L128.376 78.9291C127.63 76.8994 126.749 75.1679 125.728 73.7434L125.281 74.0639L124.834 74.3844C125.784 75.711 126.623 77.3496 127.344 79.309L127.86 79.119ZM125.281 74.0639L125.73 73.7466C124.588 72.1286 123.224 70.8565 121.635 69.9419L121.36 70.4187L121.086 70.8955C122.524 71.7233 123.773 72.8814 124.831 74.3812L125.281 74.0639ZM121.36 70.4187L121.64 69.945C120.034 68.9955 118.204 68.5273 116.168 68.5273V69.0776V69.6278C118.029 69.6278 119.661 70.0537 121.081 70.8924L121.36 70.4187ZM116.168 69.0776V68.5273C113.859 68.5273 111.698 69.0398 109.693 70.0665L109.943 70.5563L110.194 71.046C112.04 70.1011 114.029 69.6278 116.168 69.6278V69.0776ZM109.943 70.5563L109.69 70.0677C107.703 71.0971 105.989 72.613 104.546 74.6003L104.991 74.9236L105.437 75.2469C106.79 73.3827 108.378 71.9871 110.197 71.0448L109.943 70.5563ZM104.991 74.9236L104.544 74.6033C103.166 76.5281 102.099 78.9552 101.33 81.8672L101.862 82.0077L102.394 82.1481C103.138 79.3288 104.158 77.0331 105.439 75.244L104.991 74.9236ZM101.862 82.0077L101.33 81.8672C100.559 84.7865 100.177 88.0329 100.177 91.6021H100.727H101.278C101.278 88.1102 101.652 84.9603 102.394 82.1481L101.862 82.0077ZM100.727 91.6021H100.177C100.177 94.7658 100.573 97.6853 101.369 100.357L101.897 100.199L102.424 100.042C101.662 97.4862 101.278 94.6742 101.278 91.6021H100.727ZM101.897 100.199L101.371 100.362C102.19 103.006 103.351 105.345 104.86 107.371L105.301 107.043L105.742 106.714C104.316 104.797 103.208 102.574 102.422 100.036L101.897 100.199ZM105.301 107.043L104.861 107.374C106.372 109.38 108.161 110.958 110.228 112.098L110.494 111.616L110.759 111.135C108.838 110.074 107.165 108.603 105.741 106.712L105.301 107.043ZM110.494 111.616L110.23 112.099C112.335 113.247 114.673 113.817 117.234 113.817V113.267V112.717C114.843 112.717 112.688 112.186 110.757 111.133L110.494 111.616ZM117.234 113.267V113.817C119.148 113.817 120.921 113.522 122.548 112.924L122.358 112.407L122.168 111.891C120.676 112.439 119.034 112.717 117.234 112.717V113.267ZM122.358 112.407L122.554 112.921C124.164 112.306 125.571 111.497 126.77 110.49L126.416 110.069L126.062 109.648C124.967 110.567 123.669 111.317 122.161 111.893L122.358 112.407ZM126.416 110.069L126.779 110.482C127.961 109.442 129 108.261 129.897 106.939L129.442 106.63L128.987 106.321C128.141 107.567 127.163 108.678 126.052 109.656L126.416 110.069ZM129.442 106.63L129.897 106.939C130.795 105.616 131.526 104.177 132.091 102.623L131.574 102.435L131.057 102.247C130.522 103.719 129.831 105.076 128.987 106.321L129.442 106.63ZM131.574 102.435L131.336 102.931L133.915 104.169L134.153 103.673L134.391 103.177L131.812 101.939L131.574 102.435ZM134.153 103.673L133.644 103.465C131.7 108.233 129.147 111.588 126.016 113.595L126.312 114.058L126.609 114.521C129.989 112.356 132.663 108.786 134.663 103.88L134.153 103.673ZM126.312 114.058L126.018 113.593C122.864 115.592 119.096 116.603 114.689 116.603V117.153V117.703C119.269 117.703 123.25 116.651 126.607 114.523L126.312 114.058Z" fill="#015845" mask="url(#path-4-outside-1_906_1512)"/>
<path d="M91.12 4.35254L96.0643 10.0616L91.2257 12.1761L86.1758 10.0616L91.12 4.35254Z" fill="#015845"/>
</svg>
