<svg width="292" height="47" viewBox="0 0 292 47" fill="none" xmlns="http://www.w3.org/2000/svg">
<g clip-path="url(#clip0_415_2188)">
<path fill-rule="evenodd" clip-rule="evenodd" d="M255.164 32.9627V20.5596H248.349V34.2829C248.349 38.9266 253.142 42.6932 259.06 42.6932C264.977 42.6932 269.771 38.9266 269.771 34.2829V20.5596H263.006V32.9627C263.006 35.0261 261.247 36.7017 259.088 36.7017C256.928 36.7017 255.169 35.0261 255.169 32.9627H255.164Z" fill="#D2003C"/>
<path d="M292 5.81641H285.138V41.9181H292V5.81641ZM280.404 5.81641H273.543V41.9181H280.404V5.81641Z" fill="#D2003C"/>
<path fill-rule="evenodd" clip-rule="evenodd" d="M148.001 13.3913H144.271V41.9181H136.972V7.47363H149.52C155.235 7.47363 159.863 12.0296 159.863 17.6473C159.863 22.4294 156.506 26.4407 151.984 27.5301L162.069 41.9181H153.462L146.168 30.6413V22.4017H147.863C150.556 22.4017 152.744 20.3799 152.744 17.8919C152.744 15.4039 150.699 13.3821 148.001 13.3821V13.3913Z" fill="#D2003C"/>
<path d="M183.634 32.6445C183.68 32.1737 183.703 31.6936 183.699 31.1997C183.804 23.7588 178.886 19.669 172.623 19.669C166.361 19.669 161.281 24.8204 161.281 31.1767C161.281 37.5329 166.361 42.6935 172.623 42.6935C177.403 42.6935 181.134 40.524 183.054 37.1267L177.486 34.5509C176.773 36.0881 175.115 37.1728 173.185 37.1682C170.514 37.1682 168.539 35.1972 168.516 32.88V32.6445H183.634ZM168.493 28.6886C168.534 26.3668 170.445 24.5204 172.757 24.5619C175.013 24.6035 176.832 26.4268 176.874 28.6886H168.488H168.493ZM210.946 41.9181L210.937 5.81641H204.099V22.9002C202.28 21.0953 199.853 20.0013 197.205 20.0013C191.536 20.0013 186.945 25.0374 186.945 31.2505C186.945 37.4636 191.536 42.5043 197.205 42.5043C199.881 42.5043 202.307 41.3641 204.131 39.5177V41.9181H210.946ZM199.148 36.6466C196.367 36.6466 194.11 34.1678 194.11 31.1213C194.11 28.0747 196.362 25.6005 199.148 25.6005C201.934 25.6005 204.186 28.0747 204.186 31.1213C204.186 34.1678 201.934 36.6466 199.148 36.6466ZM239.953 23.1725C241.832 21.4138 242.984 19.0643 242.984 16.4793C242.984 14.139 242.081 11.9834 240.511 10.2939C238.876 8.48906 235.979 7.47355 232.06 7.47355H220.331V41.9181H235.482C241.284 41.8211 245.963 37.4267 245.963 32.0398C245.963 28.1209 244.582 25.3236 239.963 23.1679H239.958L239.953 23.1725ZM234.206 35.9404H227.64V13.3912H232.217C234.225 13.3912 235.86 15.233 235.86 17.2548C235.86 19.2674 234.234 20.9061 232.222 20.9061H229.836V27.1007H234.206C236.642 27.1007 238.484 29.0718 238.484 31.5136C238.397 34.0386 236.854 35.7834 234.206 35.945" fill="#D2003C"/>
<path d="M61.5643 47C74.509 47 85.0085 36.4802 85.0085 23.5C85.0085 10.5198 74.509 0 61.5643 0C48.6196 0 38.1201 10.5198 38.1201 23.5C38.1201 36.4802 48.615 47 61.5643 47Z" fill="#FFCC00"/>
<path d="M59.8931 34.4033C58.5668 33.6555 58.3089 32.1784 57.6136 31.2736C57.3281 30.9182 56.863 30.5212 56.734 30.1935C55.5413 27.1285 55.1361 25.4113 54.717 22.4202C54.5006 20.8876 53.4875 19.5952 52.0093 17.7857C51.3646 16.9964 50.4482 15.69 49.6515 14.9192C46.9852 12.6666 45.5438 11.4156 43.7663 10.2109C43.4209 9.97545 43.0525 9.77234 42.6657 9.60155H42.6565C42.6565 9.60155 42.6427 9.60155 42.6381 9.59232C42.044 9.32921 41.5052 9.25997 40.7776 9.21842C40.6809 9.21381 40.5842 9.20919 40.4875 9.20919C39.1613 9.20919 37.8995 9.69387 36.6285 10.6771C35.7029 11.2818 34.6483 11.6187 33.6214 11.9465C32.3274 12.3573 30.9827 12.7866 29.8913 13.7421C29.6979 13.8852 29.5183 14.0837 29.3433 14.2683C29.1039 14.5268 28.9335 14.8176 28.5697 14.9376C28.252 15.0115 28.0263 15.0115 27.773 15.03C27.3678 15.0623 26.9672 15.1177 26.5711 15.2007C25.2265 15.5192 24.1949 16.3501 23.1081 17.2318L22.7397 17.5272C22.0352 18.0857 20.8241 18.5981 20.1379 18.6212C18.2222 18.6812 16.8683 19.1336 15.4546 20.186C13.9994 21.3031 12.4383 22.4525 10.7114 23.1633C10.3154 23.3157 9.89633 23.3987 9.46806 23.4034C9.01677 23.4034 8.37207 23.3064 7.86091 22.8264C7.207 22.2217 6.99056 21.0538 7.38199 20.2737C7.96683 19.1151 9.15953 18.1734 10.1358 17.4764C11.393 16.5255 12.6087 15.2746 12.0699 13.1974C11.4897 11.3002 9.17795 10.6909 7.64908 10.2847C7.21621 10.1693 6.8432 10.0724 6.62216 9.97083C6.13863 9.74465 5.80246 9.51385 5.47551 9.29228C5.15776 9.06148 4.81239 8.86299 4.45319 8.70605C4.39333 8.68297 4.32886 8.67374 4.26439 8.66912C4.04795 8.66912 3.87757 8.77529 3.74862 8.98301C3.19602 9.94313 3.03485 10.9263 3.2651 11.8818C3.61968 13.4559 5.16697 14.8869 6.77873 15.1361C6.93991 15.1777 7.12411 15.1915 7.30831 15.21C7.47409 15.2238 7.64447 15.2423 7.80105 15.2746C6.73268 16.1009 5.75641 17.0471 4.89067 18.0904C3.71178 19.4844 3.38483 21.7831 4.14005 23.4357C4.78936 25.0882 6.43796 26.4361 8.15103 26.7084C8.48719 26.773 8.8556 26.8007 9.26544 26.8007C9.85949 26.8007 10.4581 26.7361 11.0338 26.6761C11.1719 26.6622 11.3193 26.6438 11.4528 26.6299C11.5127 27.9409 11.5587 28.7533 12.2817 30.6089C12.3278 30.7243 12.2955 30.9228 12.1436 31.0613C12.0192 31.1721 10.9601 31.6106 10.6608 31.6752C10.5318 31.6983 10.4029 31.7075 10.2739 31.7029H9.84107C9.69832 31.7029 9.50951 31.7029 9.32991 31.7306C8.66679 31.8275 8.33983 32.3861 8.10498 32.9308C7.96222 33.2585 7.85631 33.5493 7.7642 33.7986C7.53856 34.4171 7.40041 34.8002 6.96754 35.0357C6.96754 35.0357 6.06495 34.2325 5.91299 34.1217C5.70576 33.9971 5.4663 33.9324 5.22684 33.9278C4.66042 33.9278 4.15387 34.2879 3.66573 34.6387C3.51837 34.7495 3.36641 34.851 3.20984 34.9526C2.79999 35.2111 2.49145 35.6496 2.40396 36.1019C1.74083 36.4343 1.09153 36.8405 0.792199 37.5006C0.649443 37.7868 0.621813 38.133 0.594183 38.4653C0.584973 38.6223 0.566553 38.7838 0.538922 38.9408C0.488267 39.0469 0.428402 39.1485 0.363932 39.2454C0.179731 39.4993 0.0185547 39.8732 0.0185547 40.104C0.0185547 40.5887 0.198151 40.7779 0.469847 41.0087C0.801409 41.2442 1.69478 41.5165 2.33488 41.6781C2.38093 41.6919 2.43159 41.6965 2.47764 41.6965C2.67105 41.6965 2.82762 41.595 2.97959 41.5027C3.05327 41.4565 3.12234 41.4103 3.20523 41.3734C3.73481 41.498 4.51306 41.6642 5.26828 41.6642C5.65971 41.6642 6.0189 41.6181 6.33665 41.535C7.10569 41.3272 7.7642 40.2794 8.11879 39.7116C8.20629 39.5778 8.28918 39.4393 8.3122 39.4208C8.33523 39.4116 8.35825 39.407 8.38588 39.407C8.50101 39.407 8.69442 39.4624 8.89704 39.5178C9.1319 39.587 9.40359 39.6609 9.64766 39.684C10.518 39.7624 11.3469 39.2177 11.8811 38.8161C12.1021 38.6546 12.3416 38.4238 12.5718 38.2022C12.8343 37.953 13.1014 37.6945 13.3317 37.5421C13.6356 37.4175 13.9626 37.3575 14.2895 37.3621C14.4046 37.3621 14.5382 37.3667 14.6763 37.3806C15.3026 37.5098 16.1223 37.6668 16.919 37.6668C17.7157 37.6668 18.3189 37.5329 18.8485 37.2559L19.3366 37.0021C19.8662 36.7297 20.405 36.4574 20.9162 36.1758C21.9062 35.6357 22.3069 34.7541 22.6292 34.0432L22.7121 33.8632C22.9009 33.4524 23.191 32.7046 23.2647 32.5199C23.4167 32.543 23.5779 32.5522 23.7436 32.5522C24.2778 32.5522 24.8074 32.4415 25.314 32.3307C25.8159 32.2245 26.3363 32.1137 26.8566 32.1137C27.1329 32.1137 27.3862 32.1414 27.6349 32.206C28.5743 32.3907 29.8085 32.603 31.0656 32.603C31.7149 32.6076 32.3688 32.5384 33.0043 32.3999C33.1471 32.5384 33.3129 32.663 33.4694 32.7784C33.626 32.8938 33.7688 33.0046 33.9069 33.1339C33.7642 33.1616 33.6168 33.18 33.4694 33.1939C33.032 33.2446 32.5761 33.2908 32.2445 33.6509C31.8853 33.5031 31.4985 33.4339 31.1071 33.4431C30.665 33.4524 30.2275 33.4939 29.79 33.5678C29.615 33.5955 29.4401 33.6185 29.2743 33.6416C28.6019 33.7247 28.1414 33.9832 27.9066 34.4171C27.7638 34.7033 27.6533 34.9987 27.8882 35.488L29.2098 37.6806C29.371 37.9668 29.6427 38.1976 29.8269 38.2115C29.9236 38.2207 30.0571 38.2115 30.1999 38.1976C30.315 38.1884 30.4301 38.1791 30.5407 38.1791C30.7525 38.1791 30.8814 38.2161 30.9229 38.2853C30.9873 38.3869 31.0518 38.4884 31.1163 38.59C31.388 39.0146 31.6643 39.4578 32.0879 39.8317C32.728 40.3902 33.7596 40.6256 34.7312 40.3994C35.095 40.2656 35.4588 40.1317 35.8272 40.0025C36.9693 39.5916 38.1482 39.167 39.2902 38.6777L41.1875 38.4053C41.8138 38.2807 42.2927 37.436 42.4492 37.0805L42.4907 36.9974C42.4907 36.9974 43.0617 35.8573 43.2367 35.1695C43.2459 35.2849 43.2459 35.4419 43.2459 35.6634C43.2459 36.739 43.4347 38.0961 45.2629 38.0268C46.2806 37.9853 47.6345 37.3806 48.597 37.2052C49.6055 37.0344 50.9225 37.4637 51.8988 36.9836C52.8474 36.5959 53.3954 35.8527 53.5474 36.0096C54.8229 37.2559 56.5498 37.9253 58.332 37.8606C59.6997 37.8145 59.847 36.7205 58.8938 36.222C60.7588 36.4389 61.3068 35.428 60.9614 35.1003C60.7404 34.8926 60.6115 34.791 59.9023 34.3894V34.3986L59.8931 34.4033ZM43.1446 33.3831C42.44 32.4322 41.9841 31.7537 41.9151 30.8813C42.813 30.7751 43.6327 30.4797 44.9636 30.4058C44.6136 31.4398 43.4209 31.9337 43.14 33.3785L43.1446 33.3831ZM122.402 39.4485C122.337 39.3239 122.277 39.1993 122.241 39.107C122.181 38.9039 122.171 38.6915 122.158 38.4653C122.144 38.2161 122.13 37.9576 122.052 37.7175C121.84 37.0113 121.089 36.5728 120.481 36.3235C120.458 36.0558 120.408 35.7696 120.164 35.5942C119.114 34.8418 118.561 34.4171 118.266 34.1955C118.091 34.0617 118.027 34.0109 117.99 33.9971C117.866 33.937 117.732 33.9093 117.594 33.9047C117.129 33.9047 116.761 34.274 116.401 34.6294L116.153 34.8741C116.153 34.8741 116.139 34.8833 116.125 34.8833C116.01 34.8833 115.775 34.5371 115.72 34.3802C115.614 34.0986 115.536 33.8309 115.453 33.577C115.319 33.0969 115.144 32.6307 114.932 32.1784C114.536 31.389 113.689 31.3752 112.943 31.3613H112.731C112.39 31.3613 111.934 31.3105 111.856 31.0844C111.773 30.8582 111.944 30.4335 112.045 30.1242C112.119 29.9073 112.183 29.7042 112.206 29.5057C112.395 28.6564 112.409 27.5254 112.243 26.6115C112.432 26.6161 112.621 26.6392 112.819 26.6622C112.989 26.6853 113.164 26.7038 113.348 26.713H113.509C114.638 26.713 115.586 26.4915 116.415 26.0391C118.087 25.0328 119.109 23.408 119.151 21.677C119.091 20.7722 118.879 20.0291 118.423 19.1059C117.806 17.8873 116.779 16.6871 115.278 15.4408C116.148 15.2608 116.866 15.0484 117.534 14.6284C118.897 13.7606 119.501 12.1911 119.233 10.197C119.16 9.72618 118.98 8.91377 118.584 8.70143C118.529 8.66912 118.464 8.65527 118.4 8.65527C118.11 8.65527 117.833 8.96916 117.585 9.2415C117.493 9.34767 117.405 9.43999 117.327 9.50923C116.862 9.92467 116.318 10.0308 115.747 10.1462C115.443 10.2062 115.135 10.2663 114.84 10.377C113.468 10.8248 111.142 11.8449 110.931 13.7005C110.728 15.5331 112.031 16.7702 113.293 17.9611C113.712 18.3581 114.113 18.732 114.453 19.129C115.181 19.9737 115.807 20.8138 115.642 21.7601C115.586 22.0832 115.126 22.5817 114.688 22.7802C114.352 22.8956 114.011 22.9556 113.657 22.9556C112.492 22.9556 111.368 22.314 110.383 21.7462L110.24 21.6631C107.951 20.0752 105.584 18.4273 102.651 18.1134C101.532 17.8965 100.565 17.2225 99.6206 16.5578C99.4042 16.4055 99.1878 16.2532 98.9667 16.1055C97.9812 15.5239 96.8944 15.1361 95.7616 14.9561C95.1768 14.8776 94.7117 14.4945 94.2189 14.0929C93.9657 13.8713 93.694 13.6729 93.4084 13.4928C92.2572 12.7497 90.977 12.2327 89.6323 11.9742C89.4988 11.9326 89.3652 11.9003 89.2271 11.8772C88.8771 11.8034 88.5087 11.7249 88.2554 11.4572C87.8686 11.0002 87.3344 10.414 86.6943 9.95237C85.8332 9.37537 84.4977 8.75682 83.328 8.75682C83.0932 8.75682 82.8583 8.78452 82.6281 8.84453C81.9788 9.00609 81.4768 9.3846 80.9426 9.78619L80.74 9.9339C79.6717 10.7694 78.2533 11.9188 77.1343 12.7173C73.8003 15.0992 72.5477 16.1424 70.8945 17.9519C66.6394 22.6094 67.9334 29.5749 64.2586 33.6139C63.31 34.6618 63.0429 34.7956 62.6975 35.0864C62.2693 35.4465 62.168 37.3667 64.954 36.4251C63.683 37.5144 64.4843 38.0176 65.3178 38.036C66.7868 38.0684 68.4078 37.556 70.0011 35.8619C71.1063 37.4544 73.0312 36.7205 74.0305 36.8036C74.9699 36.8774 76.6922 37.9022 77.6961 37.8422C79.2296 37.7452 79.7914 36.2127 79.6394 35.3588C79.8881 35.3588 79.9526 35.2988 80.0216 35.1787C80.2012 36.0696 80.3256 36.6789 80.496 37.1221C80.5098 37.1544 80.5282 37.1959 80.5512 37.2375V37.2467C80.6617 37.4406 80.8874 37.8699 81.113 38.0776C81.3755 38.3915 81.7669 38.433 82.0755 38.433C82.1998 38.433 82.3288 38.4238 82.4485 38.4192C82.5866 38.4099 82.7202 38.4053 82.8537 38.4053C82.9689 38.493 83.0794 38.5853 83.1853 38.6869C83.434 38.9038 83.6872 39.13 83.9958 39.2177C85.4464 39.5916 86.6483 39.9286 87.8179 40.3394C88.0574 40.4179 88.4212 40.5148 88.785 40.5148C88.9047 40.5148 89.0199 40.5056 89.1258 40.4825C90.2356 40.2425 91.2211 39.2916 91.4651 38.2115C91.4835 38.0453 91.6033 38.0314 91.8105 38.0222C91.9625 38.0222 92.1329 38.0083 92.225 37.9022C92.8282 37.4175 93.1966 36.7528 93.5604 36.1158C93.6341 35.9819 93.7124 35.8434 93.7953 35.705C93.9841 35.3772 94.0025 34.9803 93.8413 34.6387C93.7262 34.4033 93.5144 34.2325 93.2058 34.1309C92.6302 33.9694 91.9855 33.9555 91.4283 33.9555H90.8158C90.5257 33.9555 90.1941 33.9555 89.8672 33.9232L89.6323 33.6647C89.4619 33.5124 89.2455 33.4754 89.0337 33.4385L88.8817 33.4108L89.4067 33C89.6185 33.0046 89.8257 33.0092 90.033 33.0092C91.2579 33.0092 92.3861 32.9031 93.39 32.6907C94.2834 32.4738 95.1998 32.363 96.1208 32.3491C96.2451 32.3491 96.3695 32.3491 96.4938 32.3584C96.6458 32.3676 96.7931 32.3768 96.9451 32.3907C97.4931 32.4276 98.0595 32.4692 98.6213 32.4692C99.3673 32.4692 99.9706 32.3999 100.509 32.2568C100.578 32.5292 100.629 32.7923 100.68 33.0554C100.878 34.0386 101.062 34.971 101.817 35.7788C102.273 36.3604 102.867 36.6974 103.447 37.0251C103.742 37.1913 104.046 37.3806 104.336 37.5744C104.723 37.7729 105.036 37.8052 105.483 37.8052C106.104 37.8052 106.897 37.5375 107.348 37.5375C109.227 37.5375 110.677 38.5576 112.252 39.7901C112.533 39.9748 112.874 40.0717 113.265 40.0717C113.744 40.0717 114.278 39.9286 114.748 39.6747L114.785 39.7301C115.07 40.1363 115.374 40.561 115.78 40.8933C116.36 41.4196 117.115 41.4934 117.774 41.4934C117.995 41.4934 118.225 41.4842 118.446 41.475C118.759 41.4611 119.081 41.4473 119.385 41.4611C119.505 41.6319 119.74 41.7658 119.924 41.7565C120.108 41.7473 122.139 41.0826 122.25 41.0457C122.36 41.0087 122.512 40.921 122.512 40.921C123.005 40.6672 122.646 39.9563 122.388 39.4301L122.379 39.4439L122.402 39.4485ZM80.321 33.4478C79.8282 32.4692 79.446 31.5875 78.8382 30.6689C80.2335 30.9967 81.8222 30.8397 81.8222 30.8397C81.3709 31.4813 80.8598 32.3999 80.321 33.4524" fill="#FFCC00"/>
<path d="M88.9874 34.4167C88.9138 34.3244 88.771 34.3105 88.6881 34.3105C88.6513 34.3105 88.619 34.3105 88.5822 34.3152C88.3289 34.3475 88.0987 34.3613 87.8638 34.3613C87.7395 34.3613 87.6197 34.3613 87.4954 34.3521C87.3941 34.3521 87.3066 34.3429 87.2145 34.3429C87.0671 34.3429 86.9428 34.3521 86.8231 34.3752H86.7954L86.7816 34.4029C86.7632 34.4398 86.2981 35.2522 86.3626 35.7692C86.4316 36.3231 86.9935 36.4385 87.4217 36.5216C87.5737 36.5539 87.7533 36.5862 87.9329 36.5862C88.2368 36.5862 88.444 36.4847 88.5454 36.2816C88.7664 35.7323 88.9276 35.1599 89.0243 34.5737C89.0381 34.5183 89.0243 34.4583 88.9874 34.4121V34.4213V34.4167ZM119.602 36.2493C119.335 35.8661 118.874 35.5569 118.501 35.3076C118.354 35.2153 118.211 35.1137 118.077 35.0076L118.004 34.9522C117.921 34.8783 117.81 34.8414 117.7 34.8414C117.281 34.8414 116.825 35.3445 116.816 35.5199C116.802 35.7738 117.161 36.2262 117.631 36.7847L117.727 36.9047C117.967 37.1909 118.22 37.3433 118.492 37.3617C118.768 37.3617 118.985 37.2694 119.215 37.0571C119.385 36.9001 119.763 36.5031 119.592 36.2585H119.597L119.602 36.2493ZM121.563 39.522C121.499 39.3928 121.444 39.2635 121.402 39.125C121.365 38.9358 121.333 38.7419 121.31 38.548C121.273 38.2388 121.236 37.9479 121.14 37.7218C121.002 37.4356 120.716 37.2555 120.403 37.2463C120.297 37.2463 120.191 37.2694 120.094 37.3202C119.634 37.551 119.358 37.8002 119.436 38.3172C119.689 39.0696 119.813 39.6189 119.984 40.3621C120.002 40.4775 120.081 40.8514 120.256 40.8514C120.269 40.8514 120.283 40.8514 120.297 40.8514L121.619 40.4175C121.679 40.399 121.734 40.3529 121.757 40.2929C121.835 40.1175 121.692 39.8174 121.559 39.5312L121.563 39.522Z" fill="#D2003C"/>
<path d="M119.229 40.5789C119.123 39.7665 118.898 38.9726 118.561 38.2248L118.543 38.1879H118.501C117.732 38.234 117.263 37.6155 116.802 37.0154C116.65 36.8169 116.507 36.6323 116.356 36.4707C116.13 36.2168 115.881 35.9768 115.619 35.7552C115.347 35.5198 115.117 35.3121 115.029 35.1274C114.923 34.9013 114.804 34.4674 114.689 34.0473C114.606 33.7519 114.532 33.4657 114.458 33.2718L114.412 33.1518C114.274 32.7825 114.108 32.3209 113.629 32.2425C113.39 32.2009 113.127 32.1917 112.883 32.1824C112.193 32.1548 111.502 32.0347 111.143 31.5362C110.811 31.0792 110.949 30.6546 111.133 30.2068C111.216 30.0083 111.272 29.8421 111.318 29.6529C111.566 28.8174 111.649 27.7788 111.46 27.0495C111.428 26.9341 111.396 26.8141 111.354 26.7033C111.258 26.3986 111.138 25.9416 111.212 25.7985C111.285 25.6601 111.364 25.637 111.502 25.637C111.626 25.637 111.764 25.6785 111.893 25.7154C111.99 25.7431 112.059 25.7524 112.151 25.7801C112.492 25.8632 113.008 25.9555 113.477 25.9555C114.251 25.9555 115.066 25.7893 115.771 25.4846C117.102 24.8384 118.414 23.3798 118.345 21.5749C118.17 19.747 117.042 17.979 114.891 16.1696C114.84 16.1234 114.785 16.0773 114.73 16.0357C114.449 15.8049 114.113 15.5141 114.104 15.2556C114.094 14.9971 114.767 14.8402 115.186 14.7432C115.283 14.7202 115.37 14.7017 115.448 14.6786L115.554 14.6509C116.093 14.5124 116.641 14.3647 117.097 14.0508C118.63 13.0169 118.575 11.1935 118.4 10.1919C118.391 10.1642 118.386 10.1365 118.377 10.0996C118.35 9.97031 118.313 9.80413 118.193 9.80413C118.147 9.80413 118.105 9.82721 118.078 9.85952L117.94 9.98877C117.765 10.1549 117.571 10.3442 117.346 10.4735C116.862 10.7643 116.273 10.8843 115.711 11.0043C115.352 11.0781 114.974 11.1566 114.629 11.2766C113.104 11.8075 112.16 12.5783 111.82 13.5754C111.645 14.097 111.737 14.7525 112.077 15.3802C112.579 16.1696 113.293 16.862 113.993 17.5313C115.094 18.5884 116.227 19.6777 116.489 21.1595C116.632 22.0227 116.282 22.7474 115.421 23.3798C114.969 23.6521 114.394 23.7952 113.754 23.7952C112.943 23.786 112.147 23.5875 111.428 23.209C110.535 22.7612 109.674 22.1842 108.84 21.6257C107.588 20.7856 106.289 19.9178 104.852 19.4562C104.231 19.17 103.535 19.0315 102.867 18.893C101.919 18.6991 100.933 18.5007 100.146 17.8821C99.8742 17.7021 99.6071 17.5174 99.3492 17.3236C98.6308 16.8066 97.894 16.2665 97.0559 16.0542C96.7427 15.948 96.4388 15.9065 96.1395 15.8603C95.679 15.7911 95.2507 15.7357 94.8547 15.4495L94.3159 15.0571C93.6482 14.5678 92.962 14.0647 92.2713 13.7139C91.0878 13.123 89.826 12.8138 88.4122 12.5091C87.961 12.4029 87.6847 12.0614 87.3853 11.7013C87.1873 11.4567 86.9801 11.2074 86.7176 11.032C85.6308 10.1688 84.6453 9.5918 83.3744 9.5918C83.2546 9.5918 83.1349 9.5918 83.0198 9.60564C82.352 9.6518 81.7027 10.1549 81.2699 10.5381C80.0035 11.6459 78.6404 12.6383 77.3233 13.5939C75.357 15.0156 73.3308 16.4881 71.5947 18.3899C69.8862 20.1578 69.2692 22.3596 68.6659 24.4968C68.5738 24.8107 68.4909 25.1246 68.3942 25.4385C68.233 26.0201 68.0811 26.6248 67.9383 27.2018C67.1555 30.3499 66.3496 33.4934 63.2136 35.5337C63.0063 35.6675 63.08 35.9306 63.2734 36.0045C63.3563 36.0368 64.6687 36.4799 65.9812 35.1598C66.7732 34.1766 67.2153 33.2672 68.1593 32.2517C68.1916 32.2194 68.2975 32.1363 68.3896 32.1455C68.4541 32.1778 68.4725 32.2101 68.4541 32.3209C68.3297 32.7271 68.0857 33.0826 67.8416 33.4334C67.5929 33.7888 67.3397 34.1581 67.2153 34.5735C66.916 35.4783 66.0779 36.2076 65.3319 36.8492C65.3319 36.8492 65.2167 36.9277 65.1477 37.0108C65.0786 37.0939 65.0786 37.1308 65.0786 37.1308C65.0556 37.3293 65.2121 37.4539 65.5345 37.4631C67.2936 37.4631 68.5462 36.2122 69.7527 34.9982C69.808 34.9428 69.8816 34.9151 69.9553 34.9197C70.0198 34.9197 70.0889 34.929 70.1487 34.952C70.2316 34.9982 70.4158 35.1782 70.5586 35.3029C70.9546 35.6537 71.3598 36.0229 71.894 36.1291H71.9124C72.5525 36.0368 73.1282 35.9676 73.7222 35.9676C73.8972 35.9676 74.0538 35.9722 74.2011 35.986C74.8412 36.1799 75.4859 36.4245 76.103 36.6553C76.5405 36.8215 76.9918 36.9877 77.4431 37.14H77.4615C78.0463 37.1169 78.4654 36.5723 78.7739 36.0876C78.9167 35.746 78.8522 35.409 78.7831 35.0859C78.7417 34.8828 78.7002 34.6935 78.7141 34.5089C78.82 34.4535 78.9719 34.4627 79.1285 34.4858C79.2667 34.5089 79.4693 34.4858 79.5384 34.4766C79.6903 34.4535 79.8515 34.2781 79.8101 34.0473C79.6949 33.4611 79.4002 33.0964 79.1055 32.6487C78.8476 32.2655 78.6035 31.9055 78.4838 31.4993C78.2904 30.9592 77.8806 30.5161 77.4845 30.0822C77.024 29.579 76.5911 29.1036 76.4622 28.5035C76.4622 28.5035 76.4254 28.3789 76.4668 28.3281C76.5083 28.2773 76.6326 28.3373 76.6326 28.3373C76.8444 28.4897 77.0563 28.6651 77.2589 28.8312C77.9266 29.3759 78.6174 29.9391 79.4555 30.0637C80.2337 30.1422 81.0903 30.2391 81.9238 30.1699C82.1448 30.1329 82.2553 29.9391 82.2047 29.7544C81.8731 29.0482 81.5277 28.2912 81.3205 27.4649C81.1455 26.8417 80.7541 25.2031 81.1547 23.966C81.1962 23.846 81.2745 23.8044 81.3481 23.8044C81.3573 23.8044 81.3666 23.8044 81.3804 23.809C81.5139 23.8414 81.606 24.0029 81.6244 24.1275L81.6383 24.2891C81.7534 25.9739 81.8685 27.5618 82.8954 28.9189C83.1717 29.3575 83.5632 29.5883 83.9408 29.8144C84.2033 29.9668 84.5026 30.1099 84.6914 30.3545C84.9078 30.6269 84.9447 31.0977 84.7973 31.3839L83.5355 33.2487C83.2408 33.6734 82.9507 34.1304 82.8448 34.592C82.7527 35.0628 82.7895 35.5198 82.831 35.9629L82.8402 36.0691C82.7987 36.046 82.7665 36.0091 82.7435 35.9676C82.2369 35.0444 82.131 34.2643 82.3935 33.6642C82.5593 33.2764 83.5862 31.8178 83.8855 31.3377C83.9822 31.1854 84.0559 31.0331 83.9776 30.9269C83.8763 30.7977 83.1073 30.4653 82.9046 30.4653C82.8908 30.4653 82.877 30.4653 82.8632 30.4699C82.6836 30.5207 82.5685 30.6869 82.4626 30.8346L82.3889 30.9315L80.8324 33.7611L80.7955 33.8673C80.7034 34.1489 80.6252 34.3935 80.7034 34.7212C80.7909 35.1459 80.9199 35.6029 81.0166 35.9352L81.0995 36.2122C81.2376 36.7061 81.3712 37.1631 81.583 37.4216C81.7165 37.5785 81.9146 37.6662 82.1218 37.657C82.2369 37.657 82.3613 37.6385 82.4764 37.6201C82.6698 37.5878 82.8816 37.5647 83.0382 37.6062C83.273 37.6662 83.4342 37.8417 83.6046 38.0217C83.775 38.2063 83.95 38.3956 84.2125 38.474C84.696 38.6356 85.1979 38.7695 85.6861 38.8941C86.3354 39.0649 87.0077 39.2403 87.6478 39.4896C88.007 39.605 88.3938 39.7157 88.7714 39.7157C89.1859 39.7157 89.4438 39.6003 89.803 39.3049C90.3049 38.8941 90.4753 38.4879 90.5996 37.9017C90.6963 37.3616 90.8805 37.3293 91.2674 37.3062C91.4562 37.297 91.4838 37.3062 91.668 37.2416C91.8614 37.1769 92.4232 36.4892 92.7179 35.9214C92.8008 35.7645 92.8837 35.626 92.9666 35.506C93.0449 35.4044 93.0863 35.2798 93.091 35.1505C93.091 34.869 92.8561 34.7859 92.7087 34.7812H92.6074C92.6074 34.7812 90.9496 34.7674 90.4937 34.7812C89.8122 34.8182 89.5174 35.4736 89.278 36.0553C89.1813 36.2814 89.0984 36.4892 88.9833 36.6738C88.8037 36.9969 88.4537 37.1954 88.0208 37.1862C87.8965 37.1862 87.6156 37.1077 87.4728 37.0754C86.5748 36.8538 85.6538 36.6276 85.2716 35.7321C85.2348 35.5798 85.1795 35.2613 85.4006 34.9936C85.8795 34.4397 86.5104 33.7334 87.1597 33.2303C88.0623 33.041 88.9602 32.3717 89.4576 31.5316C89.5635 31.3885 89.6142 31.2177 89.6694 31.0515C89.7523 30.7976 89.826 30.5576 90.0562 30.4099C90.199 30.3361 90.3187 30.3591 90.351 30.4884C90.4385 30.9592 90.2589 31.407 90.0839 31.8455C90.0424 31.9424 90.0056 32.0394 89.9734 32.1409L89.9457 32.2148L90.024 32.224C90.2727 32.2471 90.526 32.2609 90.7838 32.2609C91.7094 32.2609 92.5844 32.104 93.4363 31.947C94.279 31.7947 95.154 31.6331 96.0566 31.6331C96.1533 31.6331 96.25 31.6331 96.3513 31.6378C96.7519 31.6378 97.1388 31.6747 97.5164 31.707C97.8848 31.7393 98.267 31.7762 98.6538 31.7762C98.7874 31.7762 98.9163 31.7762 99.0406 31.7624C100.197 31.707 101.035 31.1808 101.283 30.3545C101.523 29.6437 101.495 28.4204 101.205 26.7125C101.191 26.6294 101.182 26.5786 101.182 26.5694V26.5371C101.182 26.4725 101.182 26.4078 101.269 26.3663C101.375 26.3063 101.491 26.3663 101.541 26.5048C101.979 27.7326 102.232 29.1451 102.365 30.1191C102.513 31.0608 102.904 32.0209 103.572 33.041C104.396 34.2735 105.759 34.9844 107.302 34.9844C107.661 34.9844 108.025 34.9151 108.38 34.869C108.628 34.8366 108.72 34.8505 108.891 34.8505C110.857 34.8505 112.566 35.7044 113.841 37.32C113.841 37.32 113.864 37.3524 113.864 37.3939C113.864 37.4631 113.768 37.5278 113.68 37.4908L113.514 37.3616C112.409 36.4984 111.262 35.6075 109.826 35.4321C109.559 35.3859 109.287 35.3629 109.015 35.3629C108.61 35.3675 108.2 35.3998 107.799 35.4552C107.403 35.5013 107.035 35.5475 106.653 35.5475C106.206 35.5567 105.764 35.4736 105.35 35.3121C103.696 34.7628 102.342 32.8564 101.91 31.6747C101.877 31.6054 101.808 31.5639 101.735 31.5639C101.689 31.5639 101.642 31.5778 101.592 31.6101C101.398 31.7301 101.366 31.7947 101.339 31.9101C101.311 32.007 101.472 32.861 101.546 33.2257C101.762 34.1304 102.085 35.4921 103.268 35.9999C103.415 36.0876 103.558 36.1799 103.706 36.2768C104.295 36.6553 104.903 37.0477 105.603 37.0477C105.769 37.0477 105.934 37.0246 106.096 36.9785C106.515 36.8861 106.943 36.84 107.376 36.84C108.739 36.84 110.12 37.3062 111.285 38.1555C111.479 38.2709 111.663 38.4233 111.838 38.571C112.091 38.7833 112.349 39.0003 112.653 39.111C112.847 39.1895 113.054 39.2264 113.275 39.2264C113.804 39.2264 113.938 39.0695 114.311 38.8849C114.449 38.8156 114.601 38.7787 114.753 38.7787C115.177 38.7787 115.411 39.1064 115.706 39.5265C115.886 39.7804 116.088 40.0666 116.365 40.3112C116.747 40.6851 117.281 40.7313 117.7 40.7313C117.93 40.7313 118.161 40.7128 118.386 40.6989C118.603 40.6851 118.865 40.6759 119.003 40.662C119.137 40.6436 119.215 40.6251 119.215 40.6251V40.5697L119.224 40.5882L119.229 40.5789ZM74.4544 34.2781C74.3807 34.4166 74.1919 34.4997 73.9525 34.4997C73.7498 34.4997 73.5518 34.4489 73.3815 34.3427C73.0683 34.1165 72.8841 33.7427 72.8565 33.2487C72.8519 33.1333 72.8427 33.0179 72.9946 32.9072C73.0729 32.861 73.119 32.861 73.2065 32.861C73.5058 32.861 73.9893 33.0549 74.2472 33.3688C74.2656 33.3918 74.6663 33.9227 74.459 34.2873L74.4544 34.2781ZM74.8873 27.3264C74.7722 27.4695 74.6018 27.5803 74.436 27.4972C74.2794 27.4418 74.1367 27.2387 74.0538 27.0864C73.9479 26.8925 73.8558 26.7263 73.5979 26.7448H73.5564C73.3308 26.7633 73.1604 26.8741 72.9808 27.0172C72.8887 27.091 72.5249 27.3634 72.4374 27.4372C71.9447 27.8526 71.4519 28.2819 71.3322 28.8636C71.3092 28.9697 71.2862 29.0713 71.2631 29.1774C71.2263 29.3805 71.1895 29.5929 71.0191 29.699H71.0053C70.9822 29.7129 70.9546 29.7175 70.927 29.7175C70.8487 29.7175 70.775 29.6852 70.7151 29.6344C70.6507 29.5883 70.6138 29.5144 70.6138 29.4359C70.5263 28.4343 70.8671 27.5295 71.5671 26.8879C72.023 26.514 72.3868 26.0432 72.7414 25.5862C72.9117 25.3646 73.0913 25.1338 73.2801 24.9215C73.4183 24.783 73.6485 24.8984 74.0262 25.3139C74.1827 25.4846 74.6801 26.334 74.9057 26.8879C74.9564 27.0264 74.9472 27.1833 74.8781 27.3172V27.3264H74.8873ZM83.1671 15.6664C82.9783 15.8465 82.7803 16.0265 82.5823 16.2157C81.8777 16.8574 81.1547 17.5221 80.6758 18.2699C80.4502 18.5745 80.2844 18.9299 80.1232 19.2715C80.1048 19.3085 80.0633 19.3823 79.9897 19.3823C79.9482 19.3823 79.9114 19.3638 79.8837 19.3315C79.7502 19.1977 79.8607 18.2514 80.0357 17.7759C80.4225 16.7281 81.3021 15.6295 82.4533 14.7663C82.5823 14.6878 82.725 14.6463 82.877 14.6463C83.0934 14.6463 83.2592 14.7432 83.3283 14.9186C83.4711 15.1494 83.4204 15.4218 83.1717 15.6664M36.2143 35.5198C36.1729 35.4506 36.136 35.3813 36.1038 35.3121C35.9887 35.0905 35.9242 34.8551 35.8643 34.652C35.7492 34.2412 35.6479 33.8857 35.2012 33.9458C34.5703 34.0381 33.9578 34.0796 33.2717 34.0796C33.2625 34.0796 33.0506 34.0796 32.9816 34.2273C32.9033 34.3981 33.0783 34.5597 33.2625 34.7305C33.3638 34.8274 33.4743 34.9243 33.5434 35.0351C33.6677 35.2198 33.7921 35.4875 33.9072 35.746C34.0914 36.1568 34.2572 36.5076 34.4414 36.5676C34.5243 36.5907 34.6118 36.6046 34.7038 36.6046C35.1321 36.6046 35.7216 36.3738 36.1498 36.0414C36.3893 35.8383 36.311 35.6998 36.2051 35.5198H36.2143ZM5.39748 34.8782L5.36064 34.8505C5.2317 34.7443 4.99684 34.7582 4.83566 34.869C4.72975 34.9428 4.61462 35.0167 4.50871 35.0905C4.15873 35.3259 3.79032 35.5614 3.40811 35.8891C3.26535 36.0045 3.19167 36.2307 3.17786 36.4015C3.16404 36.5353 3.19167 36.6461 3.24693 36.7153C3.27917 36.7523 3.56007 37.0615 3.61533 37.1123C3.73967 37.2231 3.89624 37.2831 4.06202 37.2877C4.19557 37.2877 4.32451 37.2508 4.43963 37.1908C5.12118 36.8492 5.82574 35.5844 5.85337 35.5106C5.92706 35.3075 5.6968 35.1228 5.39748 34.8828M3.15023 37.8786C3.01207 37.6801 2.54697 37.1308 2.28448 37.1308C2.26146 37.1308 2.23843 37.1308 2.22001 37.1446C1.86082 37.2923 1.44176 37.7632 1.41874 38.0448C1.32664 39.268 1.2944 39.3972 0.958234 39.7757C0.861529 39.8819 0.801663 40.122 0.907579 40.2281C0.999679 40.3204 2.20159 40.7036 2.33514 40.7036H2.36277C2.46868 40.6666 2.56078 40.3897 2.80485 39.5449C2.93379 39.088 3.08576 38.5756 3.25154 38.1094C3.26075 38.0771 3.26535 38.0309 3.15483 37.8786H3.14562H3.15023Z" fill="#D2003C"/>
<path d="M39.9115 37.796C40.4043 37.7591 40.9108 37.7222 41.2746 37.339C41.7305 36.6743 42.122 36.0096 42.4673 35.3034C42.7713 34.671 42.7759 34.0525 42.4765 33.5678C41.5694 32.1137 41.4082 31.7306 41.0398 30.7428L41.0306 30.7151L41.0029 30.7059C40.897 30.6736 40.7911 30.6366 40.6852 30.5905C40.4642 30.5074 40.2293 30.4104 39.9668 30.4104H39.93C39.6168 30.4197 39.4096 30.5166 39.3221 30.692L39.3083 30.7197L40.9523 33.974C41.0582 34.2279 41.1779 34.4864 41.1135 34.8649C41.049 35.2434 40.2431 36.5174 39.999 36.679C39.9576 36.7113 39.9069 36.7343 39.8563 36.739C39.8379 36.739 39.7504 36.7205 39.8056 36.5312C39.9576 36.005 40.1556 34.7587 40.1004 34.3617C40.0405 33.9001 38.6636 31.6152 38.6037 31.5137L38.5761 31.4767C38.3643 31.1259 38.1432 30.7659 38.1616 30.3458C38.1616 30.1519 38.3412 30.0181 38.4702 29.9673C38.7096 29.875 38.9399 29.8427 39.184 29.7873C39.7688 29.658 40.3721 29.5242 40.5885 29.1964C41.247 28.1948 41.6384 27.1469 41.9009 25.6975C41.9147 25.6329 41.9608 25.5129 42.0483 25.5129C42.1035 25.5129 42.1542 25.5313 42.1772 25.656C42.4167 27.0408 42.0943 28.4671 41.2792 29.6073C41.224 29.7042 41.201 29.815 41.2194 29.9211C41.2378 30.0365 41.3667 30.1335 41.3667 30.1335C41.6799 30.3504 42.8357 30.2258 43.6739 29.7827C44.3139 29.7965 44.9126 29.6857 45.4974 29.5749C45.6816 29.538 45.8658 29.5057 46.0454 29.478C46.1053 29.5103 46.1514 29.5657 46.1606 29.6026C45.6678 30.1566 45.3731 30.7797 45.2211 31.5644C45.083 31.7075 44.9356 31.8414 44.7883 31.9753C44.2495 32.4692 43.6739 33.0185 43.6462 33.7247C43.6462 33.7247 43.6278 33.9786 43.9041 33.9971C43.987 34.0017 44.0883 33.9601 44.1758 33.9232C44.2633 33.877 44.36 33.854 44.4613 33.8494C44.5488 33.8632 44.6133 33.9324 44.6179 34.0201L44.0054 34.9203C43.7752 35.2942 43.8765 35.6911 43.964 36.0835C44.033 36.2958 44.0008 36.462 44.0607 36.6513C44.2126 37.099 44.7606 37.3113 45.1935 37.3113C45.9902 37.2744 46.7178 37.0159 47.4177 36.762C47.5421 36.7159 47.6664 36.6697 47.7954 36.6282C48.5644 36.2958 49.5959 36.2266 50.8162 36.4251C51.7971 36.3605 52.5385 35.7096 53.2523 35.0772C53.5608 35.0864 53.874 35.2665 54.2009 35.6173C55.2647 36.7574 56.5679 37.316 58.1843 37.316H58.3685L58.5297 37.3021C58.6954 37.2652 58.7415 37.1821 58.7507 37.0759C58.7645 36.9513 58.6632 36.822 58.4836 36.739L57.5764 36.2543C56.8488 35.7927 56.0614 35.2388 55.8449 34.5048C55.6101 33.7247 55.1726 32.9308 54.8456 32.3999C54.7766 32.2938 54.7075 32.1876 54.6338 32.086C54.5095 31.9014 54.3713 31.7121 54.2838 31.5137C55.2693 31.8645 55.8265 32.5984 56.4942 33.817C56.987 34.7264 58.2764 35.7004 59.5013 35.7004C59.6625 35.7004 59.8145 35.6819 59.971 35.6496C60.1 35.6219 60.1875 35.5388 60.2059 35.4234C60.2197 35.3265 60.2059 35.2295 60.1 35.1695L59.3586 34.8002C58.479 34.2833 57.9771 33.4339 57.4843 32.6077C57.2909 32.2799 57.0929 31.9476 56.8765 31.6475C56.7383 31.4398 56.4942 31.2229 56.2824 31.0336C56.0982 30.8674 55.9232 30.7059 55.891 30.6228C55.0897 28.4256 54.2148 25.8498 54.0029 22.9787C53.9707 22.5402 53.6622 21.5801 53.2984 20.9569C52.1609 19.0967 49.4347 15.9116 49.2874 15.7547C49.1953 15.6577 49.0986 15.5608 48.9973 15.4639L48.9236 15.39L44.0192 11.3095C43.0476 10.6217 42.7482 10.5017 42.0437 10.2478C41.5463 10.077 41.026 9.99392 40.501 9.99854C39.8056 9.99854 39.1103 10.1324 38.5439 10.377C38.1524 10.5848 37.7748 10.8294 37.4064 11.0648C36.7801 11.4664 36.1308 11.8819 35.4263 12.1173C34.8783 12.3665 34.2888 12.5466 33.7132 12.722C32.5988 13.0636 31.4521 13.4236 30.5403 14.2637C30.2732 14.5084 30.0568 14.7115 29.8772 14.8869C29.0345 15.6808 28.9516 15.7685 28.2608 15.7685C26.6675 15.7685 25.5347 16.1609 24.3512 17.1256C23.4164 17.975 22.4953 18.7689 21.4178 19.1474C20.9342 19.3136 20.4001 19.3782 19.8336 19.4336C19.0186 19.5075 18.8942 19.5167 18.1206 19.7013C16.9555 19.9691 15.726 20.9292 14.6806 21.7416C14.3398 22.0093 13.884 22.3602 13.6675 22.5033C13.5524 22.5771 13.4188 22.6602 13.3129 22.7248C12.0143 23.4818 10.794 24.2019 9.22367 24.2019H9.10854C7.93887 24.1188 6.8751 23.3064 6.51591 22.2355C6.18896 21.0308 6.53894 19.7937 7.48757 18.8428C7.93887 18.3904 8.45002 17.9519 8.95197 17.5272C9.75324 16.8441 10.5131 16.1978 11.038 15.4916C11.6505 14.6699 11.5814 13.2805 10.8953 12.5281C10.2091 11.7757 8.68027 11.3972 8.10004 11.2587L8.00333 11.2356C7.94347 11.2218 7.84676 11.2079 7.7915 11.1987C7.42771 11.1248 7.07312 11.0741 6.71853 10.991C5.80674 10.7417 5.10217 10.0355 4.29629 9.60156C3.98315 10.0816 3.88184 10.5986 3.92328 11.1756C4.07525 12.3942 5.08836 13.659 6.21659 14.176C6.26724 14.1945 6.31329 14.2176 6.35934 14.2314C6.71393 14.3837 7.08694 14.4068 7.44152 14.4068H7.89742C8.11386 14.4068 8.37634 14.4068 8.60659 14.4668C8.85987 14.5407 9.04407 14.7576 9.08091 15.0161C9.09933 15.1777 9.02565 15.3069 8.81842 15.4639L8.2474 15.9393C7.28035 16.7379 6.27645 17.5734 5.46597 18.575C4.37458 19.7567 4.32853 21.8062 4.83508 23.131C5.48439 24.8805 7.27574 25.8591 8.76777 26.0483C9.03486 26.0899 9.29735 26.113 9.57825 26.113C10.4578 26.113 11.2913 25.9006 12.1018 25.6975C12.134 25.6883 12.1571 25.6883 12.1801 25.6883C12.2169 25.6883 12.286 25.6883 12.2998 25.8729C12.3228 26.233 12.3459 26.6438 12.3643 27.0408C12.3919 27.687 12.4242 28.2963 12.4702 28.5548C12.5761 29.1272 12.8616 29.8288 13.0504 30.2904C13.1333 30.4843 13.1932 30.6366 13.2116 30.7151C13.2853 30.9782 13.2162 31.2644 13.0412 31.426C12.4288 31.9891 11.1808 32.4369 10.9506 32.4692C10.5821 32.5153 10.1907 32.5338 9.90061 32.5523C9.75785 32.5615 9.63812 32.5661 9.58286 32.5753C9.45392 32.5892 9.33419 32.6446 9.24209 32.7369C9.0671 32.9077 8.87829 33.4016 8.65264 33.9694C8.5191 34.311 8.38095 34.671 8.2428 34.9618C7.85137 35.6127 7.19746 35.9958 6.56196 36.3604C6.40079 36.4528 6.24422 36.5451 6.09225 36.642L6.07383 36.6605C5.81134 37.0759 5.54886 37.4683 5.21269 37.7683C4.9502 38.013 4.61864 38.0684 4.29169 38.1099H4.26866L4.25485 38.1284C3.7575 38.6961 3.60093 39.4532 3.44436 40.1871C3.42134 40.3025 3.39831 40.4133 3.37068 40.5195L3.34766 40.6256H3.41213C3.67461 40.6579 3.93249 40.7133 4.2088 40.7733C4.57259 40.8564 4.9456 40.9349 5.31861 40.9349C5.69161 40.9349 5.96792 40.861 6.23961 40.7133C6.71393 40.4964 6.96721 40.0579 7.21127 39.6378C7.37245 39.3608 7.54283 39.0747 7.76387 38.8531C7.89282 38.71 8.07702 38.6269 8.26582 38.6361C8.45002 38.6361 8.65264 38.6915 8.84605 38.7423C9.02565 38.7931 9.20985 38.8392 9.38484 38.8485C10.2598 38.8992 11.0887 38.3453 11.4893 38.0268C11.6643 37.8883 11.8393 37.7222 12.0097 37.5606C12.2768 37.3113 12.5485 37.0528 12.8386 36.8728C13.1932 36.702 13.6215 36.6189 14.1556 36.6189C14.8142 36.6189 15.5095 36.7482 16.0667 36.8544C16.3615 36.9328 16.6654 36.9698 16.9739 36.9698C17.4713 36.979 17.964 36.859 18.4015 36.6189C18.8896 36.3466 19.3777 36.0881 19.7738 35.8804C20.004 35.7558 20.2066 35.6542 20.3632 35.5665C21.0632 35.1834 21.6572 34.1171 21.8783 33.6739C22.0855 33.2631 22.4401 32.3722 22.4401 32.363L22.4585 32.3215L21.6434 31.6983L21.6112 31.7537C21.6112 31.7537 21.0724 32.6446 20.7224 33.0554C19.2856 35.0172 16.9463 35.2665 15.0674 35.2665C14.9385 35.2618 14.8096 35.2572 14.6806 35.2572C12.3551 35.2572 10.4808 36.0373 9.11315 37.5837C9.04868 37.6575 8.93816 37.6714 8.89211 37.6068C8.86447 37.5698 8.85527 37.5144 8.87369 37.4406C8.90132 37.3021 8.95197 37.1729 9.02565 37.0528C10.4808 34.9803 12.9676 34.671 14.9707 34.6341C16.4536 34.5371 17.5311 34.2786 18.466 33.7986C19.6679 33.1847 20.5566 31.8276 20.9066 30.752C21.1369 30.0458 21.2474 29.2934 21.3579 28.5687C21.4454 27.9917 21.5329 27.3916 21.6757 26.8423C21.7033 26.773 21.7678 26.7269 21.8414 26.7269C21.8599 26.7269 21.8737 26.7269 21.8967 26.7407C21.975 26.7546 22.1177 26.81 22.1177 26.9208C21.9151 28.0609 21.6388 29.6211 22.1592 30.9228C22.4032 31.4352 22.9144 31.6891 23.7387 31.6891C24.2314 31.6891 24.7748 31.6014 25.2998 31.5229C25.705 31.4583 26.0873 31.3983 26.4188 31.3844C26.557 31.3706 26.6997 31.3659 26.8425 31.3659C27.4964 31.3659 28.1273 31.4906 28.7352 31.6152C29.2647 31.7214 29.8173 31.8322 30.3791 31.8599C30.4805 31.8645 30.5864 31.8737 30.7015 31.8829C30.8949 31.9014 31.0975 31.9153 31.3048 31.9153C31.7837 31.9153 32.1198 31.8183 32.3639 31.6198C32.5343 31.4813 32.4744 31.269 32.4008 31.0013L32.3869 30.9505C32.3731 30.9044 32.3593 30.8536 32.3409 30.8028C32.235 30.452 32.0692 29.9165 32.3409 29.6673C32.3869 29.635 32.4376 29.6165 32.4929 29.6165C32.5389 29.6165 32.5988 29.6303 32.6172 29.7042L32.7093 30.0089C32.829 30.4335 32.958 30.8767 33.2297 31.2552C33.8007 31.9845 34.6848 32.6815 35.7854 33.2585C36.4946 33.7432 37.3465 34.5694 37.4156 35.7142C37.4156 36.2358 36.9091 36.5959 36.5361 36.822C35.9466 37.1175 34.9335 37.4452 34.4592 37.4452C34.3947 37.4498 34.3303 37.4406 34.275 37.4129C33.5889 37.0482 33.2389 36.4528 32.8659 35.825C32.6725 35.4788 32.4514 35.1511 32.2027 34.8418C31.8482 34.4448 31.3969 34.2925 30.789 34.3386C30.2042 34.3848 29.6608 34.4956 29.0207 34.6341C28.8963 34.6572 28.7858 34.7402 28.7305 34.8556C28.6753 34.9941 28.6891 35.1511 28.7674 35.2803C29.099 35.8758 29.4213 36.4158 29.7621 36.9928L29.914 37.2513C29.9969 37.3898 30.1719 37.4083 30.3147 37.4083C30.393 37.4083 30.4759 37.4083 30.568 37.3944C30.6647 37.3852 30.7614 37.3852 30.8627 37.3806C31.1574 37.3806 31.3508 37.4544 31.4705 37.6022C31.5765 37.7591 31.6639 37.9253 31.7561 38.0868C31.9817 38.4884 32.2119 38.9085 32.5988 39.2085C32.9488 39.5224 33.4599 39.6978 33.9895 39.6978C34.2243 39.6978 34.45 39.6609 34.6664 39.6009C36.2045 39.1162 37.6965 38.6223 39.1241 37.856C39.1241 37.856 39.6859 37.8468 39.9023 37.8283V37.8145L39.9115 37.796ZM42.4673 20.523C42.4397 20.6199 42.3798 20.6799 42.3154 20.6799C42.2877 20.6799 42.2187 20.6661 42.1956 20.5461C41.9378 19.2305 41.7858 18.5843 41.4819 17.9796C41.3898 17.7857 41.2654 17.6242 41.1641 17.4764C40.9431 17.1764 40.7543 16.9179 40.9661 16.5671C41.0306 16.4609 41.1871 16.3963 41.3575 16.3963C41.445 16.3963 41.5187 16.4148 41.5878 16.4471C41.8411 16.5717 42.0897 16.8764 42.3384 17.3887C42.9693 18.6858 42.4673 20.5138 42.4627 20.5322H42.4673V20.523ZM50.7103 33.6139C50.7103 33.6139 50.6689 33.9832 50.4985 34.1448C50.3235 34.3017 49.7018 34.3894 49.3703 34.3802C49.0433 34.3663 48.9282 34.3202 48.8637 34.2232C48.7854 34.1078 48.9098 33.8909 48.9098 33.8909C48.9512 33.8078 49.3334 33.0092 50.1071 32.7969C50.1071 32.7969 50.3557 32.7046 50.5952 32.8246C50.8347 32.94 50.7195 33.5401 50.7103 33.6232V33.6139ZM52.953 28.4486C52.93 28.6333 52.8747 28.8087 52.7918 28.9703C52.7504 29.0441 52.6859 29.2011 52.4602 29.2057C52.2116 29.2057 52.23 28.9149 52.23 28.8779C52.23 28.8779 52.1978 28.0701 52.0458 27.7286C51.88 27.3593 51.0695 26.3161 50.5998 26.3622C50.4847 26.3715 50.1761 26.5561 49.9505 26.8469C49.6742 27.2023 49.6742 27.2485 49.5913 27.3039C49.5084 27.3593 49.3979 27.3316 49.3611 27.1192C49.3242 26.9069 49.2828 26.7361 49.3841 26.3345C49.4808 25.9329 49.5821 25.8406 49.6972 25.5544C49.6972 25.5544 49.9413 24.9913 50.0288 24.8482C50.2821 24.465 50.6136 24.4927 50.6136 24.4927C50.7057 24.4927 50.9912 24.4604 51.3044 24.8482C51.6636 25.3005 51.5853 25.259 51.6866 25.4159C51.7833 25.5729 51.8938 25.7391 52.1931 26.0668C52.4879 26.3945 52.8194 27.0223 52.9115 27.4147C53.0036 27.807 52.999 28.144 52.9484 28.444H52.9576L52.953 28.4486Z" fill="#D2003C"/>
</g>
<defs>
<clipPath id="clip0_415_2188">
<rect width="292" height="47" fill="white"/>
</clipPath>
</defs>
</svg>
